<?xml version="1.0" encoding="utf-8"?>
<!-- Designed by Vexels.com - 2020 All Rights Reserved - https://vexels.com/terms-and-conditions/  -->
<svg version="1.1" id="Layer_1" xmlns="http://www.w3.org/2000/svg" xmlns:xlink="http://www.w3.org/1999/xlink" x="0px" y="0px"
	 viewBox="0 0 1200 1200" enable-background="new 0 0 1200 1200" xml:space="preserve">
<g>
	<path fill="#F4D1AA" d="M1137.785,826.88c0.178,4.242-0.421,8.324-1.93,12.244c-3.927,10.202-10.708,17.594-21.134,21.393
		c-3.91,1.424-7.934,2.311-12.036,2.984c-3.418,0.561-6.871,0.712-10.282,1.183c-3.95,0.546-7.935,0.531-11.861,1.05
		c-3.779,0.5-7.617,0.396-11.34,1.033c-4.786,0.818-9.672,0.463-14.413,1.56c-0.998,0.231-2.064,0.165-3.099,0.237
		c-2.067,0.143-4.141,0.161-6.171,0.698c-0.825,0.218-1.711,0.223-2.572,0.288c-2.41,0.183-4.827,0.241-7.2,0.827
		c-0.994,0.245-2.059,0.213-3.093,0.288c-1.895,0.136-3.8,0.159-5.653,0.673c-0.495,0.137-1.022,0.178-1.538,0.213
		c-3.101,0.211-6.214,0.313-9.265,0.99c-7.08,0.215-14.093,1.458-21.195,1.354c-2.246-0.033-4.494,0.056-6.74,0.138
		c-1.551,0.057-3.098,0.254-4.649,0.29c-2.933,0.069-5.883,0.258-8.798,0.033c-2.241-0.173-4.477-0.297-6.72-0.361
		c-3.456-0.098-6.913-0.173-10.368-0.295c-2.07-0.073-4.151-0.06-6.182-0.578c-0.333-0.085-0.682-0.12-1.026-0.139
		c-2.244-0.126-4.493-0.179-6.73-0.378c-2.233-0.199-4.445-0.643-6.679-0.799c-4.657-0.326-9.253-1.073-13.85-1.826
		c-2.553-0.418-5.185-0.316-7.675-1.158c-13.367-1.923-26.396-5.225-39.153-9.628c-8.486-2.929-17.044-5.661-25.311-9.192
		c-3.017-1.289-6.057-2.528-9.035-3.901c-9.569-4.412-19.164-8.762-28.621-13.421c-7.433-3.662-14.888-7.302-22.547-10.491
		c-2.714-1.13-5.487-2.056-8.341-2.794c-1.692-0.437-3.378-0.739-5.105-0.776c-4.151-0.089-8.291,0.075-12.405,0.698
		c-1.193,0.181-2.393,0.346-3.595,0.434c-3.099,0.228-6.224,0.142-9.283,0.828c-6.73,0.141-13.46,0.639-20.173-0.452
		c-2.89-0.47-5.876-0.266-8.722-1.129c-9.16-1.049-17.894-3.719-26.445-7.04c-7.571-2.941-14.953-6.318-22.276-9.83
		c-7.983-3.829-15.344-8.641-22.389-13.966c-4.828-3.649-9.463-7.522-13.919-11.623c-4.703-4.328-9.569-8.479-14.295-12.783
		c-3.194-2.909-6.263-5.955-9.4-8.928c-7.15-6.775-14.258-13.597-21.481-20.294c-4.687-4.345-9.54-8.512-14.338-12.735
		c-0.641-0.564-1.391-1.009-2.112-1.476c-0.458-0.296-1.598-0.203-1.974,0.157c-0.619,0.594-1.291,1.158-1.792,1.844
		c-1.222,1.673-2.388,3.39-3.525,5.123c-5.594,8.527-11.406,16.898-17.758,24.882c-2.044,2.569-4.061,5.162-6.208,7.643
		c-3.391,3.92-6.767,7.852-10.221,11.72c-4.61,5.164-9.397,10.146-14.393,14.922c-4.744,4.536-9.631,8.918-14.628,13.183
		c-7.102,6.061-14.419,11.838-21.938,17.367c-9.193,6.76-18.652,13.116-28.461,18.951c-6.683,3.976-13.458,7.782-20.415,11.266
		c-8.041,4.026-16.307,7.519-24.719,10.682c-6.628,2.493-13.312,4.825-20.08,6.901c-8.911,2.733-17.913,5.101-27.069,6.914
		c-5.251,1.04-10.535,1.845-15.806,2.736c-3.738,0.632-7.574,0.7-11.3,1.384c-4.775,0.876-9.645,0.692-14.408,1.602
		c-1.513,0.289-3.1,0.264-4.653,0.262c-5.358-0.007-10.72,0.034-16.073-0.146c-3.442-0.115-6.878-0.563-10.222-1.475
		c-1.042-0.284-2.021-0.245-3.044,0.08c-7.238,2.301-14.531,4.415-21.881,6.326c-5.343,1.389-10.73,2.592-16.146,3.674
		c-4.229,0.845-8.431,1.824-12.692,2.507c-3.576,0.573-7.116,1.353-10.734,1.683c-2.059,0.187-4.091,0.655-6.15,0.856
		c-2.063,0.202-4.127,0.315-6.166,0.752c-1.004,0.215-2.062,0.194-3.096,0.256c-3.274,0.197-6.553,0.226-9.808,0.792
		c-1.688,0.294-3.447,0.19-5.175,0.235c-8.644,0.228-17.285,0.049-25.927-0.142c-0.346-0.008-0.697,0.017-1.036-0.034
		c-5.49-0.833-11.034-0.592-16.553-0.848c-2.07-0.096-4.15-0.068-6.183-0.579c-0.332-0.083-0.684-0.117-1.028-0.127
		c-4.839-0.134-9.639-0.683-14.449-1.195c-4.124-0.439-8.198-1.139-12.291-1.755c-6.846-1.03-13.509-2.827-20.179-4.594
		c-5.513-1.461-10.904-3.272-16.027-5.853c-4.044-2.037-7.796-4.509-11.172-7.474c-5.456-4.794-9.27-10.625-10.675-17.911
		c-0.395-2.045-0.776-4.067-0.818-6.145c-0.215-10.593-0.265-10.91,2.393-22.042c2.813-11.783,7.006-23.113,11.799-34.232
		c2.601-6.034,5.37-11.982,8.467-17.772c7.262-13.577,15.262-26.694,24.598-38.963c4.08-5.361,8.162-10.721,12.304-16.034
		c2.018-2.587,4.129-5.107,6.285-7.581c3.746-4.299,7.63-8.479,11.327-12.818c4.38-5.141,9.09-9.963,13.993-14.584
		c4.649-4.382,9.503-8.549,14.307-12.765c2.467-2.165,5.047-4.199,7.531-6.345c6.938-5.991,14.251-11.507,21.682-16.855
		c9.394-6.762,18.898-13.375,28.597-19.695c12.015-7.829,24.152-15.467,36.442-22.858c11.252-6.766,164.436-96.61,173.65-102.402
		c13.018-8.182,26.024-16.386,38.932-24.739c13.924-9.01,27.882-17.971,41.511-27.433c6.246-4.336,12.438-8.74,18.505-13.324
		c2.618-1.978,5.261-3.937,8.002-5.736c2.014-1.322,4.192-2.401,6.328-3.529c1.1-0.581,2.323-0.627,3.545-0.475
		c1.075,0.134,1.938,0.671,2.684,1.434c0.7,0.717,0.622,1.763-0.179,2.172c-0.306,0.157-0.59,0.368-0.91,0.486
		c-3.94,1.45-7.322,3.838-10.647,6.321c-0.131,0.098-0.311,0.331-0.273,0.416c0.142,0.324,0.478,0.471,0.822,0.319
		c4.263-1.883,8.464-3.918,12.786-5.65c9.466-3.795,19.147-6.88,29.192-8.84c6.37-1.243,12.717-0.974,19.101-0.619
		c11.043,1.618,21.474,4.95,31.193,10.568c6.447,3.727,12.685,7.731,18.599,12.242c2.472,1.885,4.897,3.836,7.275,5.838
		c6.74,5.676,30.889,26.351,36.343,30.871c5.852,4.849,11.76,9.63,17.783,14.272c5.886,4.536,11.868,8.938,17.878,13.305
		c8.811,6.403,17.924,12.347,27.256,17.961c9.922,5.969,20.074,11.529,30.281,16.988c3.804,2.035,7.757,3.794,11.643,5.674
		c1.4,0.677,2.81,1.333,4.208,2.015c6.833,3.332,13.789,6.39,20.747,9.447c4.111,1.806,35.573,16.069,47.25,21.265
		c23.214,10.33,45.961,21.62,68.459,33.409c13.619,7.136,27.132,14.477,40.178,22.636c8.059,5.04,15.947,10.342,23.718,15.812
		c4.661,3.28,9.231,6.694,13.763,10.15c5.77,4.401,11.346,9.038,16.759,13.881c11.73,10.498,22.881,21.587,33.744,32.964
		c4.412,4.621,8.587,9.466,12.738,14.331c5.725,6.711,11.104,13.682,16.306,20.796c6.529,8.929,12.71,18.093,18.456,27.548
		c3.859,6.35,7.618,12.757,11.016,19.368c3.402,6.619,6.39,13.403,8.056,20.7C1137.109,818.686,1137.973,822.738,1137.785,826.88z"
		/>
	<path fill="#9298AB" d="M1137.785,826.88c0.178,4.242-0.421,8.324-1.93,12.244c-3.927,10.202-10.708,17.594-21.134,21.393
		c-3.91,1.424-7.934,2.311-12.036,2.984c-3.418,0.561-6.871,0.712-10.282,1.183c-3.95,0.546-7.935,0.531-11.861,1.05
		c-3.779,0.5-7.617,0.396-11.34,1.033c-4.786,0.818-9.672,0.463-14.413,1.56c-0.998,0.231-2.064,0.165-3.099,0.237
		c-2.067,0.143-4.141,0.161-6.171,0.698c-0.825,0.218-1.711,0.223-2.572,0.288c-2.41,0.183-4.827,0.241-7.2,0.827
		c-0.994,0.245-2.059,0.213-3.093,0.288c-1.895,0.136-3.8,0.159-5.653,0.673c-0.495,0.137-1.022,0.178-1.538,0.213
		c-3.101,0.211-6.214,0.313-9.265,0.99c-7.08,0.215-14.093,1.458-21.195,1.354c-2.246-0.033-4.494,0.056-6.74,0.138
		c-1.551,0.057-3.098,0.254-4.649,0.29c-2.933,0.069-5.883,0.258-8.798,0.033c-2.241-0.173-4.477-0.297-6.72-0.361
		c-3.456-0.098-6.913-0.173-10.368-0.295c-2.07-0.073-4.151-0.06-6.182-0.578c-0.333-0.085-0.682-0.12-1.026-0.139
		c-2.244-0.126-4.493-0.179-6.73-0.378c-2.233-0.199-4.445-0.643-6.679-0.799c-4.657-0.326-9.253-1.073-13.85-1.826
		c-2.553-0.418-5.185-0.316-7.675-1.158c-13.367-1.923-26.396-5.225-39.153-9.628c-8.486-2.929-17.044-5.661-25.311-9.192
		c-3.017-1.289-6.057-2.528-9.035-3.901c-9.569-4.412-19.164-8.762-28.621-13.421c-10.547-5.196-21.32-4.2-30.695-12.436
		c-8.733-7.672-14.602-18.357-19.533-28.719c-12.255-25.754-23.052-52.184-32.984-78.921c-6.225-16.758-12.124-33.67-19.689-49.868
		c-9.815-21.018-22.341-40.637-34.828-60.185c-9.222-14.437-18.889-29.329-33.31-38.575c-21.09-13.522-48.019-12.441-73.024-10.89
		c-8.686,0.539-17.772,1.2-25.173,5.777c-11.053,6.837-15.468,20.396-22.704,31.193c-11.196,16.705-29.711,27.231-41.81,43.294
		c-14.787,19.632-18.478,45.3-29.125,67.452c-8.713,18.13-22.018,33.737-30.869,51.8c-9.134,18.641-13.341,39.527-23.739,57.493
		c-26.262,45.377-82.677,60.27-129.914,72.552c-5.343,1.389-10.73,2.592-16.146,3.674c-4.229,0.845-8.431,1.824-12.692,2.507
		c-3.576,0.573-7.116,1.353-10.734,1.683c-2.059,0.187-4.091,0.655-6.15,0.856c-2.063,0.202-4.127,0.315-6.166,0.752
		c-1.004,0.215-2.062,0.194-3.096,0.256c-3.274,0.197-6.553,0.226-9.808,0.792c-1.688,0.294-3.447,0.19-5.175,0.235
		c-8.644,0.228-17.285,0.049-25.927-0.142c-0.346-0.008-0.697,0.017-1.036-0.034c-5.49-0.833-11.034-0.592-16.553-0.848
		c-2.07-0.096-4.15-0.068-6.183-0.579c-0.332-0.083-0.684-0.117-1.028-0.127c-4.839-0.134-9.639-0.683-14.449-1.195
		c-4.124-0.439-8.198-1.139-12.291-1.755c-6.846-1.03-13.509-2.827-20.179-4.594c-5.513-1.461-10.904-3.272-16.027-5.853
		c-4.044-2.037-7.796-4.509-11.172-7.474c-5.456-4.794-9.27-10.625-10.675-17.911c-0.395-2.045-0.776-4.067-0.818-6.145
		c-0.215-10.593-0.265-10.91,2.393-22.042c2.813-11.783,7.006-23.113,11.799-34.232c2.601-6.034,5.37-11.982,8.467-17.772
		c7.262-13.577,15.262-26.694,24.598-38.963c4.08-5.361,8.162-10.721,12.304-16.034c2.018-2.587,4.129-5.107,6.285-7.581
		c3.746-4.299,7.63-8.479,11.327-12.818c4.38-5.141,9.09-9.963,13.993-14.584c4.649-4.382,9.503-8.549,14.307-12.765
		c2.467-2.165,5.047-4.199,7.531-6.345c6.938-5.991,14.251-11.507,21.682-16.855c9.394-6.762,18.898-13.375,28.597-19.695
		c12.015-7.829,24.152-15.467,36.442-22.858c11.252-6.766,164.436-96.61,173.65-102.402c13.018-8.182,26.024-16.386,38.932-24.739
		c13.924-9.01,27.882-17.971,41.511-27.433c6.246-4.336,12.438-8.74,18.505-13.324c2.618-1.978,5.261-3.937,8.002-5.736
		c2.014-1.322,4.192-2.401,6.328-3.529c1.1-0.581,2.323-0.627,3.545-0.475c1.075,0.134,1.938,0.671,2.684,1.434
		c0.7,0.717,0.622,1.763-0.179,2.172c-0.306,0.157-0.59,0.368-0.91,0.486c-3.94,1.45-7.322,3.838-10.647,6.321
		c-0.131,0.098-0.311,0.331-0.273,0.416c0.142,0.324,0.478,0.471,0.822,0.319c4.263-1.883,8.464-3.918,12.786-5.65
		c9.466-3.795,19.147-6.88,29.192-8.84c6.37-1.243,12.717-0.974,19.101-0.619c11.043,1.618,21.474,4.95,31.193,10.568
		c6.447,3.727,12.685,7.731,18.599,12.242c2.472,1.885,4.897,3.836,7.275,5.838c6.74,5.676,30.889,26.351,36.343,30.871
		c5.852,4.849,11.76,9.63,17.783,14.272c5.886,4.536,11.868,8.938,17.878,13.305c8.811,6.403,17.924,12.347,27.256,17.961
		c9.922,5.969,20.074,11.529,30.281,16.988c3.804,2.035,7.757,3.794,11.643,5.674c1.4,0.677,2.81,1.333,4.208,2.015
		c6.833,3.332,13.789,6.39,20.747,9.447c4.111,1.806,35.573,16.069,47.25,21.265c23.214,10.33,45.961,21.62,68.459,33.409
		c13.619,7.136,27.132,14.477,40.178,22.636c8.059,5.04,15.947,10.342,23.718,15.812c4.661,3.28,9.231,6.694,13.763,10.15
		c5.77,4.401,11.346,9.038,16.759,13.881c11.73,10.498,22.881,21.587,33.744,32.964c4.412,4.621,8.587,9.466,12.738,14.331
		c5.725,6.711,11.104,13.682,16.306,20.796c6.529,8.929,12.71,18.093,18.456,27.548c3.859,6.35,7.618,12.757,11.016,19.368
		c3.402,6.619,6.39,13.403,8.056,20.7C1137.109,818.686,1137.973,822.738,1137.785,826.88z"/>
	<g>
		<path fill="#CC8952" d="M596.551,397.995c0.633,0.887,1.651,1.175,2.561,1.626c4.683,2.319,8.82,5.421,12.7,8.884
			c4.699,4.194,8.342,9.211,11.266,14.754c3.237,6.137,5.588,12.621,7.329,19.33c1.671,6.441,3.052,14.096,4.393,21.806
			c1.035,5.952,1.59,11.972,2.758,17.899c0.096,4.328,1.289,8.539,1.378,12.871c0.021,1.03,0.235,2.056,0.372,3.082
			c0.114,0.855,0.338,1.706,0.354,2.561c0.14,7.427,1.243,14.804,1.113,22.247c-0.103,5.875-0.102,11.753-0.151,17.629
			c-0.006,0.691,0.038,1.394-0.066,2.071c-0.74,4.806-0.608,9.652-0.655,14.485c-0.064,6.567,0.004,13.135,0.031,19.702
			c0.005,1.209-0.023,2.434,0.15,3.624c1.202,8.251,0.88,16.552,0.834,24.841c-0.021,3.794,0.016,7.61-0.831,11.352
			c-0.076,0.334-0.076,0.687-0.093,1.032c-0.267,5.181-1.182,10.275-1.96,15.394c-1.948,12.81-5,25.381-7.948,37.978
			c-1.769,7.557-3.498,15.126-4.874,22.769c-0.336,1.867-0.572,3.763-1.06,5.591c-1.032,3.866-0.79,7.906-1.722,11.777
			c-1.034,11.597,0.664,22.723,5.707,33.282c2.535,5.308,5.52,10.366,8.505,15.423c1.668,2.826,3.483,5.564,5.186,8.37
			c3.237,5.334,5.981,10.889,7.722,16.917c1.061,3.671,1.713,7.371,1.873,11.2c0.3,7.16-0.7,14.118-2.84,20.931
			c-2.538,8.081-5.57,15.974-9.058,23.692c-4.27,9.446-8.829,18.754-13.397,28.058c-1.827,3.721-3.512,7.513-5.394,11.205
			c-3.765,7.388-7.666,14.704-11.966,21.801c-2.597,4.285-5.203,8.563-8.119,12.644c-2.412,3.376-4.921,6.663-7.801,9.67
			c-2.803,2.927-6.101,5.039-9.797,6.63c-2.148,0.924-4.334,1.075-6.597,0.751c-1.06-0.151-1.96-0.67-2.787-1.303
			c-2.351-1.799-4.386-3.927-6.087-6.334c-3.19-4.516-6.229-9.127-8.762-14.064c-3.552-6.922-6.67-14.042-9.821-21.146
			c-3.711-8.365-7.095-16.868-10.399-25.403c-3.494-9.028-6.421-18.23-8.751-27.623c-1.953-7.872-3.613-15.812-5.014-23.795
			c-0.594-3.385-1.317-6.78-1.434-10.251c-0.04-1.198-0.389-2.383-0.519-3.582c-0.167-1.543-0.324-3.094-0.352-4.644
			c-0.015-0.844,0.144-1.725,0.4-2.534c0.73-2.302,1.55-4.576,2.337-6.86c1.967-5.711,3.897-11.436,5.919-17.127
			c1.045-2.943,1.59-6,2.32-9.016c0.162-0.668,0.238-1.363,0.287-2.05c0.308-4.305,0.55-8.614,0.861-12.919
			c0.311-4.301,0.203-8.638,0.164-12.957c-0.03-3.276,0.027-6.56-0.607-9.813c-0.262-1.345-0.177-2.756-0.261-4.136
			c-0.157-2.584-0.208-5.172-0.812-7.72c-0.275-1.163-0.202-2.406-0.328-3.609c-0.18-1.715-0.398-3.426-0.598-5.139
			c-0.1-0.857-0.234-1.712-0.288-2.572c-0.195-3.101-0.194-6.221-0.944-9.266c-0.031-4.849-1.112-9.603-1.313-14.439
			c-0.043-1.032-0.208-2.061-0.333-3.089c-0.209-1.711-0.449-3.419-0.642-5.132c-0.135-1.201-0.07-2.443-0.345-3.607
			c-0.723-3.065-0.703-6.169-0.732-9.279c-0.024-2.592-0.066-5.185-0.137-7.776c-0.028-1.034-0.14-2.066-0.242-3.096
			c-0.17-1.717-0.458-3.427-0.528-5.147c-0.155-3.78-0.716-7.531-0.335-11.352c0.359-3.605,0.079-7.278,0.509-10.87
			c0.474-3.953,0.468-7.94,0.982-11.868c0.828-6.325,1.451-12.672,2.547-18.973c1.218-7.005,2.971-13.824,5.279-20.525
			c0.225-0.653,0.355-1.342,0.615-1.979c0.682-1.666,0.692-3.375,0.369-5.097c-0.635-3.392-1.305-6.777-1.971-10.163
			c-1.166-5.923-2.51-11.815-3.059-17.843c-0.968-3.716-0.648-7.57-1.178-11.32c-0.802-5.685-0.635-11.374-0.593-17.072
			c0.014-1.899,0.048-3.8,0.507-5.667c0.164-0.665,0.198-1.367,0.244-2.056c0.641-9.518,2.687-18.771,5.254-27.925
			c1.165-4.155,2.427-8.279,3.884-12.344c0.698-1.946,1.155-3.955,1.517-6.011c1.122-6.361,3.605-12.235,6.891-17.771
			c4.069-6.854,8.846-13.204,14.047-19.227c3.059-3.542,6.546-6.672,10.417-9.304c5.4-3.671,11.335-5.807,17.962-5.742
			c1.591,0.016,3.07,0.357,4.513,0.999C596.949,395.16,597.2,395.743,596.551,397.995z"/>
		<path fill="#50586F" d="M754.232,723.907c0.008-1.359-0.636-2.586-1.06-3.861c-2.729-8.2-4.832-16.57-6.396-25.057
			c-0.842-4.568-1.677-9.181-1.372-13.888c0.09-1.392,0.291-2.725,0.864-4.021c0.759-1.717,2.047-2.764,3.803-3.231
			c0.643-0.171,1.395-0.24,2.028-0.081c1.86,0.468,3.552,1.35,5.067,2.529c1.636,1.273,3.296,2.525,4.841,3.902
			c4.513,4.023,9.11,7.952,13.428,12.196c7.151,7.028,14.725,13.597,22.358,20.086c7.116,6.049,14.782,11.357,22.807,16.157
			c12.609,7.543,25.478,14.595,38.728,20.946c8.878,4.255,17.714,8.603,26.664,12.702c9.261,4.241,18.692,8.096,28.187,11.793
			c10.297,4.009,20.682,7.775,31.094,11.471c6.182,2.195,12.313,4.533,18.494,6.728c8.626,3.064,17.396,5.658,26.33,7.663
			c7.743,1.738,15.527,3.248,23.382,4.424c4.949,0.741,9.884,1.517,14.866,2.026c3.427,0.351,6.821,1.011,10.234,1.51
			c5.803,0.848,11.605,1.701,17.413,2.511c10.262,1.431,20.458,3.198,30.374,6.27c4.614,1.429,9.251,2.826,13.631,4.915
			c1.247,0.595,2.491,1.195,3.715,1.835c0.609,0.319,1.186,0.708,1.748,1.107c3.033,2.153,2.821,6.12,0.948,8.223
			c-0.926,1.039-1.948,1.949-3.149,2.669c-7.577,4.54-15.417,8.53-23.852,11.232c-4.108,1.316-8.253,2.52-12.41,3.675
			c-2.823,0.784-5.7,1.334-8.604,1.79c-3.589,0.563-7.214,0.72-10.802,1.159c-8.969,1.098-17.943,0.602-26.92,0.547
			c-6.355-0.813-12.761-0.623-19.14-0.969c-1.204-0.065-2.402-0.243-3.603-0.368c-1.373-0.142-2.743-0.327-4.12-0.414
			c-2.929-0.186-5.863-0.237-8.758-0.85c-1.171-0.248-2.408-0.189-3.615-0.261c-2.068-0.122-4.148-0.13-6.172-0.67
			c-0.331-0.088-0.682-0.144-1.025-0.144c-4.338,0.002-8.57-0.992-12.87-1.364c-3.261-0.282-6.5-0.841-9.744-1.311
			c-3.584-0.519-7.161-1.087-10.743-1.617c-3.072-0.454-6.165-0.787-9.217-1.347c-5.767-1.058-11.506-2.258-17.243-3.473
			c-12.324-2.609-24.526-5.719-36.77-8.665c-15.366-3.697-30.032-9.173-43.895-16.76c-5.91-3.235-11.714-6.661-17.265-10.488
			c-3.7-2.551-7.244-5.308-10.565-8.344c-2.295-2.098-4.673-4.107-6.92-6.255c-5.252-5.021-10.012-10.492-14.605-16.119
			c-7.765-9.513-14.932-19.451-21.559-29.788c-1.956-3.051-4.13-5.962-6.21-8.934c-1.785-2.55-3.572-5.095-4.44-8.149
			c-0.317-1.116-0.458-2.067,1.177-3C753.656,724.384,753.904,724.153,754.232,723.907z"/>
		<path fill="#50586F" d="M161.132,891.198c-3.619,0.053-6.205,0.054-8.771-0.498c-1.17-0.252-2.406-0.201-3.613-0.281
			c-1.723-0.114-3.444-0.201-5.132-0.641c-0.828-0.216-1.704-0.263-2.562-0.349c-9.301-0.927-18.429-2.639-27.241-5.854
			c-3.89-1.419-7.801-2.783-11.717-4.13c-4.765-1.639-9.169-4.009-13.463-6.599c-2.659-1.604-5.426-3.052-7.747-5.163
			c-0.508-0.462-1.014-0.942-1.432-1.482c-0.779-1.005-1.181-2.125-0.585-3.372c0.377-0.788,0.691-1.582,0.696-2.467
			c0.027-4.701,2.537-8.192,5.773-11.166c3.188-2.93,6.848-5.179,10.895-6.87c5.936-2.48,12.084-4.063,18.403-5.096
			c3.062-0.501,6.12-1.031,9.18-1.546c0.51-0.086,1.021-0.226,1.533-0.237c5.186-0.107,10.284-1.241,15.477-1.295
			c2.07-0.022,4.123-0.235,6.18-0.574c2.034-0.335,4.13-0.298,6.199-0.423c2.41-0.146,4.842-0.051,7.21-0.67
			c0.331-0.086,0.685-0.116,1.028-0.118c5.536-0.027,11.006-0.905,16.514-1.295c1.717-0.122,3.424-0.391,5.135-0.597
			c0.343-0.041,0.682-0.148,1.024-0.152c4.332-0.041,8.569-0.977,12.865-1.376c3.259-0.303,6.496-0.86,9.734-1.36
			c3.578-0.553,15.141-2.497,17.341-2.928c8.969-1.756,17.899-3.68,26.763-5.925c9.7-2.457,19.369-5.029,28.951-7.895
			c10.583-3.166,21.035-6.734,31.173-11.172c16.176-7.081,31.723-15.295,46.218-25.424c8.071-5.64,15.918-11.579,23.517-17.84
			c2.798-2.305,5.5-4.729,8.203-7.146c5.15-4.605,20.98-19.027,23.798-21.576c0.764-0.691,1.584-1.349,2.467-1.872
			c0.568-0.337,1.288-0.497,1.957-0.57c2.078-0.226,4.121,2.028,3.579,4.001c-0.363,1.323-0.834,2.641-1.451,3.864
			c-1.945,3.853-3.847,7.738-6.009,11.47c-4.934,8.515-9.992,16.958-15.043,25.405c-1.594,2.666-3.283,5.279-5.004,7.866
			c-4.783,7.188-9.562,14.38-14.427,21.513c-4.184,6.134-8.429,12.242-13.248,17.894c-4.476,5.25-8.846,10.629-14.27,14.988
			c-7.497,7.271-16.151,12.966-25.131,18.164c-4.027,2.331-8.253,4.345-12.496,6.266c-7.232,3.274-14.515,6.443-21.839,9.506
			c-11.783,4.928-23.66,9.604-35.976,13.09c-3.816,1.08-7.568,2.397-11.44,3.283c-4.538,1.038-9.09,2.008-13.696,2.705
			c-2.557,0.387-5.133,0.695-7.659,1.234c-5.406,1.154-10.916,1.607-16.352,2.556c-1.185,0.207-2.408,0.2-3.615,0.282
			c-2.41,0.164-4.818,0.227-7.213,0.68c-1.682,0.318-3.439,0.291-5.165,0.322c-6.219,0.112-12.438,0.179-18.657,0.273
			c-2.07,0.031-4.13,0.08-6.197,0.381C163.923,891.256,162.002,891.186,161.132,891.198z"/>
		<path fill="#7B89BA" d="M730.799,808.54c-0.346,0-0.691-0.003-1.037,0c-10.047,0.102-19.455-2.466-28.461-6.766
			c-5.313-2.537-10.374-5.507-15.241-8.805c-7.436-5.04-14.826-10.155-21.737-15.906c-6.12-5.093-11.8-10.662-16.967-16.723
			c-2.354-2.761-4.292-5.844-6.044-9.031c-2.166-3.94-4.152-7.967-5.665-12.206c-2.286-6.403-3.463-12.986-3.164-19.814
			c0.092-2.102,0.663-4.091,1.184-6.087c0.403-1.544,1.445-2.731,2.794-3.611c1.245-0.812,2.554-0.955,3.947-0.394
			c1.134,0.458,2.204,1.02,3.051,1.912c0.832,0.875,1.654,1.766,2.401,2.712c2.569,3.253,5.002,6.619,7.676,9.782
			c3.563,4.215,7.023,8.52,11.275,12.128c3.421,2.902,6.597,6.085,10.123,8.885c4.479,3.558,9.224,6.694,14.169,9.541
			c7.039,4.053,14.287,7.712,21.555,11.332c7.113,3.543,14.316,6.894,21.739,9.742c2.574,0.987,5.198,1.844,7.817,2.71
			c0.226,0.075,0.598-0.216,0.864-0.395c0.061-0.041,0.019-0.356-0.068-0.48c-0.69-0.985-1.409-1.951-2.101-2.934
			c-0.092-0.131-0.175-0.42-0.111-0.483c0.217-0.214,0.495-0.492,0.762-0.505c0.681-0.033,1.408-0.064,2.047,0.133
			c1.993,0.613,3.809,1.596,5.521,2.802c3.841,2.704,7.134,6.005,10.304,9.432c1.83,1.979,2.682,4.435,2.727,7.102
			c0.062,3.727-1.734,6.632-4.467,8.964c-1.842,1.572-3.917,2.834-6.185,3.741c-4.842,1.937-9.794,3.36-15.078,3.265
			c-1.209-0.022-2.419-0.003-3.629-0.003C730.799,808.567,730.799,808.554,730.799,808.54z"/>
		<path fill="#7B89BA" d="M427.525,816.766c-0.863,0-1.726,0.027-2.587-0.005c-4.207-0.155-8.116-4.213-8.36-8.459
			c-0.184-3.203,0.254-6.186,2.153-8.856c0.382-0.537,0.832-1.054,0.749-1.813c-0.034-0.305-0.096-0.433-0.412-0.328
			c-1.462,0.486-2.916,0.997-4.386,1.46c-1.224,0.385-2.681-0.267-3.549-1.532c-0.557-0.811-0.348-2.251,0.445-2.785
			c0.567-0.382,1.152-0.762,1.778-1.03c5.096-2.186,9.843-4.99,14.45-8.053c7.328-4.873,35.352-23.186,41.933-27.621
			c10.591-7.138,20.834-14.763,30.984-22.512c2.88-2.198,5.74-4.422,8.61-6.633c1.374-1.059,2.858-1.911,4.453-2.608
			c1.88-0.822,3.659-0.698,5.494,0.136c3.059,1.391,4.865,3.714,5.567,6.987c0.475,2.216,0.707,4.38,0.158,6.646
			c-0.444,1.83-0.442,3.745-0.852,5.615c-1.088,4.959-3.152,9.472-5.752,13.781c-5.051,8.373-11.597,15.398-19.142,21.576
			c-7.501,6.142-15.612,11.377-23.844,16.441c-5.733,3.526-11.568,6.879-17.623,9.833c-5.275,2.574-10.653,4.918-16.17,6.913
			c-2.75,0.994-5.581,1.81-8.43,2.464c-1.832,0.42-3.765,0.4-5.652,0.577C427.531,816.896,427.528,816.831,427.525,816.766z"/>
	</g>
	<g>
		<path d="M529.874,780.251c-0.537,0.414-1.117,0.783-1.6,1.253c-0.508,0.493-0.737,1.17-0.776,1.872
			c-0.028,0.513,0.017,1.037,0.084,1.549c2.443,18.525,5.867,36.853,11.339,54.745c5.003,16.357,10.313,32.616,16.111,48.712
			c2.81,7.802,5.559,15.627,8.386,23.423c2.888,7.964,5.261,16.086,7.547,24.236c0.077,0.273-0.145,0.631-0.264,1.089
			c-0.457-0.621-0.902-1.141-1.255-1.718c-3.52-5.765-6.625-11.745-8.977-18.082c-2.766-7.45-5.411-14.945-8.118-22.418
			c-6.18-17.059-11.849-34.288-17.273-51.601c-2.897-9.245-5.205-18.632-7.163-28.11c-1.713-8.29-3.272-16.609-4.432-24.998
			c-0.039-0.281-0.312-0.657-0.563-0.748c-0.273-0.099-0.74-0.026-0.962,0.162c-0.654,0.554-1.239,1.191-1.831,1.815
			c-1.784,1.881-3.542,3.787-5.338,5.656c-3.008,3.129-6.372,5.818-10.003,8.199c-7.826,5.133-16.102,9.422-24.609,13.285
			c-9.13,4.146-18.423,7.901-27.865,11.268c-12.862,4.587-25.564,9.568-38.082,15.026c-3.008,1.312-6.053,2.543-9.11,3.738
			c-15.771,6.165-31.613,12.129-47.664,17.537c-11.162,3.761-22.565,6.492-34.145,8.577c-3.757,0.676-7.496,1.264-11.16,1.033
			c-0.833,0.277-1.495,0.472-2.139,0.716c-15.559,5.904-31.578,10.078-47.977,12.856c-7.329,1.242-14.694,2.183-22.077,3.013
			c-4.807,0.541-9.615,1.077-14.429,1.556c-2.062,0.205-4.137,0.3-6.209,0.375c-14.686,0.53-29.379,0.675-44.071,0.498
			c-9.505-0.115-19.006-0.412-28.495-1.062c-3.964-0.272-7.945-0.299-11.918-0.436c-3.799-0.131-7.599-0.169-11.368-0.809
			c-1.67-0.284-3.382-0.319-5.068-0.669c0.859-0.033,1.718-0.097,2.577-0.095c9.333,0.017,18.667,0.014,28,0.086
			c2.762,0.021,5.521,0.31,8.284,0.396c11.061,0.344,22.124,0.232,33.184-0.048c7.947-0.201,15.898-0.426,23.835-0.851
			c6.38-0.342,12.766-0.686,19.11-1.566c6.502-0.902,13.033-1.596,19.535-2.497c16.817-2.332,33.286-6.143,49.313-11.792
			c8.019-2.827,15.617-6.549,22.829-11.029c15.033-9.338,29.008-20.028,41.33-32.788c2.16-2.237,4.303-4.501,6.315-6.87
			c10.428-12.275,19.886-25.242,27.983-39.191c7.293-12.564,14.024-25.417,20.33-38.499c3.001-6.226,5.994-12.456,8.974-18.692
			c11.354-23.758,24.585-46.414,39.823-67.894c6.8-9.586,13.497-19.245,20.741-28.509c6.822-8.725,14.153-17.002,21.824-24.982
			c0.83-0.863,1.773-1.619,2.682-2.403c0.074-0.064,0.288,0.034,0.574,0.078c-0.216,0.451-0.346,0.92-0.624,1.273
			c-2.245,2.852-4.519,5.681-6.78,8.521c-4.309,5.411-8.439,10.954-12.267,16.717c-6.122,9.216-12.557,18.213-18.923,27.259
			c-4.376,6.218-8.675,12.493-12.896,18.818c-10.861,16.273-20.253,33.384-28.818,50.957c-4.921,10.096-9.735,20.245-14.694,30.322
			c-5.113,10.392-10.692,20.537-16.539,30.536c-8.492,14.522-18.422,28.007-29.479,40.66c-6.84,7.828-14.477,14.848-22.58,21.352
			c-6.745,5.414-13.771,10.442-21.141,14.979c-0.869,0.535-1.851,0.929-2.387,1.889c0.209,0.205,0.406,0.569,0.623,0.581
			c0.681,0.04,1.39,0.039,2.053-0.107c7.426-1.632,14.798-3.445,22.03-5.841c19.034-6.305,37.789-13.361,56.38-20.855
			c6.249-2.519,12.376-5.343,18.642-7.815c7.713-3.043,15.498-5.908,23.281-8.769c8.761-3.221,17.418-6.695,25.944-10.492
			c9.967-4.439,19.513-9.626,28.527-15.806c5.751-3.943,10.854-8.564,15.359-13.844c3.364-3.943,6.601-7.997,9.817-12.064
			c2.035-2.574,3.936-5.254,5.47-8.175c0.2-0.38,0.581-0.665,1.166-1.312c-0.128,0.911-0.09,1.437-0.279,1.861
			c-1.832,4.11-3.983,8.05-6.4,11.846c-0.643,1.01-1.434,1.973-1.419,3.276L529.874,780.251z"/>
		<path d="M1149.564,835.344c-0.218-0.286-0.526-0.521-0.604-0.817c-2.75-10.368-6.578-20.378-10.153-30.469
			c-1.845-5.208-3.874-10.353-5.892-15.499c-3.032-7.732-6.751-15.146-10.628-22.481c-2.753-5.209-6.056-10.063-9.633-14.737
			c-4.627-6.045-9.596-11.804-14.807-17.343c-17.068-18.141-34.843-35.556-54.099-51.384c-23.4-19.234-48.004-36.766-74.234-51.984
			c-20.178-11.707-40.398-23.332-61.03-34.229c-18.029-9.522-36.171-18.821-54.321-28.109
			c-18.768-9.604-37.717-18.819-56.815-27.747c-23.342-10.911-45.987-23.156-68.013-36.519c-8.862-5.376-17.531-11.075-26.19-16.778
			c-4.759-3.134-9.403-6.461-13.938-9.912c-8.939-6.802-17.807-13.699-26.627-20.655c-6.515-5.138-12.876-10.468-18.646-16.456
			c-4.677-4.854-9.067-9.951-12.948-15.472c-0.067-0.095-0.02-0.334,0.059-0.447c0.07-0.102,0.293-0.208,0.386-0.168
			c0.47,0.205,0.978,0.387,1.367,0.706c1.603,1.313,3.232,2.605,4.737,4.025c10.949,10.328,22.524,19.916,34.383,29.169
			c5.723,4.465,11.473,8.895,17.21,13.341c6.971,5.403,14.154,10.503,21.597,15.237c1.604,1.02,3.215,2.03,4.798,3.081
			c16.713,11.107,34.156,20.967,51.809,30.481c14.61,7.874,29.572,15.018,44.614,22.012c7.363,3.423,14.695,6.921,21.947,10.571
			c29.941,15.069,59.825,30.25,89.321,46.183c17.64,9.529,34.943,19.643,52.265,29.728c9.114,5.306,18.006,10.962,26.703,16.926
			c16.972,11.637,33.479,23.888,49.187,37.198c7.783,6.595,15.301,13.483,22.681,20.521c10.257,9.783,20.321,19.759,29.833,30.278
			c4.291,4.745,8.443,9.606,12.362,14.664c4.244,5.477,7.978,11.28,11.2,17.418c7.167,13.653,12.946,27.874,17.619,42.562
			c2.155,6.773,3.614,13.691,4.62,20.709c0.268,1.872,0.251,3.786,0.319,5.682C1150.008,834.861,1149.72,835.1,1149.564,835.344z"/>
		<path d="M1140.426,840.594c0.55,1.555,0.216,3.037-0.388,4.491c-0.872,2.1-2.107,3.973-3.717,5.573
			c-3.076,3.057-6.48,5.714-10.136,8.039c-1.165,0.741-2.445,1.265-3.839,1.497c-1.704,0.284-3.398,0.632-5.088,0.989
			c-0.469,0.099-0.911,0.329-1.349,0.492c0.076,0.431,0.134,0.759,0.194,1.098c-0.669,0.891-1.657,1.155-2.679,1.188
			c-1.726,0.056-3.458,0.076-5.182-0.012c-5.894-0.302-11.74,0.144-17.566,0.997c-4.304,0.63-8.609,0.61-12.762,0.087
			c-0.939-0.41-1.727-0.754-2.433-1.063c-0.437-0.036-0.781-0.089-1.124-0.086c-0.691,0.005-1.382,0.058-2.073,0.062
			c-7.472,0.04-14.792,1.251-22.068,2.825c-8.441,1.826-16.857,3.784-25.393,5.136c-4.093,0.648-8.198,1.233-12.309,1.756
			c-4.798,0.61-9.6,1.217-14.416,1.652c-5.85,0.528-11.715,0.917-17.578,1.288c-5.001,0.317-19.161,0.962-21.234,0.955
			c-10.025-0.034-20.05-0.011-30.073-0.189c-6.738-0.12-13.477-0.426-20.202-0.863c-4.995-0.325-9.971-0.97-14.95-1.514
			c-5.325-0.582-10.61-1.432-15.891-2.337c-16.496-2.826-32.071-8.322-46.88-16.045c-3.216-1.677-6.353-3.508-9.492-5.328
			c-9.769-5.663-18.643-12.515-26.788-20.319c-9.634-9.232-18.395-19.216-26.136-30.101c-15.192-21.362-27.629-44.232-37.695-68.415
			c-4.583-11.01-8.642-22.218-12.738-33.412c-4.097-11.195-8.224-22.378-12.34-33.565c-2.747-7.467-5.98-14.716-9.523-21.843
			c-7.249-14.581-15.613-28.477-25.092-41.714c-4.628-6.463-9.183-12.977-13.749-19.484c-0.174-0.248-0.135-0.651-0.176-0.984
			c-0.048-0.396,0.775-0.544,1.304-0.235c0.446,0.261,0.93,0.474,1.331,0.792c1.352,1.073,2.722,2.131,3.998,3.29
			c2.051,1.863,3.86,3.957,5.528,6.171c13.675,18.142,25.409,37.452,34.963,58.074c2.471,5.335,4.545,10.831,6.571,16.346
			c5.898,16.054,11.785,32.112,17.731,48.148c6.195,16.707,13.311,33.007,21.763,48.707c7.054,13.105,14.905,25.714,23.681,37.737
			c9.316,12.763,20.008,24.259,32.132,34.393c3.177,2.655,6.514,5.147,9.949,7.459c14.872,10.012,30.855,17.676,48.167,22.49
			c5.835,1.623,11.764,2.781,17.723,3.809c7.325,1.264,14.72,1.998,22.1,2.842c0.343,0.039,0.688,0.071,1.033,0.088
			c7.076,0.358,14.148,0.868,21.229,1.029c9.675,0.221,19.357,0.22,29.035,0.228c6.567,0.005,13.136-0.099,19.682-0.738
			c1.374-0.134,2.761-0.155,4.143-0.197c7.779-0.234,15.519-0.946,23.241-1.886c3.43-0.418,6.864-0.795,10.302-1.144
			c7.747-0.787,15.373-2.293,23-3.797c5.083-1.003,10.153-2.083,15.249-3.016c4.934-0.904,9.92-1.43,14.941-1.476
			c5.703-0.053,11.407-0.058,17.111-0.049c3.635,0.006,7.234-0.33,10.851-0.709c8.259-0.866,16.394-2.488,24.59-3.73
			c1.533-0.232,3.078-0.537,4.545-1.027c2.83-0.944,5.324-2.498,7.291-4.77c1.356-1.566,2.613-3.219,3.893-4.85
			c1.393-1.775,2.883-3.45,4.797-4.682C1139.675,840.588,1140.047,840.644,1140.426,840.594z"/>
		<path d="M530.867,440.685c-0.072,0.291-0.052,0.657-0.224,0.841c-7.337,7.824-15.033,15.262-23.354,22.055
			c-18.499,15.103-37.842,29.032-57.883,42.01c-17.121,11.087-34.369,21.965-51.859,32.462
			c-14.082,8.45-28.363,16.549-42.807,24.357c-23.108,12.492-97.722,52.545-111.721,60.436
			c-29.402,16.572-57.615,34.977-84.334,55.625c-5.743,4.438-11.431,8.959-16.975,13.643c-18.704,15.804-35.31,33.572-49.559,53.507
			c-6.64,9.291-12.72,18.94-18.056,29.042c-7.544,14.284-13.212,29.272-16.793,45.039c-1.612,7.097-2.61,14.263-2.863,21.547
			c-0.348,10.016-0.826,20.027-1.248,30.038c-0.704-0.016-0.938-0.545-1.02-0.97c-0.594-3.049-1.301-6.082-1.483-9.198
			c-0.131-2.243-0.299-4.486-0.378-6.731c-0.127-3.628-0.203-7.257-0.286-10.886c-0.213-9.395,1.096-18.605,3.345-27.707
			c4.383-17.736,11.218-34.477,20.379-50.272c10.621-18.314,23.143-35.205,37.507-50.781c12.822-13.902,26.933-26.332,41.82-37.93
			c27.049-21.073,55.641-39.834,85.394-56.841c15.156-8.663,30.594-16.811,45.962-25.089c28.147-15.162,56.477-29.986,84.371-45.618
			c14.93-8.367,29.641-17.104,44.169-26.144c22.6-14.063,45.104-28.279,67.091-43.293c9.423-6.434,18.633-13.167,27.758-20.015
			c6.505-4.882,12.703-10.128,18.671-15.65c1.266-1.172,2.581-2.291,3.887-3.419C530.473,440.66,530.68,440.704,530.867,440.685z"/>
		<path d="M649.746,789.28c-0.536-1.523-1.459-2.075-2.199-2.785c-3.493-3.349-7.04-6.645-10.474-10.055
			c-2.205-2.191-4.3-4.5-6.351-6.838c-4.82-5.495-8.68-11.615-11.739-18.254c-3.073-6.67-4.895-13.632-5.259-20.984
			c-0.42-8.503,0.215-16.912,1.791-25.279c1.602-8.504,3.927-16.822,6.216-25.151c3.39-12.331,6.543-24.719,9.221-37.226
			c1.882-8.788,3.549-17.615,4.898-26.5c0.933-6.149,1.86-12.3,2.687-18.464c0.482-3.595,0.909-7.211,1.093-10.83
			c0.229-4.501,0.992-8.928,1.482-13.392c0.095-0.864,0.265-1.716,1.141-2.184c0.734,0.186,1.134,0.69,1.311,1.386
			c1.077,4.234,1.351,8.531,0.896,12.867c-0.774,7.389-1.457,14.784-2.544,22.142c-1.212,8.207-2.585,16.381-4.081,24.539
			c-2.464,13.435-5.639,26.706-9.134,39.904c-1.946,7.349-3.914,14.692-5.908,22.027c-1.544,5.678-2.689,11.444-3.559,17.251
			c-0.588,3.924-0.947,7.904-1.078,11.87c-0.405,12.267,2.789,23.583,9.318,33.98c2.864,4.56,6.208,8.737,9.868,12.661
			c8.633,9.257,18.05,17.627,28.448,24.873c3.692,2.573,7.494,4.97,11.469,7.072c8.561,4.528,17.343,8.564,26.365,12.112
			c12.392,4.873,25.059,8.934,37.677,13.148c9.176,3.065,18.298,6.289,27.44,9.457c0.968,0.335,1.902,0.766,2.93,1.185
			c-0.744,0.65-1.446,0.434-2.073,0.273c-8.366-2.149-16.775-4.15-25.071-6.543c-11.785-3.401-23.508-7.02-35.214-10.686
			c-13.247-4.149-25.776-9.965-37.836-16.802c-4.97-2.817-9.638-6.099-14.172-9.57c-1.372-1.05-2.727-2.128-4.146-3.11
			c-0.372-0.257-0.959-0.204-1.586-0.318c-0.144,0.76-0.374,1.426-0.379,2.093c-0.025,3.322-0.765,6.52-1.672,9.679
			c-2.577,8.967-5.191,17.922-7.811,26.877c-3.979,13.598-8.08,27.159-12.5,40.622c-2.591,7.891-5.556,15.63-9.301,23.056
			c-0.545,1.08-1.063,2.176-1.658,3.228c-5.8,10.242-12.237,20.068-19.427,29.388c-1.899,2.462-3.986,4.78-6.365,6.805
			c-0.198,0.168-0.553,0.152-1.017,0.266c0.23-0.558,0.349-1.032,0.597-1.424c3.046-4.822,6.065-9.662,9.178-14.441
			c6.051-9.288,11.238-19.046,15.977-29.054c2.816-5.945,5.131-12.085,7.2-18.323c4.354-13.121,8.363-26.349,12.265-39.61
			c3.024-10.276,6-20.566,8.946-30.865C646.608,795.852,647.784,792.436,649.746,789.28z"/>
		<path d="M546.664,439.077c-0.39,0.505-0.884,1-1.206,1.589c-0.828,1.515-1.625,3.05-2.355,4.614
			c-3.961,8.481-7.121,17.253-9.069,26.414c-1.724,8.108-3.609,16.188-4.865,24.388c-0.758,4.947-1.563,9.894-1.257,14.947
			c0.124,2.053,0.087,4.145-0.583,6.146c-0.041,0.122-0.204,0.244-0.336,0.288c-0.388,0.131-0.72,0.025-0.878-0.309
			c-0.906-1.917-1.063-3.992-1.134-6.056c-0.131-3.8-0.139-7.603,0.253-11.395c0.124-1.203,0.268-2.407,0.318-3.615
			c0.257-6.234,1.274-12.365,2.435-18.48c1.841-9.699,4.372-19.199,8.216-28.313c1.141-2.705,2.303-5.407,3.604-8.037
			c1.301-2.629,2.788-5.166,4.361-8.05c0.208-2.771,0.652-5.83,1.382-8.86c2.005-8.316,6.068-15.358,12.486-21.056
			c4.297-3.815,8.917-7.113,14.239-9.334c3.697-1.543,7.533-2.644,11.584-2.355c8.407,0.601,16.35,2.669,23.234,7.827
			c0.544,0.408,1.028,0.898,1.48,1.297c-0.068,0.562-0.296,0.63-0.739,0.424c-4.105-1.911-8.495-2.839-12.881-3.82
			c-3.918-0.876-7.871-0.993-11.852-1.008c-2.814-0.01-5.484,0.613-8.082,1.614c-2.425,0.935-4.728,2.115-6.915,3.525
			c-3.949,2.545-7.437,5.625-10.582,9.101c-1.633,1.804-2.971,3.814-4.077,5.979c-1.1,2.154-2.176,4.316-2.473,6.709
			c0.208,0.446,0.548,0.62,0.886,0.368c0.964-0.721,1.891-1.492,2.817-2.263c2.662-2.218,5.474-4.219,8.499-5.913
			c4.433-2.483,9.163-4.022,14.239-4.427c1.722-0.137,3.448-0.252,5.174-0.293c4.022-0.096,7.854,0.63,11.606,2.214
			c8.057,3.402,15.404,7.791,21.355,14.302c0.288,0.315,0.317,0.613,0.008,0.987c-3.83-2.634-7.85-4.986-12.021-7.065
			c-2.472-1.232-4.976-2.409-7.518-3.486c-5.55-2.352-11.359-2.776-17.297-2.182c-6.713,0.673-12.687,3.156-18.08,7.164
			c-4.341,3.226-8.045,7.036-11.127,11.573c-0.056,1.031-0.134,2.058-0.163,3.085c-0.107,3.818-0.869,7.55-1.545,11.285
			c-0.584,3.227-1.341,6.425-2.106,9.616c-2.374,9.911-4.504,19.871-6.199,29.923c-1.209,7.17-1.869,14.396-2.086,21.652
			c-0.134,4.492,0.258,8.989,0.995,13.425c0.82,4.939,1.723,9.872,2.816,14.757c1.171,5.234,1.914,10.53,2.738,15.817
			c0.023,0.148-0.092,0.319-0.153,0.51c-0.262-0.081-0.629-0.079-0.77-0.256c-1.63-2.046-2.719-4.404-3.686-6.804
			c-0.774-1.919-1.453-3.888-2-5.883c-1.874-6.842-3.131-13.817-4.07-20.837c-0.411-3.071-0.377-6.206-0.455-9.315
			c-0.169-6.761,0.53-13.471,1.527-20.137c1.38-9.227,3.209-18.375,5.376-27.453c1.367-5.725,3.371-11.245,5.322-16.786
			c0.801-2.275,1.459-4.602,2.159-6.912C547.328,439.536,547.13,439.253,546.664,439.077z"/>
		<path d="M449.054,746.633c0.696,1.347,0.575,2.396,0.444,3.412c-0.287,2.229-0.805,4.405-1.483,6.556
			c-2.661,8.444-6.164,16.529-10.876,24.009c-8.019,12.73-16.814,24.91-26.778,36.212c-0.678,0.77-1.423,1.48-2.083,2.162
			c-0.525-0.157-0.731-0.453-0.543-0.814c1.111-2.142,2.156-4.328,3.417-6.38c2.351-3.824,4.787-7.599,7.275-11.336
			c3.639-5.463,7.358-10.873,11.037-16.309c4.762-7.036,8.737-14.492,11.824-22.409c0.814-2.088,1.486-4.233,2.176-6.368
			c0.088-0.272-0.109-0.636-0.18-0.99c-0.244,0.155-0.583,0.248-0.695,0.461c-1.046,1.984-2.088,3.971-3.065,5.99
			c-3.086,6.378-6.414,12.625-9.955,18.761c-3.375,5.849-7.167,11.395-11.566,16.536c-4.379,5.119-8.616,10.36-12.948,15.521
			c-3.889,4.633-7.918,9.141-12.239,13.379c-0.607,0.596-1.155,1.282-1.93,1.563c-0.509-0.064-0.716-0.33-0.492-0.661
			c0.769-1.141,1.546-2.282,2.398-3.362c4.709-5.967,9.445-11.912,14.164-17.871c9.903-12.506,18.251-25.999,25.483-40.198
			c5.177-10.164,9.763-20.598,14.148-31.121c10.177-24.424,21.893-48.093,34.882-71.134c4.921-8.729,10.1-17.307,15.946-25.461
			c4.232-5.904,8.758-11.573,13.772-16.832c1.664-1.746,3.504-3.325,5.3-4.941c0.167-0.151,0.721-0.132,0.87,0.024
			c0.181,0.189,0.244,0.653,0.145,0.917c-0.242,0.64-0.554,1.268-0.934,1.837c-0.768,1.148-1.574,2.273-2.411,3.371
			c-5.237,6.874-10.134,13.99-14.984,21.137c-2.714,4-5.311,8.088-7.771,12.248c-15.409,26.055-28.929,53.061-40.607,80.989
			c-1.266,3.026-2.506,6.063-3.744,9.101c-0.226,0.555,0.173,1.139,0.968,1.502c0.155,0.071,0.324,0.114,0.478,0.187
			C448.653,746.396,448.799,746.49,449.054,746.633z"/>
		<path d="M1127.726,829.424c-0.81-0.431-1.118-1.247-1.528-1.982c-3.622-6.492-6.927-13.143-9.966-19.925
			c-2.473-5.517-4.995-11.015-7.315-16.597c-3.669-8.828-8.485-16.987-14.004-24.758c-5.611-7.9-11.787-15.347-18.187-22.61
			c-13.394-15.202-27.925-29.235-43.56-42.118c-16.411-13.522-33.227-26.517-50.88-38.39c-9.319-6.267-39.182-25.637-44.697-29.2
			c-8.58-5.543-16.633-11.783-24.388-18.417c-0.386-0.33-0.695-0.75-1.015-1.101c0.128-0.801,0.68-0.661,1.055-0.462
			c1.373,0.727,2.722,1.503,4.055,2.303c10.22,6.137,20.465,12.235,30.464,18.733c9.707,6.308,19.452,12.558,29.143,18.891
			c23.761,15.527,46.273,32.716,67.749,51.258c17.839,15.402,34.033,32.402,48.553,50.971c3.19,4.079,6.152,8.343,9.08,12.618
			c3.915,5.716,7.167,11.809,9.86,18.199c4.359,10.347,8.727,20.691,12.424,31.3c1.193,3.423,2.285,6.881,3.383,10.336
			C1128.035,828.738,1127.809,829.102,1127.726,829.424z"/>
		<path d="M514.658,528.912c-0.48,1.694-0.511,2.242-0.771,2.64c-0.847,1.301-1.733,2.582-2.683,3.81
			c-3.388,4.377-7.003,8.555-10.889,12.503c-6.311,6.411-13.077,12.329-19.81,18.28c-11.142,9.847-22.715,19.168-34.567,28.147
			c-15.567,11.794-31.452,23.152-47.33,34.521c-14.051,10.061-28.085,20.15-41.678,30.829c-9.104,7.153-18.136,14.401-27.096,21.733
			c-3.874,3.17-7.615,6.529-11.189,10.034c-6.169,6.049-12.236,12.207-18.209,18.449c-8.962,9.364-28.87,30.477-29.85,31.474
			c-0.576,0.021-0.822-0.253-0.599-0.581c0.675-0.994,1.408-1.955,2.177-2.879c7.19-8.635,14.608-17.073,22.297-25.264
			c8.398-8.946,16.898-17.797,25.372-26.671c8.13-8.514,16.896-16.32,26.132-23.622c12.61-9.971,25.44-19.647,38.466-29.065
			c12.884-9.315,25.829-18.545,38.692-27.89c12.304-8.939,24.499-18.025,36.351-27.563c7.811-6.286,15.43-12.797,22.942-19.436
			c4.143-3.662,8.273-7.342,12.47-10.942c6.04-5.18,11.826-10.624,17.383-16.316C512.736,530.626,513.252,530.198,514.658,528.912z"
			/>
		<path d="M875.312,689.058c-3.947-3.097-7.535-5.791-10.992-8.645c-18.429-15.218-38.058-28.741-58.323-41.366
			c-9.683-6.032-70.084-45.03-90.765-58.244c-9.033-5.772-18.028-11.594-26.529-18.138c-3.012-2.319-5.95-4.736-8.897-7.137
			c-4.586-3.737-8.399-8.205-12.005-12.858c-0.628-0.811-1.136-1.721-1.638-2.62c-0.196-0.351,0.008-0.643,0.508-0.777
			c6.136,4.902,12.353,9.847,18.545,14.822c7.419,5.961,15.169,11.461,23.135,16.657c4.198,2.738,119.145,76.42,129.732,83.909
			c4.944,3.497,9.717,7.205,14.243,11.232c3.357,2.988,6.772,5.91,10.122,8.906c4.255,3.805,8.3,7.826,12.132,12.059
			C875,687.318,875.613,687.727,875.312,689.058z"/>
		<path d="M567.601,385.272c-0.423-0.195-0.796-0.247-0.954-0.459c-2.378-3.184-4.657-6.444-7.105-9.572
			c-1.915-2.446-3.962-4.798-6.074-7.078c-3.192-3.446-6.909-6.246-10.964-8.625c-8.407-4.933-17.317-8.591-26.792-10.9
			c-8.392-2.045-16.772-4.139-25.143-6.271c-14.451-3.679-28.427-8.692-41.687-15.532c-13.262-6.841-25.615-15.054-36.665-25.157
			c-8.496-7.768-15.505-16.704-21.257-26.648c-1.471-2.543-2.883-5.12-4.294-7.697c-0.328-0.599-0.565-1.253-0.799-1.898
			c-0.274-0.754,0.151-1.889,0.811-2.28c0.702-0.415,1.884-0.378,2.445,0.138c0.504,0.463,1.049,0.926,1.406,1.495
			c1.007,1.611,1.921,3.279,2.883,4.919c1.573,2.683,3.074,5.413,4.746,8.032c7.251,11.358,16.551,20.797,27.298,28.846
			c13.784,10.322,28.712,18.544,44.881,24.532c9.256,3.428,18.733,6.059,28.29,8.453c6.871,1.721,13.742,3.441,20.614,5.154
			c8.788,2.191,16.989,5.792,24.819,10.293c2.552,1.467,5.014,3.065,7.306,4.915c2.975,2.402,5.659,5.083,7.774,8.288
			c1.617,2.452,3.288,4.874,4.774,7.405C565.654,378.587,567.019,381.724,567.601,385.272z"/>
		<path d="M227.393,642.214c-1.073,0.781-2.159,1.621-3.293,2.39c-8.155,5.528-43.292,29.477-52.628,36.034
			c-10.344,7.264-20.013,15.356-29.256,23.98c-12.851,11.99-23.789,25.528-33.096,40.405c-5.135,8.208-9.99,16.581-14.355,25.23
			c-4.283,8.485-8.644,16.931-12.868,25.445c-3.998,8.057-7.608,16.285-10.157,24.936c-2.299,7.804-3.983,15.724-4.934,23.822
			c-0.607,5.168-0.823,10.332-0.892,15.518c-0.018,1.381-0.047,2.766-0.169,4.14c-0.043,0.485-0.334,0.969-0.586,1.411
			c-0.614,1.078-2.381,1.133-3.088,0.137c-0.516-0.728-0.831-1.534-0.826-2.412c0.025-3.974-0.138-7.967,0.192-11.918
			c0.373-4.47,0.784-8.943,1.509-13.39c1.647-10.105,4.264-19.925,8.036-29.44c2.04-5.145,4.368-10.16,6.854-15.103
			c2.407-4.787,4.753-9.605,7.228-14.357c2.235-4.29,4.532-8.552,6.941-12.747c3.528-6.146,7.142-12.242,10.785-18.321
			c8.934-14.909,19.545-28.509,32.11-40.531c11.382-10.89,23.379-21.052,36.443-29.902c3.721-2.52,52.851-34.422,55.22-35.836
			C226.887,641.509,227.202,641.724,227.393,642.214z"/>
		<path d="M602.799,389.547c-0.114-0.256-0.34-0.558-0.38-0.883c-0.637-5.285,0.107-10.319,2.705-15.035
			c2.51-4.557,5.381-8.866,8.807-12.779c5.488-6.267,11.602-11.844,18.582-16.431c5.932-3.898,12.148-7.265,18.664-10.093
			c8.253-3.583,16.75-6.478,25.343-9.102c6.936-2.119,13.904-4.135,20.837-6.265c10.574-3.25,20.948-7.05,31.081-11.498
			c5.386-2.365,10.594-5.064,15.621-8.12c3.85-2.341,7.434-5.037,10.842-7.976c2.501-2.157,4.693-4.586,6.5-7.355
			c1.51-2.315,3.007-4.639,4.534-6.943c0.571-0.862,1.182-1.703,1.831-2.508c0.318-0.395,0.737-0.727,1.159-1.019
			c0.586-0.406,1.264-0.554,1.96-0.345c0.735,0.22,1.072,0.803,1.225,1.557c-0.117,1.387-0.778,2.602-1.531,3.763
			c-2.07,3.187-4.147,6.37-6.263,9.527c-1.743,2.601-3.908,4.831-6.277,6.866c-4.072,3.497-8.371,6.674-13.02,9.375
			c-5.235,3.041-10.634,5.746-16.188,8.152c-12.383,5.364-25.151,9.627-38.073,13.468c-6.786,2.017-13.555,4.094-20.311,6.209
			c-5.607,1.756-11.08,3.885-16.498,6.158c-6.071,2.546-11.869,5.609-17.399,9.17c-9.853,6.346-18.208,14.238-24.714,24.038
			c-2.303,3.468-4.135,7.181-5.921,10.923c-0.975,2.043-1.459,4.235-1.938,6.432C603.871,389.316,603.458,389.718,602.799,389.547z"
			/>
		<path d="M331.503,588.854c0.518-0.486,0.818-0.882,1.214-1.121c5.767-3.486,11.547-6.951,17.323-10.42
			c3.558-2.137,7.249-4.013,10.999-5.798c16.853-8.021,33.502-16.447,49.75-25.639c20.833-11.786,40.193-25.646,58.032-41.608
			c3.863-3.456,7.569-7.087,11.349-10.636c8.947-8.397,17.893-16.795,26.848-25.183c0.37-0.347,0.833-0.595,1.266-0.898
			c0.258,0.705,0.677-0.152,0.345,0.455c-0.244,0.447-0.406,0.95-0.706,1.353c-5.785,7.775-12.006,15.175-18.852,22.047
			c-6.589,6.615-13.39,13.006-20.333,19.243c-6.175,5.547-12.723,10.648-19.367,15.618c-10.943,8.185-22.28,15.782-34.174,22.524
			c-20.758,11.767-42.014,22.55-63.863,32.15c-5.218,2.293-10.487,4.468-15.738,6.686
			C334.358,588.149,333.117,588.69,331.503,588.854z"/>
		<path d="M668.707,620.374c0.575,0.852,1.18,1.685,1.719,2.559c3.996,6.484,7.405,13.279,10.574,20.193
			c7.495,16.349,14.096,33.05,19.793,50.114c3.994,11.963,8.124,23.88,12.243,35.8c3.275,9.478,7.086,18.746,11.17,27.903
			c2.819,6.322,5.972,12.471,9.643,18.34c3.299,5.274,6.617,10.54,10.061,15.72c4.399,6.616,8.498,13.413,12.664,20.211
			c-0.773,0.164,0.12,0.708-0.45,0.317c-0.565-0.388-1.173-0.728-1.679-1.182c-4.522-4.053-8.56-8.546-12.078-13.498
			c-10.138-14.27-19.141-29.171-25.752-45.453c-3.967-9.77-7.737-19.607-11.126-29.59c-6.497-19.141-23.931-70.145-26.277-76.46
			c-2.649-7.131-5.71-14.09-9.184-20.862c-0.629-1.226-1.214-2.475-1.82-3.713C668.374,620.639,668.54,620.506,668.707,620.374z"/>
		<path d="M531.54,578.305c0.507,0.813,0.357,1.698,0.393,2.547c0.181,4.315,0.366,8.631,0.504,12.948
			c0.094,2.936,0.119,5.874,0.161,8.812c0.087,6.048,0.041,12.101,0.277,18.143c0.352,8.976,0.858,17.944,1.7,26.895
			c0.841,8.947,1.975,17.854,3.127,26.762c1.086,8.394,3.135,25.896,3.157,26.241c0.661,10.519,1.483,21.029,1.259,31.588
			c-0.169,7.988-1.294,15.827-3.225,23.565c-0.038,0.152-0.182,0.278-0.382,0.569c-0.132-0.541-0.313-0.959-0.325-1.383
			c-0.339-12.265-0.675-24.529-0.987-36.794c-0.198-7.78-0.875-15.521-1.794-23.245c-0.836-7.033-4.321-34.8-5.055-41.669
			c-0.606-5.667-0.997-11.359-1.4-17.045c-0.318-4.481-0.535-8.969-0.75-13.457c-0.365-7.598-0.6-15.207-0.222-22.804
			c0.214-4.302,0.869-8.59,1.47-12.864c0.384-2.731,1.022-5.428,1.578-8.133C531.077,578.735,531.357,578.537,531.54,578.305z"/>
		<path d="M1108.238,826.643c-0.655-0.994-0.992-1.397-1.213-1.857c-4.641-9.64-9.266-19.287-13.903-28.928
			c-4.04-8.399-8.102-16.784-12.945-24.767c-6.016-9.917-12.881-19.194-20.574-27.875c-8.382-9.457-17.54-18.078-27.369-26.012
			c-3.085-2.49-5.988-5.209-8.938-7.863c-0.764-0.687-1.408-1.511-2.076-2.299c-0.267-0.315-0.26-0.713,0.019-0.853
			c0.277-0.14,0.696-0.252,0.953-0.142c4.146,1.758,8.087,3.897,11.649,6.666c20.661,16.058,38.065,35.029,51.364,57.643
			c4.992,8.489,9.177,17.396,13.301,26.328c4.136,8.958,7.296,18.257,9.717,27.812
			C1108.342,824.969,1108.238,825.499,1108.238,826.643z"/>
		<path d="M829.563,823.339c-0.558,0.311-0.934-0.092-1.326-0.357c-6.455-4.37-12.451-9.309-18.01-14.765
			c-10.989-10.785-21.148-22.317-30.711-34.375c-5.706-7.196-10.45-15.025-14.823-23.082c-5.445-10.034-10.013-20.474-14.236-31.068
			c-1.539-3.86-2.729-7.83-3.009-12.013c-0.034-0.51,0.034-1.03,0.096-1.541c0.018-0.15,0.172-0.396,0.274-0.401
			c0.284-0.015,0.635-0.011,0.846,0.142c0.264,0.191,0.464,0.516,0.608,0.822c2.502,5.31,5.161,10.545,7.396,15.982
			c2.759,6.71,5.808,13.291,9.022,19.796c7.004,14.176,15.684,27.226,26.223,39.021c6.215,6.956,31.156,34.238,37.35,40.98
			C829.451,822.686,829.467,823.051,829.563,823.339z"/>
		<path d="M935.816,739.372c-0.625-0.41-0.99-0.536-1.179-0.791c-2.168-2.923-4.714-5.513-7.177-8.175
			c-9.626-10.399-18.875-21.132-28.157-31.836c-5.659-6.527-11.326-13.051-17.149-19.43c-8.158-8.938-16.815-17.387-25.753-25.544
			c-8.297-7.572-16.385-15.363-24.392-23.239c-2.092-2.058-4.064-4.241-6.042-6.41c-0.804-0.882-1.479-1.882-2.118-2.707
			c0.014-0.638,0.275-0.836,0.608-0.568c7.132,5.736,14.284,11.449,21.357,17.258c2.935,2.41,5.737,4.988,8.529,7.566
			c5.712,5.275,11.448,10.526,17.042,15.925c7.587,7.322,14.834,14.978,21.599,23.073c10.636,12.727,21.296,25.436,31.352,38.634
			c3.56,4.672,7.114,9.35,10.65,14.04C935.378,737.687,935.953,738.152,935.816,739.372z"/>
		<path d="M236.765,767.67c0.033-1.711,0.689-2.319,1.144-3.001c6.722-10.063,13.892-19.803,21.328-29.346
			c8.816-11.315,17.887-22.424,27.077-33.437c10.542-12.633,22.136-24.234,34.485-35.092c5.062-4.45,10.149-8.873,15.541-12.924
			c2.624-1.971,5.312-3.857,8-5.741c0.701-0.491,1.489-0.875,2.278-1.212c0.245-0.104,0.715,0.015,0.918,0.206
			c0.195,0.184,0.347,0.715,0.226,0.883c-0.703,0.974-1.406,1.976-2.268,2.803c-2.867,2.751-5.755,5.485-8.721,8.129
			c-4.773,4.253-9.619,8.425-14.428,12.638c-9.501,8.324-18.275,17.378-26.907,26.587c-15.022,16.027-28.867,33.055-42.767,50.037
			C248.074,753.817,237.832,766.405,236.765,767.67z"/>
		<path d="M641.26,551.379c-0.204-0.396-0.477-0.673-0.461-0.932c0.12-1.892,0.293-3.781,0.46-5.67
			c0.244-2.747,1.079-13.057,1.257-15.465c0.688-9.303,0.872-18.619,0.276-27.925c-0.419-6.547-1.63-12.99-3.293-19.351
			c-2.928-11.196-6.593-22.135-11.093-32.797c-0.667-1.58-1.198-3.224-1.676-4.872c-0.123-0.424,0.094-1.031,0.329-1.459
			c0.721-1.313,2.654-1.412,3.447-0.173c0.554,0.865,1.06,1.776,1.459,2.721c4.232,10.017,8.007,20.194,10.807,30.717
			c1.108,4.166,2.225,8.325,3.082,12.554c0.963,4.749,1.442,9.562,1.727,14.373c0.407,6.887,0.441,13.793-0.246,20.679
			c-0.411,4.117-0.619,8.248-1.461,12.324c-0.978,4.738-2.217,9.393-3.787,13.962C641.93,550.52,641.567,550.902,641.26,551.379z"/>
		<path d="M623.55,443.178c0.713,0.285,0.91,0.985,1.186,1.574c4.33,9.236,7.923,18.766,10.265,28.686
			c2.466,10.445,3.659,21.059,2.713,31.834c-0.242,2.763-0.751,5.472-1.315,8.167c-1.871,8.945-3.858,17.866-6.239,26.692
			c-1.484,5.501-3.412,10.855-5.711,16.071c-0.189,0.429-0.548,0.783-1.028,1.451c-0.344-2.061-0.042-3.761,0.196-5.447
			c1.035-7.348,2.542-14.603,4.242-21.825c1.501-6.377,2.934-12.771,4.278-19.183c1.172-5.591,1.758-11.257,1.261-16.973
			c-0.493-5.669-1.104-11.327-2.124-16.934c-1.852-10.191-4.366-20.219-7.262-30.158c-0.288-0.989-0.539-1.993-0.729-3.004
			C623.23,443.839,623.453,443.498,623.55,443.178z"/>
		<path d="M392.141,751.287c0.405,0.696,0.44-0.448,0.39,0.242c-0.048,0.668-0.002,1.372-0.203,1.994
			c-2.02,6.249-4.595,12.263-7.661,18.073c-4.187,7.937-8.811,15.621-13.435,23.305c-1.779,2.955-3.596,5.888-5.409,8.822
			c-4.086,6.613-8.59,12.926-13.547,18.916c-2.089,2.525-4.125,5.094-6.193,7.636c-0.98,1.204-1.961,2.409-3.317,3.232
			c-0.872,0.529-1.618,0.367-2.283-0.358c-0.296-0.67-0.267-1.356-0.003-2.008c0.653-1.608,1.555-3.077,2.623-4.442
			c1.488-1.902,2.956-3.821,4.491-5.684c5.825-7.067,11.136-14.497,15.84-22.357c5.402-9.027,10.808-18.053,16.163-27.107
			C383.633,764.727,387.842,758.011,392.141,751.287z"/>
		<path d="M722.136,510.821c-6.507-2.614-12.386-5.866-18.123-9.358c-6.48-3.945-25.653-16.211-28.85-18.253
			c-4.366-2.788-8.55-5.825-12.549-9.116c-5.73-4.717-11.215-9.706-16.413-15.003c-1.689-1.721-3.251-3.568-4.823-5.399
			c-0.786-0.916-1.44-1.937-1.814-3.109c-0.226-0.708-0.125-1.345,0.373-1.905c0.816-0.533,1.689-0.5,2.406,0.062
			c1.078,0.845,2.138,1.746,3.054,2.761c5.558,6.158,11.586,11.826,17.919,17.167c2.898,2.444,5.866,4.82,8.943,7.031
			c6.721,4.83,38.408,26.92,47.451,33.245C720.547,509.529,721.329,510.193,722.136,510.821z"/>
		<path d="M559.757,560.169c-3.252-3.575-4.459-5.133-6.106-8.438c-1.304-2.619-2.537-5.293-3.536-8.04
			c-2.476-6.808-4.613-13.728-6.075-20.835c-0.799-3.884-1.442-7.794-1.719-11.76c-0.397-5.676-0.938-11.341-0.78-17.046
			c0.234-8.47,1.21-16.841,3.146-25.093c0.072-0.308,0.346-0.585,0.573-0.833c0.099-0.108,0.321-0.155,0.478-0.14
			c0.116,0.011,0.299,0.156,0.314,0.261c0.141,1.016,0.35,2.035,0.355,3.055c0.023,5.174-0.147,22.764-0.142,26.386
			c0.015,12.504,1.808,24.738,5.655,36.653c0.953,2.953,1.94,5.896,2.836,8.867C556.344,548.481,557.874,553.773,559.757,560.169z"
			/>
		<path d="M618.378,544.68c-0.472-0.827-0.349-1.71-0.331-2.559c0.165-7.595,0.099-15.193,0.733-22.779
			c0.532-6.365,0.741-12.757,1.109-19.136c0.41-7.106-0.146-14.146-1.385-21.144c-0.361-2.04-0.745-4.078-1.03-6.129
			c-0.356-2.564-0.589-5.143-0.042-7.716c0.08-0.377,0.382-0.574,0.782-0.544c0.147,0.011,0.336,0.107,0.42,0.225
			c1.739,2.425,2.71,5.185,3.382,8.051c1.743,7.432,2.538,14.971,2.415,22.605c-0.143,8.812-0.675,17.606-1.598,26.366
			c-0.796,7.559-2.221,15.024-4.126,22.389C618.671,544.448,618.497,544.55,618.378,544.68z"/>
		<path d="M844.922,818.268c-1.506-0.025-1.982-0.569-2.506-0.978c-4.09-3.186-7.974-6.61-11.652-10.265
			c-6.738-6.695-13.29-13.568-19.565-20.698c-6.17-7.012-11.562-14.619-16.757-22.366c-1.253-1.868-2.292-3.855-2.98-6.01
			c-0.291-0.911,0.02-1.994,0.663-2.26c0.512-0.212,1.435,0.018,1.88,0.531c0.904,1.042,1.805,2.089,2.658,3.173
			c0.747,0.949,1.455,1.931,2.131,2.932c9.102,13.484,19.549,25.889,30.408,37.967c4.501,5.007,8.937,10.073,13.391,15.121
			C843.275,816.187,843.898,817.009,844.922,818.268z"/>
		<path d="M736.59,801.302c-0.76-0.065-1.108-0.672-1.527-1.173c-3.661-4.379-7.048-8.96-10.073-13.804
			c-4.943-7.914-9.589-15.999-13.941-24.253c-2.503-4.747-4.574-9.679-6.236-14.78c-0.427-1.31-0.776-2.65-1.058-3.998
			c-0.099-0.471,0.061-1.02,0.191-1.51c0.277-1.047,1.713-1.527,2.518-0.823c0.508,0.445,1.037,0.945,1.335,1.533
			c0.543,1.074,0.971,2.214,1.358,3.356c2.39,7.062,5.607,13.744,9.242,20.235c3.122,5.576,6.239,11.155,9.382,16.719
			c3.231,5.719,6.111,11.614,8.875,17.568C736.771,800.62,736.618,800.99,736.59,801.302z"/>
		<path d="M201.358,778.202c1.018-1.588,1.99-3.206,3.06-4.757c5.686-8.24,11.28-16.547,17.127-24.672
			c7.662-10.649,15.511-21.164,23.315-31.711c4.937-6.672,10.312-12.975,16.276-18.756c1.733-1.68,3.569-3.257,5.391-4.841
			c0.352-0.306,0.862-0.431,1.311-0.645c0.13,0.395,0.408,0.796,0.303,0.993c-0.482,0.906-0.989,1.822-1.637,2.612
			c-1.642,2.001-3.335,3.962-5.06,5.893c-9.324,10.433-18.209,21.228-26.61,32.416c-9.018,12.01-17.961,24.076-26.943,36.113
			C205.937,773.466,204.054,776.144,201.358,778.202z"/>
		<path d="M529.712,780.408c0.345,0.008,0.695,0.054,1.036,0.018c1.44-0.149,2.361,0.607,2.767,1.846
			c0.482,1.471,0.863,2.998,1.076,4.531c1.19,8.56,2.702,17.065,4.286,25.557c1.204,6.453,6.105,32.251,7.241,38.716
			c0.16,0.908,0.558,1.93-0.231,2.857c-0.793-1.196-1.073-2.55-1.476-3.855c-2.755-8.92-5.044-17.962-7.138-27.056
			c-1.706-7.408-3.404-14.818-5.078-22.233c-0.38-1.685-0.677-3.39-0.96-5.094c-0.367-2.216-0.686-4.439-1.018-6.661
			c-0.435-2.915-0.654-5.839-0.345-8.784L529.712,780.408z"/>
		<path d="M569.02,561.148c-2.78-3.228-4.519-6.004-5.851-8.993c-4.863-10.915-8.476-22.188-9.564-34.171
			c-0.359-3.948-0.828-7.884-0.686-11.858c0.037-1.032,0.037-2.077,0.215-3.088c0.207-1.18,0.588-2.329,0.883-3.452
			c0.468-0.367,0.866-0.679,1.349-1.058c0.412,0.293,0.956,0.488,1.174,0.87c0.697,1.219,0.878,2.604,0.932,3.988
			c0.067,1.721,0.093,3.445,0.112,5.168c0.097,8.84,1.378,17.5,3.915,25.972c2.421,8.083,4.848,16.164,7.255,24.252
			C568.892,559.242,568.87,559.755,569.02,561.148z"/>
		<path d="M1088.669,821.456c-2.548-4.149-4.125-7.608-5.784-11.022c-2.113-4.349-4.136-8.741-6.261-13.084
			c-6.712-13.713-14.888-26.486-24.64-38.242c-0.66-0.795-1.283-1.627-1.848-2.491c-0.127-0.194-0.041-0.693,0.132-0.873
			c0.205-0.213,0.634-0.364,0.925-0.311c0.666,0.121,1.406,0.242,1.939,0.615c1.266,0.887,2.516,1.832,3.62,2.91
			c3.846,3.759,7.145,7.969,10.006,12.522c2.394,3.808,4.535,7.759,6.42,11.835c3.552,7.679,7.025,15.395,10.48,23.119
			c1.834,4.101,3.334,8.334,4.662,12.626C1088.465,819.531,1088.469,820.044,1088.669,821.456z"/>
		<path d="M551.264,840.576c-0.896-0.627-1.071-1.522-1.334-2.307c-1.04-3.105-2.142-6.201-2.96-9.367
			c-2.456-9.514-4.874-19.04-7.134-28.602c-1.03-4.357-1.693-8.802-2.444-13.221c-0.318-1.867-0.472-3.765-0.164-5.667
			c0.15-0.926,0.794-1.443,2.36-1.692c0.363,0.462,0.962,0.932,1.157,1.533c0.478,1.47,0.872,2.983,1.12,4.509
			c2.291,14.128,5.116,28.154,7.986,42.173c0.76,3.711,1.572,7.429,1.72,11.237C551.589,839.612,551.383,840.062,551.264,840.576z"
			/>
		<path d="M1014.841,744.7c0.485,0.263,0.951,0.404,1.264,0.704c2.985,2.866,5.82,5.876,8.395,9.117
			c1.714,2.157,3.452,4.306,5,6.581c4.359,6.408,8.642,12.867,12.916,19.331c1.426,2.157,2.719,4.4,3.313,6.963
			c0.161,0.696,0.076,1.374-0.263,1.998c-0.342,0.628-0.843,1.094-1.599,1.137c-0.724,0.041-1.343-0.224-1.796-0.804
			c-0.21-0.27-0.443-0.545-0.566-0.857c-1.398-3.555-3.51-6.708-5.567-9.888c-2.151-3.326-4.328-6.637-6.56-9.909
			c-5.146-7.548-9.82-15.387-14.411-23.277C1014.826,745.551,1014.891,745.186,1014.841,744.7z"/>
		<path d="M117.979,807.074c-0.429,1.664-0.457,2.179-0.682,2.583c-2.267,4.066-4.474,8.17-6.878,12.154
			c-3.919,6.496-15.187,24.67-16.782,27.332c-0.896,1.494-1.565,3.062-1.612,4.852c-0.013,0.5-0.219,1.001-0.372,1.49
			c-0.262,0.839-1.488,1.531-2.508,1.441c-1.047-0.092-1.939-0.946-2.125-1.945c-0.227-1.224-0.168-2.442,0.331-3.555
			c0.845-1.884,1.697-3.784,2.762-5.546c2.231-3.687,4.548-7.326,6.931-10.917c2.86-4.311,5.809-8.563,8.75-12.819
			c2.944-4.26,6.131-8.335,9.519-12.252C115.871,809.247,116.485,808.649,117.979,807.074z"/>
		<path d="M984.25,747.276c1.07,0.48,1.568,0.604,1.946,0.888c4.15,3.119,7.983,6.586,11.4,10.502
			c6.811,7.805,13.227,15.927,19.399,24.243c0.406,0.548,0.742,1.159,1.036,1.776c0.319,0.67,0.169,1.359-0.189,1.972
			c-0.375,0.644-1.606,0.959-2.325,0.609c-0.459-0.223-0.947-0.447-1.312-0.788c-0.626-0.586-1.222-1.224-1.733-1.912
			c-6.074-8.175-12.619-15.975-18.956-23.942c-3.005-3.778-5.767-7.749-8.622-11.645C984.702,748.718,984.65,748.354,984.25,747.276
			z"/>
		<path d="M134.507,810.828c-0.374,0.993-0.511,1.486-0.735,1.934c-2.785,5.551-5.866,10.932-9.284,16.118
			c-4.743,7.194-9.609,14.309-14.011,21.724c-0.262,0.44-0.608,0.832-0.927,1.237c-0.671,0.852-1.945,1.075-2.776,0.495
			c-0.836-0.583-1.234-1.845-0.853-2.756c0.199-0.476,0.403-0.954,0.648-1.406c0.411-0.757,0.835-1.508,1.291-2.239
			c4.746-7.604,9.654-15.103,14.86-22.402c2.907-4.076,6.124-7.9,9.589-11.514C132.774,811.531,133.218,810.994,134.507,810.828z"/>
		<path d="M863.563,811.1c-0.463-0.181-0.944-0.327-1.387-0.549c-5.133-2.58-9.698-5.968-13.829-9.932
			c-4.987-4.785-9.698-9.836-14.006-15.244c-1.717-2.156-3.241-4.468-4.811-6.738c-0.386-0.558-0.648-1.215-0.889-1.856
			c-0.249-0.66-0.199-1.344,0.046-2.018c0.359-0.988,1.737-1.454,2.56-0.917c0.745,0.487,1.309,1.119,1.779,1.845
			c4.721,7.285,10.597,13.603,16.565,19.849c4.767,4.989,9.495,10.014,14.241,15.023C863.742,810.742,863.653,810.921,863.563,811.1
			z"/>
		<path d="M556.327,834.459c-1.745-3.744-2.652-7.245-3.424-10.765c-0.812-3.704-1.478-7.445-2.059-11.193
			c-1.214-7.841-2.093-15.728-2.946-23.616c-0.074-0.684-0.101-1.38-0.061-2.065c0.029-0.506,0.178-1.012,0.318-1.505
			c0.234-0.824,1.11-1.556,1.855-1.593c0.728-0.037,1.686,0.688,1.926,1.478c0.149,0.492,0.333,0.986,0.391,1.492
			c0.374,3.256,2.211,19.363,2.807,24.155c0.851,6.847,1.806,13.685,1.795,20.607c-0.001,0.688-0.052,1.376-0.108,2.062
			C556.807,833.67,556.672,833.813,556.327,834.459z"/>
		<path d="M623.419,833.238c-0.287-3.194-0.212-4.357,0.336-7.646c0.963-5.787,2.418-11.465,3.853-17.144
			c1.309-5.178,2.751-10.323,4.158-15.476c0.318-1.162,0.7-2.311,1.125-3.439c0.178-0.472,0.534-0.88,0.827-1.305
			c0.309-0.448,1.318-0.701,1.876-0.509c0.547,0.188,0.865,0.601,0.982,1.089c0.157,0.659,0.293,1.37,0.209,2.028
			c-0.175,1.363-0.417,2.729-0.78,4.053c-2.227,8.145-4.473,16.284-6.759,24.413c-1.261,4.483-2.758,8.887-4.789,13.091
			C624.254,832.815,624.028,833.283,623.419,833.238z"/>
		<path d="M153.215,811.088c-3.088,4.926-6.469,9.492-9.932,13.998c-5.25,6.832-10.48,13.68-15.712,20.527
			c-0.842,1.102-1.673,2.203-3.047,2.735c-0.73,0.127-1.359-0.142-1.752-0.756c-0.386-0.603-0.391-1.323-0.15-1.99
			c0.233-0.645,0.498-1.295,0.857-1.877c0.722-1.172,1.45-2.353,2.295-3.437c3.495-4.485,6.947-9.01,10.589-13.374
			c2.646-3.171,5.497-6.181,8.391-9.131c1.805-1.84,3.854-3.44,5.804-5.137C151.333,811.972,152.172,811.388,153.215,811.088z"/>
		<path d="M1004.842,754.794c1.05,0.51,1.403,0.599,1.648,0.812c3.525,3.058,6.907,6.278,9.748,9.984
			c3.987,5.201,7.856,10.495,11.706,15.8c1.006,1.386,1.817,2.928,2.586,4.464c0.289,0.576,0.316,1.348,0.255,2.011
			c-0.043,0.466-0.435,0.9-0.622,1.254c-1.17,0.647-2.109,0.384-2.923-0.403c-0.367-0.355-0.676-0.788-0.944-1.227
			c-3.07-5.01-6.599-9.697-10.098-14.404c-3.815-5.131-7.301-10.469-10.316-16.11
			C1005.642,756.528,1005.443,756.059,1004.842,754.794z"/>
		<path d="M944.448,722.516c-1.668-1.899-37.465-43.567-39.255-45.673c-0.657-0.773-1.115-1.717-1.635-2.599
			c-0.071-0.12-0.022-0.359,0.048-0.505c0.18-0.371,0.52-0.519,0.878-0.327c0.754,0.405,1.535,0.79,2.206,1.311
			c2.608,2.024,4.785,4.488,6.942,6.966c9.422,10.827,18.358,22.041,26.718,33.709c1.208,1.685,2.409,3.376,3.583,5.084
			C944.101,720.727,944.097,721.089,944.448,722.516z"/>
		<path d="M172.798,835.795c-0.926-0.748-1.08-1.768-0.682-2.783c0.371-0.947,0.874-1.886,1.507-2.678
			c2.146-2.684,4.251-5.419,6.6-7.92c4.24-4.516,8.82-8.688,13.597-12.636c2.39-1.975,4.885-3.806,7.709-5.128
			c0.238-0.111,0.624,0.094,0.941,0.152c-0.072,0.295-0.064,0.652-0.233,0.872c-0.417,0.543-0.902,1.036-1.384,1.526
			c-2.049,2.085-4.109,4.16-6.161,6.243c-6.159,6.253-12.084,12.713-17.455,19.667c-0.627,0.811-1.315,1.588-2.056,2.295
			C174.518,836.039,173.686,836.201,172.798,835.795z"/>
		<path d="M175.428,810.552c-0.081,0.289-0.084,0.635-0.253,0.853c-4.312,5.605-19,24.335-22.029,28.097
			c-0.973,1.209-1.953,2.416-2.999,3.561c-0.575,0.629-1.28,1.143-1.951,1.679c-0.597,0.477-1.422,0.535-1.919,0.186
			c-0.529-0.372-0.785-1.23-0.507-1.847c0.352-0.783,0.664-1.601,1.135-2.31c0.857-1.291,1.746-2.575,2.749-3.753
			c4.587-5.383,9.168-10.772,13.85-16.072c3.319-3.756,7.107-7.035,11.011-10.17C174.736,810.598,175.118,810.622,175.428,810.552z"
			/>
		<path d="M425.62,811.594c-0.047-0.449-0.2-0.809-0.095-1.063c1.519-3.661,3.224-7.236,5.197-10.674
			c4.458-7.768,8.76-15.618,12.659-23.685c0.597-1.236,1.295-2.431,2.037-3.587c0.366-0.571,0.938-1.01,1.728-0.989
			c1.168,0.369,1.556,1.254,1.427,2.392c-0.195,1.731-0.802,3.352-1.586,4.886c-0.938,1.838-1.917,3.662-2.997,5.419
			c-3.334,5.429-6.721,10.827-10.095,16.231c-2.191,3.509-4.547,6.903-7.157,10.116C426.453,810.995,426.037,811.245,425.62,811.594
			z"/>
		<path d="M650.812,604.045c0.661,0.324,0.958,0.941,1.264,1.564c1.757,3.573,3.07,7.315,4.191,11.124
			c4.039,13.736,7.966,27.503,11.32,41.426c0.646,2.683,1.302,5.363,1.908,8.055c0.146,0.647,0.112,1.334,0.177,2.222
			c-0.396-0.321-0.69-0.436-0.754-0.628c-1.136-3.438-2.31-6.866-3.345-10.335c-4.536-15.207-9.042-30.423-13.526-45.645
			c-0.633-2.147-1.107-4.343-1.609-6.526C650.34,604.872,650.265,604.336,650.812,604.045z"/>
		<path d="M678.185,662.038c-0.265-0.198-0.647-0.339-0.774-0.603c-0.745-1.552-1.47-3.116-2.129-4.706
			c-4.156-10.029-21.751-52.35-23.485-56.851c-0.301-0.781-0.33-1.671-0.454-2.515c-0.021-0.141,0.081-0.338,0.186-0.453
			c0.219-0.239,0.544-0.219,0.841,0.081c1.598,1.614,2.729,3.552,3.662,5.59c0.932,2.034,1.823,4.1,2.555,6.213
			c5.531,15.961,11.925,31.595,17.911,47.384c0.428,1.128,0.91,2.241,1.239,3.397c0.232,0.814,0.246,1.689,0.358,2.536
			L678.185,662.038z"/>
		<path d="M700.679,759.209c0.476-0.296,1.011-0.4,1.403-0.01c0.48,0.478,0.922,1.036,1.232,1.635
			c1.029,1.992,2.034,3.998,2.972,6.034c3.104,6.737,6.209,13.474,9.244,20.243c1.623,3.619,3.11,7.298,4.635,10.96
			c0.189,0.454,0.364,0.985-0.306,1.471c-0.409-0.468-0.907-0.938-1.288-1.49c-2.356-3.41-4.546-6.925-6.47-10.597
			c-2.883-5.501-5.737-11.018-8.575-16.543c-1.423-2.771-2.572-5.655-3.18-8.725C700.143,761.169,700.038,760.133,700.679,759.209z"
			/>
		<path d="M324.75,836.801c-0.933-0.307-1.398-1.021-1.32-1.95c0.071-0.839,0.231-1.728,0.598-2.473
			c0.76-1.541,1.64-3.028,2.55-4.488c3.459-5.554,6.881-11.132,10.454-16.612c1.877-2.879,4.022-5.586,6.083-8.343
			c0.391-0.523,0.954-0.916,1.499-1.426c0.152,0.492,0.356,0.819,0.322,1.12c-0.057,0.502-0.229,1.001-0.419,1.476
			c-1.343,3.361-2.866,6.643-4.657,9.786c-3.581,6.282-7.217,12.531-10.861,18.777c-0.604,1.036-1.317,2.017-2.055,2.965
			C326.412,836.318,325.694,836.794,324.75,836.801z"/>
		<path d="M566.792,898.185c-1.88-3.34-2.893-6.091-3.739-8.885c-1.148-3.795-2.214-7.62-3.162-11.47
			c-1.237-5.024-2.348-10.08-3.457-15.134c-0.219-0.996-0.25-2.049-0.243-3.075c0.006-0.917,0.529-1.603,1.3-2.032
			c0.816-0.159,1.494,0.189,1.816,0.772c0.577,1.045,1.102,2.164,1.386,3.316c0.701,2.846,1.292,5.722,1.857,8.6
			c0.998,5.078,2.005,10.156,2.893,15.255c0.591,3.397,0.994,6.827,1.45,10.246C566.959,896.275,566.857,896.795,566.792,898.185z"
			/>
		<path d="M326.312,820.326c-1.377,4.702-3.056,8.475-5.139,12.041c-3.733,6.391-7.584,12.713-11.421,19.042
			c-0.437,0.721-1.081,1.322-1.665,1.945c-0.423,0.451-1.353,0.539-1.927,0.225c-0.651-0.356-1.023-0.932-1.026-1.659
			c-0.002-0.502,0.059-1.054,0.272-1.497c0.668-1.394,1.334-2.802,2.156-4.108c3.393-5.39,6.827-10.755,10.277-16.108
			c2.057-3.191,4.483-6.103,7.001-8.936C325.059,821.027,325.409,820.898,326.312,820.326z"/>
		<path d="M201.284,829.56c-0.507-0.256-0.854-0.356-1.1-0.571c-0.551-0.482-0.783-1.114-0.584-1.845
			c0.09-0.329,0.195-0.67,0.375-0.954c0.365-0.579,0.735-1.169,1.191-1.674c5.188-5.757,10.713-11.16,16.937-15.806
			c1.375-1.026,2.827-1.959,4.296-2.845c1.319-0.796,2.712-1.469,3.987-2.151c0.569,0.142,0.613,0.383,0.258,0.754
			c-4.158,4.344-18.658,19.484-21.74,22.719C203.952,828.186,203.039,829.226,201.284,829.56z"/>
		<path d="M968.425,746.779c0.424,0.106,0.784,0.093,0.993,0.264c3.349,2.739,6.433,5.758,9.272,9.018
			c4.204,4.827,7.931,10.014,11.434,15.364c0.373,0.57,0.632,1.219,0.909,1.847c0.304,0.688-0.099,1.796-0.795,2.283
			c-0.664,0.466-1.842,0.431-2.407-0.144c-0.722-0.734-1.485-1.456-2.062-2.298c-3.907-5.695-15.06-22.33-16.744-24.942
			C968.77,747.777,968.644,747.299,968.425,746.779z"/>
		<path d="M614.246,822.061c-0.413-2.056-0.106-3.405,0.169-4.748c0.863-4.221,4.661-22.445,5.739-27.326
			c0.371-1.679,0.895-3.327,1.413-4.969c0.259-0.822,0.695-1.577,1.526-2.186c0.387,0.025,0.874,0.057,1.275,0.083
			c0.555,0.643,0.688,1.301,0.698,2.006c0.043,2.971-0.714,5.822-1.467,8.644c-1.512,5.662-3.131,11.297-4.805,16.914
			C617.663,814.271,616.387,818.021,614.246,822.061z"/>
		<path d="M576.863,559.262c-0.392-0.329-0.827-0.578-1.105-0.946c-1.781-2.361-3.071-4.994-4.058-7.765
			c-1.916-5.373-3.23-10.909-4.215-16.519c-0.236-1.346-0.211-2.745-0.226-4.12c-0.005-0.499,0.132-1.049,0.367-1.489
			c0.326-0.611,0.847-1.06,1.619-1.103c0.607-0.034,1.517,0.476,1.667,0.997c0.332,1.158,0.763,2.307,0.923,3.491
			c0.578,4.283,1.573,8.479,2.629,12.654c1.187,4.692,1.996,9.438,2.608,14.228C577.09,558.834,576.964,558.996,576.863,559.262z"/>
		<path d="M554.223,576.449c0.762,2.345,0.893,4.944,1.064,7.5c0.482,7.218,1.431,14.389,2.025,21.595
			c0.098,1.191,0.125,2.387,0.183,3.531c-0.752,0.292-1.044-0.165-1.243-0.537c-1.551-2.909-2.598-6.023-3.209-9.237
			c-0.867-4.563-1.586-9.159-2.195-13.764c-0.292-2.207-0.22-4.467-0.242-6.704c-0.007-0.673,0.198-1.355,0.357-2.02
			c0.297-1.243,1.638-1.647,2.792-0.856C553.893,576.053,553.993,576.204,554.223,576.449z"/>
		<path d="M539.583,579.25c0.739-0.063,1.399,0.156,1.713,0.842c0.354,0.773,0.712,1.591,0.815,2.421
			c0.383,3.082,0.683,6.174,0.972,9.267c0.289,3.092,0.575,6.186,0.776,9.284c0.257,3.961,0.443,7.927,0.618,11.893
			c0.021,0.48-0.217,0.971-0.336,1.46c-0.886-0.232-1.015-0.963-1.233-1.557c-1.19-3.253-1.906-6.63-2.488-10.034
			c-0.64-3.742-1.278-7.486-1.804-11.244c-0.479-3.419-0.824-6.86-0.421-10.32C538.3,580.366,538.68,579.615,539.583,579.25z"/>
		<path d="M617.516,655.146c-0.56-0.659-0.444-1.347-0.344-1.983c0.449-2.88,0.871-5.767,1.439-8.625
			c0.903-4.541,1.866-9.072,2.899-13.585c0.534-2.333,0.92-4.729,2.068-6.88c0.441-0.826,1.1-1.288,2.107-0.892
			c0.687,0.829,0.895,1.855,0.83,2.88c-0.13,2.049-0.176,4.138-0.63,6.126c-1.106,4.847-2.371,9.662-3.982,14.373
			c-0.89,2.602-1.995,5.114-3.361,7.502C618.303,654.478,617.868,654.781,617.516,655.146z"/>
		<path d="M552.193,772.087c-0.319-0.49-0.654-0.878-0.85-1.327c-1.251-2.858-2.092-5.847-2.715-8.897
			c-0.897-4.397-1.762-8.801-2.65-13.2c-0.584-2.897-0.71-5.824-0.559-8.764c0.025-0.495,0.277-0.978,0.414-1.433
			c0.383-0.093,0.729-0.289,1.001-0.214c0.294,0.081,0.612,0.366,0.754,0.646c0.308,0.607,0.554,1.255,0.749,1.909
			c0.992,3.326,1.22,6.792,1.821,10.19c0.692,3.908,1.197,7.849,1.846,11.766c0.453,2.738,0.617,5.488,0.586,8.254
			C552.586,771.329,552.366,771.638,552.193,772.087z"/>
		<path d="M572.163,883.57c-1.653-2.664-2.181-4.844-2.772-6.974c-1.611-5.81-2.544-11.755-3.246-17.735
			c-0.099-0.841,0.004-1.71,0.054-2.563c0.035-0.606,0.67-1.295,1.284-1.473c0.767-0.222,1.88,0.25,2.207,0.938
			c0.147,0.309,0.338,0.607,0.426,0.932c0.268,0.995,0.596,1.989,0.723,3.005c0.874,6.995,1.797,13.99,1.591,21.066
			C572.41,881.438,572.305,882.108,572.163,883.57z"/>
		<path d="M609.267,767.989c-0.489-0.6-0.944-0.917-1.045-1.323c-0.498-1.997-1.049-3.998-1.312-6.033
			c-0.662-5.113-1.369-10.216-2.209-15.303c-0.335-2.028-0.444-4.102-0.512-6.16c-0.033-1.008,0.21-2.04,0.436-3.036
			c0.119-0.525,0.612-0.755,1.384-0.693c0.313,0.433,0.841,0.926,1.078,1.533c0.75,1.925,1.307,3.908,1.421,5.995
			c0.309,5.663,0.677,11.323,0.94,16.988C609.568,762.523,609.585,765.102,609.267,767.989z"/>
		<path d="M563.689,820.202c-0.525-0.509-1.002-0.786-1.203-1.197c-1.065-2.176-1.759-4.493-2.239-6.855
			c-0.927-4.557-1.47-9.176-2.03-13.79c-0.081-0.664,0.065-1.367,0.175-2.041c0.13-0.792,1.009-1.595,1.759-1.692
			c0.788-0.102,1.722,0.482,2.042,1.275c0.128,0.318,0.331,0.626,0.374,0.955c0.904,7.001,1.901,13.997,1.447,21.089
			C563.97,818.62,563.823,819.287,563.689,820.202z"/>
		<path d="M614.168,574.207c0.736,0.416,1.213,0.943,1.281,1.649c0.147,1.53,0.383,3.086,0.246,4.602
			c-0.494,5.459-1.04,10.92-2.173,16.294c-0.315,1.493-0.818,2.943-1.371,4.148c-0.665,0.287-0.972,0.208-1.058-0.153
			c-0.599-2.524-0.611-5.096-0.528-7.663c0.105-3.255,0.206-6.515,0.476-9.76c0.184-2.212,0.612-4.408,1.028-6.592
			c0.123-0.644,0.497-1.288,0.907-1.814C613.255,574.563,613.798,574.416,614.168,574.207z"/>
		<path d="M559.573,766.765c-0.38,0.041-0.62-0.13-0.781-0.487c-0.928-2.057-1.455-4.234-1.837-6.438
			c-0.44-2.544-0.762-5.108-1.138-7.662c-0.225-1.533-0.497-3.061-0.675-4.599c-0.315-2.731-0.715-5.468-0.068-8.109
			c0.204-0.214,0.304-0.366,0.443-0.457c0.907-0.589,1.76-0.537,2.208,0.196c0.352,0.576,0.741,1.194,0.855,1.839
			c0.27,1.523,0.452,3.07,0.55,4.614c0.318,4.984,0.618,9.97,0.846,14.959c0.078,1.716-0.064,3.443-0.137,5.163
			C559.826,766.113,559.666,766.438,559.573,766.765z"/>
		<path d="M580.072,858.617c0.373,0.245,0.799,0.525,1.287,0.845c1.168,3.13,0.886,6.449,1.013,9.706
			c0.284,7.238,0.24,7.299-1.062,12.82c-0.613,0.122-0.843-0.357-1.048-0.75c-1.461-2.807-2.145-5.857-2.364-8.963
			c-0.255-3.616-0.221-7.253-0.298-10.88c-0.007-0.34,0.053-0.695,0.152-1.022C578.086,859.273,578.785,858.614,580.072,858.617z"/>
		<path d="M546.216,658.194c-0.644-0.633-1.068-0.903-1.287-1.29c-1.19-2.101-2.015-4.355-2.519-6.712
			c-0.645-3.016-1.279-6.037-1.806-9.075c-0.411-2.369-0.539-4.768-0.075-7.161c0.185-0.955,0.845-1.513,2.12-1.757
			c0.782,0.496,1.175,1.263,1.303,2.123c0.405,2.712,1.619,12.578,1.922,14.784C546.272,651.998,546.286,654.889,546.216,658.194z"
			/>
		<path d="M306.698,832.921c0,0.192,0.061,0.386-0.009,0.502c-3.989,6.663-8.011,13.305-12.528,19.63
			c-0.6,0.841-1.187,1.698-2.133,2.216c-0.488,0.267-0.976,0.323-1.466,0.066c-0.663-0.347-1.131-1.142-1.019-1.666
			c0.072-0.334,0.073-0.705,0.226-0.995c0.563-1.066,1.121-2.142,1.782-3.148c2.375-3.615,5.029-7.02,8.035-10.131
			c2.038-2.109,4.171-4.128,6.282-6.166C306.058,833.046,306.404,833.025,306.698,832.921z"/>
		<path d="M617.253,856.426c0.734,0.609,1.024,1.428,0.922,2.3c-0.119,1.018-0.314,2.049-0.649,3.015
			c-1.013,2.925-2.041,5.847-3.191,8.72c-1.152,2.88-2.67,5.583-4.512,8.088c-0.166,0.226-0.546,0.294-0.908,0.476
			c-0.072-0.529-0.231-1.035-0.192-1.525c0.123-1.54,0.21-3.097,0.516-4.606c0.376-1.849,0.884-3.679,1.472-5.473
			c0.856-2.613,1.814-5.194,2.773-7.772c0.297-0.8,0.664-1.595,1.131-2.306C615.235,856.402,616.124,855.964,617.253,856.426z"/>
		<path d="M566.694,455.674c-0.574-1.128-0.509-2.158-0.548-3.156c-0.234-6.023-0.04-12.032,0.6-18.028
			c0.219-2.051,0.407-4.106,0.549-6.164c0.131-1.903,0.489-3.758,1.167-5.53c0.233-0.609,0.732-1.141,1.197-1.624
			c0.198-0.206,0.614-0.243,0.938-0.273c0.352-0.033,1.023,0.678,1.027,1.037c0.005,0.508,0.063,1.028-0.023,1.521
			c-0.473,2.709-1.013,5.406-1.473,8.116c-0.922,5.425-1.563,10.888-2.11,16.361C567.761,450.496,567.295,453.008,566.694,455.674z"
			/>
		<path d="M624.958,577.251c1.029-0.194,1.689,0.32,1.939,1.22c0.226,0.814,0.389,1.707,0.302,2.536
			c-0.681,6.484-1.316,12.984-3.497,19.193c-0.15,0.426-0.528,0.816-1.261,0.382c-0.098-1.087-0.253-2.275-0.302-3.466
			c-0.192-4.643,0.155-9.271,0.496-13.895c0.1-1.359,0.493-2.698,0.777-4.041C623.531,578.615,623.72,578.426,624.958,577.251z"/>
		<path d="M952.806,743.729c0.376,0.346,0.796,0.654,1.121,1.042c5.257,6.265,9.175,13.356,12.717,20.677
			c0.223,0.461,0.35,0.969,0.514,1.458c0.22,0.655-0.143,1.452-0.767,1.71c-0.535,0.221-1.031,0.079-1.44-0.255
			c-0.396-0.323-0.776-0.695-1.062-1.115c-0.485-0.711-0.928-1.457-1.324-2.222c-3.327-6.44-6.758-12.828-9.651-19.483
			c-0.201-0.463-0.369-0.941-0.552-1.412C952.511,743.997,952.658,743.863,952.806,743.729z"/>
		<path d="M608.149,551.717c-1.072-1.975-1.251-3.511-1.352-5.05c-0.282-4.311-0.026-8.612,0.379-12.902
			c0.063-0.665,0.349-1.329,0.63-1.949c0.3-0.661,0.889-1.023,1.618-1.098c0.756-0.077,1.792,0.679,1.953,1.397
			c0.075,0.335,0.207,0.667,0.217,1.004c0.129,4.319-0.072,8.616-1.06,12.839c-0.234,1-0.601,1.976-0.985,2.932
			C609.234,549.673,608.803,550.411,608.149,551.717z"/>
		<path d="M874.901,803.818c-1.717-0.136-2.355-0.771-3.007-1.299c-1.071-0.867-2.13-1.774-3.062-2.786
			c-2.699-2.929-5.048-6.14-7.241-9.456c-0.655-0.991-1.066-2.161-1.47-3.291c-0.161-0.451-0.098-1.043,0.036-1.523
			c0.189-0.681,0.691-1.18,1.355-1.464c0.451-0.193,1.493,0.205,1.84,0.695c0.398,0.564,0.843,1.108,1.151,1.72
			c2.099,4.179,4.629,8.096,7.183,12.002C872.719,800.001,873.626,801.668,874.901,803.818z"/>
		<path d="M706.542,792.948c-0.281-0.138-0.662-0.202-0.822-0.425c-1-1.395-2.027-2.779-2.903-4.252
			c-2.376-3.994-4.359-8.193-6.225-12.444c-0.408-0.929-0.607-1.962-0.804-2.966c-0.095-0.486-0.001-1.023,0.079-1.526
			c0.082-0.523,0.375-0.925,0.899-1.128c0.422-0.164,1.164,0.01,1.415,0.335c0.312,0.405,0.714,0.773,0.912,1.229
			c2.869,6.622,5.828,13.212,7.642,20.23C706.806,792.28,706.612,792.629,706.542,792.948z"/>
		<path d="M568.935,600.104c-0.281-0.139-0.686-0.204-0.825-0.431c-0.446-0.731-0.877-1.492-1.166-2.295
			c-1.935-5.379-3.201-10.927-4.048-16.573c-0.101-0.674-0.051-1.378-0.013-2.064c0.019-0.335,0.169-0.663,0.261-0.994
			c0.113-0.403,0.735-0.971,1.151-0.902c0.482,0.08,1.072,0.2,1.376,0.525c0.716,0.766,1.088,1.754,1.24,2.802
			c0.248,1.709,1.856,13.688,2.401,17.969C569.4,598.813,569.445,599.523,568.935,600.104z"/>
		<path d="M596.89,769.927c-0.178-0.243-0.488-0.474-0.512-0.731c-0.142-1.536-0.329-3.081-0.293-4.618
			c0.077-3.276,0.617-6.503,1.371-9.687c0.358-1.513,0.944-2.938,2.161-4.021c0.513-0.456,1.531-0.349,1.73,0.295
			c0.25,0.809,0.642,1.672,0.56,2.47c-0.507,4.967-1.334,9.876-3.351,14.498c-0.205,0.469-0.467,0.933-0.795,1.321
			C597.563,769.689,597.187,769.774,596.89,769.927z"/>
		<path d="M612.23,635.217c0.984,0.232,1.422,0.924,1.45,1.849c0.021,0.676,0.028,1.408-0.2,2.026
			c-1.711,4.651-3.236,9.389-5.947,13.603c-0.364,0.566-0.695,1.204-1.491,1.287c-0.122-0.287-0.349-0.575-0.348-0.864
			c0.002-1.024-0.04-2.071,0.151-3.067c0.806-4.206,2.013-8.306,3.499-12.322c0.176-0.475,0.468-0.913,0.75-1.34
			C610.6,635.627,611.324,635.231,612.23,635.217z"/>
		<path d="M577.089,449.582c-0.196-0.213-0.476-0.389-0.564-0.634c-0.897-2.482-0.872-5.058-0.667-7.633
			c0.217-2.736,0.518-5.466,0.779-8.198c0.116-1.213,0.391-2.379,1.129-3.373c0.571-0.769,1.326-1.014,2.33-0.549
			c0.177,0.381,0.525,0.825,0.573,1.3c0.086,0.843,0.093,1.722-0.045,2.556c-0.756,4.568-1.551,9.129-2.372,13.686
			C578.07,447.743,577.766,448.735,577.089,449.582z"/>
		<path d="M554.323,651.974c-0.304-0.325-0.706-0.609-0.912-0.997c-1.714-3.237-2.371-6.766-2.701-10.36
			c-0.14-1.525-0.123-3.075-0.037-4.605c0.05-0.884,0.59-1.581,1.534-1.886c1.168-0.045,2.006,0.555,2.195,1.686
			c0.819,4.902,1.395,9.827,0.762,14.807c-0.042,0.329-0.201,0.652-0.352,0.954C554.744,651.708,554.56,651.786,554.323,651.974z"/>
		<path d="M577.026,896.964c1.037-0.231,1.664,0.292,2.106,1.098c0.162,0.295,0.275,0.648,0.303,0.983
			c0.379,4.652,0.671,9.305-0.185,13.94c-0.061,0.33-0.176,0.69-0.383,0.939c-0.185,0.222-0.532,0.31-0.912,0.513
			c-1.359-1.64-2.034-3.594-2.285-5.66c-0.376-3.088-0.48-6.2-0.172-9.307C575.605,898.403,576.013,897.465,577.026,896.964z"/>
		<path d="M586.755,577.262c0.39,0,0.895,0,1.364,0c0.846,0.457,1.417,1.154,1.472,2.043c0.277,4.492,0.261,8.969-1.234,13.295
			c-0.063,0.183-0.564,0.214-0.869,0.319c-0.703-0.559-1.122-1.318-1.341-2.158c-0.922-3.539-1.293-7.134-0.945-10.784
			C585.302,578.915,585.71,577.973,586.755,577.262z"/>
		<path d="M580.136,594.9c-0.381-0.239-0.787-0.349-0.916-0.601c-0.388-0.757-0.791-1.542-0.968-2.364
			c-0.941-4.359-1.622-8.754-1.443-13.236c0.042-1.051,0.412-1.988,1.2-2.747c0.604-0.583,1.844-0.454,2.224,0.284
			c0.155,0.301,0.347,0.596,0.433,0.918c0.131,0.494,0.268,1.01,0.258,1.514c-0.098,4.966-0.216,9.932-0.363,14.896
			C580.547,594.004,580.29,594.436,580.136,594.9z"/>
		<path d="M530.69,542.315c-0.746-0.762-1.077-0.96-1.2-1.246c-2.507-5.841-3.074-11.975-2.687-18.244
			c0.02-0.329,0.138-0.698,0.332-0.957c0.179-0.24,0.514-0.479,0.794-0.497c0.285-0.018,0.714,0.155,0.856,0.384
			c0.355,0.573,0.735,1.201,0.835,1.849c0.365,2.385,0.71,4.78,0.895,7.184C530.793,534.397,530.592,538.016,530.69,542.315z"/>
		<path d="M611.414,798.374c0.516,1.337,0.482,2.735,0.225,4.09c-0.742,3.904-1.585,7.79-3.272,11.426
			c-0.215,0.464-0.527,0.891-0.838,1.301c-0.247,0.326-0.571,0.373-0.831,0.159c-0.123-0.101-0.25-0.27-0.264-0.418
			c-0.064-0.685-0.148-1.376-0.12-2.06c0.163-3.987,1.05-7.874,1.705-11.791c0.139-0.83,0.596-1.613,0.948-2.4
			C609.414,797.68,610.284,797.582,611.414,798.374z"/>
		<path d="M546.974,689.252c-0.556,0.352-1.067,0.318-1.403-0.085c-0.649-0.779-1.365-1.558-1.781-2.462
			c-1.221-2.654-1.842-5.5-2.127-8.39c-0.143-1.45,0.44-2.688,2.071-3.043c1.182,0.153,1.963,0.873,2.151,1.928
			c0.627,3.517,1.51,7.01,1.331,10.627C547.191,688.326,547.05,688.819,546.974,689.252z"/>
		<path d="M183.389,760.667c0.128-0.668,0.151-1.381,0.409-1.994c0.4-0.949,0.935-1.846,1.46-2.738
			c4.03-6.84,8.056-13.682,12.123-20.5c0.883-1.479,1.916-2.87,2.905-4.284c0.275-0.393,0.609-0.754,1.162-0.789
			c0.339-0.021,0.33,0.78-0.024,1.412c-0.422,0.753-0.839,1.509-1.288,2.245c-5.032,8.253-10.063,16.506-15.116,24.745
			c-0.436,0.712-0.785,1.558-1.718,1.824L183.389,760.667z"/>
		<path d="M450.785,785.826c0.377,0.094,0.934,0.097,1.316,0.357c0.608,0.413,0.766,1.15,0.656,1.845
			c-0.106,0.67-0.325,1.335-0.584,1.965c-1.726,4.198-4.299,7.833-7.465,11.06c-0.106,0.108-0.301,0.129-0.454,0.19
			c-0.071-0.322-0.279-0.688-0.192-0.961c1.358-4.271,2.983-8.438,4.944-12.472C449.39,787.018,449.872,786.329,450.785,785.826z"/>
		<path d="M886.348,792.256c-0.288,0.158-0.572,0.434-0.867,0.448c-0.5,0.023-1.047-0.022-1.504-0.21
			c-3.398-1.402-5.469-4.038-6.646-7.421c-0.213-0.611-0.174-1.361-0.064-2.016c0.078-0.469,0.468-0.886,0.672-1.245
			c0.965-0.452,1.914-0.44,2.418,0.345c2.033,3.164,4.362,6.149,5.945,9.591C886.369,791.893,886.335,792.085,886.348,792.256z"/>
		<path d="M569.975,763.209c-2.03-1.325-2.627-2.942-3.168-4.556c-0.664-1.98-0.9-4.01-0.346-5.981
			c0.183-0.211,0.277-0.366,0.411-0.465c1.172-0.862,2.527-0.64,3.004,0.465c0.834,1.934,1.173,3.957,0.935,6.039
			C570.656,760.064,570.32,761.396,569.975,763.209z"/>
		<path d="M591.206,428.129c0.632,0.684,0.707,1.534,0.699,2.389c-0.036,3.93-0.468,7.815-1.314,11.683
			c-0.327-0.189-0.723-0.279-0.813-0.496c-0.258-0.618-0.533-1.284-0.55-1.937c-0.085-3.238-0.094-6.478-0.112-9.718
			c-0.002-0.335,0.115-0.67,0.171-1.005C589.402,428.342,590.125,427.998,591.206,428.129z"/>
		<path d="M631.861,590.316c-0.118-0.109-0.326-0.205-0.351-0.336c-0.577-3.053-0.289-6.077,0.417-9.067
			c0.152-0.643,0.481-1.286,0.883-1.812c0.269-0.353,0.809-0.499,1.157-0.697c0.826,0.307,1.182,0.841,1.306,1.552
			c0.029,0.166,0.042,0.338,0.034,0.507C635.15,583.805,634.081,586.851,631.861,590.316z"/>
		<path d="M591.339,875.423c-0.306-0.373-0.783-0.708-0.889-1.136c-0.201-0.813-0.255-1.679-0.253-2.522
			c0.005-2.061,0.398-4.052,1.243-5.9c0.328-0.207,0.591-0.446,0.9-0.551c0.685-0.234,1.456,0.164,1.657,0.764
			c0.107,0.32,0.275,0.643,0.285,0.969c0.085,2.781-0.477,5.401-2.065,7.733C592.041,875.036,591.689,875.173,591.339,875.423z"/>
		<path d="M599.923,446.302c-1.264-1.875-1.661-4.059-2.168-6.175c-0.272-1.135-0.214-2.361-0.223-3.546
			c-0.007-0.913,0.434-1.619,1.401-2.056c0.337,0.263,0.886,0.482,1.075,0.875c0.673,1.397,0.87,2.93,0.926,4.464
			c0.075,2.045-0.024,4.083-0.603,6.065C600.291,446.068,600.087,446.158,599.923,446.302z"/>
		<path d="M684.172,775.568c0.95-0.319,1.677,0.053,2.2,0.823c1.462,2.155,2.486,4.51,3.048,7.056
			c0.072,0.324,0.037,0.681-0.002,1.016c-0.018,0.156-0.165,0.296-0.254,0.444c-0.305-0.099-0.689-0.112-0.901-0.31
			c-1.906-1.78-3.403-3.878-4.523-6.222C683.279,777.411,683.182,776.377,684.172,775.568z"/>
		<path d="M593.553,901.159c-1.387-1.795-1.984-3.889-2.082-6.141c-0.031-0.706,0.377-1.295,0.853-1.801
			c0.565-0.6,1.743-0.621,2.304-0.015c0.341,0.369,0.738,0.762,0.891,1.217c0.824,2.453,0.324,4.661-1.4,6.584
			C594.026,901.108,593.804,901.095,593.553,901.159z"/>
		<path d="M236.456,808.013c-2.384,3.605-4.646,7.248-7.676,10.218c-1.281-0.52-1.662-1.164-1.217-1.822
			c0.096-0.142,0.16-0.306,0.26-0.444C229.904,813.087,232.573,810.497,236.456,808.013z"/>
		<path d="M583.323,555.085c-2.025-1.972-1.894-4.235-1.351-6.594c0.464-0.318,0.868-0.596,1.212-0.832
			c0.823,0.042,1.409,0.413,1.72,1.025c0.991,1.949,0.935,3.9-0.31,5.72C584.36,554.746,583.78,554.851,583.323,555.085z"/>
		<path d="M1066.035,803.496c0.407-0.04,0.902-0.088,1.354-0.131c1.669,2.206,1.685,2.286,1.633,7.833
			c-0.191,0.322-0.499,0.381-0.814,0.066c-1.235-1.234-2.186-2.673-2.748-4.32C1065.062,805.778,1064.938,804.571,1066.035,803.496z
			"/>
		<path d="M568.501,804.707c1.103-1.594,2.263-1.72,2.895-0.607c0.165,0.29,0.378,0.573,0.457,0.888
			c0.478,1.895,0.433,2.6-0.249,5.328c-0.164-0.02-0.387,0.022-0.483-0.07C569.579,808.792,569.114,806.832,568.501,804.707z"/>
		<path d="M603.735,634.429c0.158,0.336,0.47,0.676,0.408,0.92c-0.646,2.514-2.058,4.669-3.19,7.295
			c-0.724-2.111-0.69-2.827,0.317-5.187C601.792,636.233,602.143,634.812,603.735,634.429z"/>
		<path d="M551.979,682.207c-0.993-0.26-1.239-0.923-0.942-1.87c0.785-0.806,1.662-1.016,2.661-0.408
			c0.299,0.182,0.379,0.48,0.189,0.839C553.482,681.531,552.885,682.059,551.979,682.207z"/>
		<path d="M606.192,867.831c0.055,0.924-0.445,1.61-0.994,2.264c-0.083,0.099-0.292,0.143-0.437,0.132
			c-0.356-0.026-0.591-0.267-0.572-0.651c0.042-0.865,0.253-1.682,0.939-2.282c0.11-0.096,0.374-0.175,0.455-0.114
			C605.817,867.357,605.993,867.609,606.192,867.831z"/>
		<path d="M183.301,760.588c-0.034,1.827-1.39,2.963-2.21,4.593c-0.23-0.917-0.648,0.131-0.39-0.511
			c0.555-1.385,1.125-2.762,2.223-3.828c0.109-0.106,0.308-0.119,0.466-0.175L183.301,760.588z"/>
		<path d="M268.39,743.602c-1.124,1.273-1.377,2.314-2.522,2.349C266.343,745.15,266.655,744.222,268.39,743.602z"/>
		<path d="M678.096,662.112c1.297,1.107,1.584,2.564,1.936,4.906c-1.338-2.025-2.004-3.371-1.847-4.98L678.096,662.112z"/>
	</g>
</g>
</svg>
