<?xml version="1.0" encoding="utf-8"?>
<!-- Designed by Vexels.com - 2020 All Rights Reserved - https://vexels.com/terms-and-conditions/  -->
<svg version="1.1" id="Layer_1" xmlns="http://www.w3.org/2000/svg" xmlns:xlink="http://www.w3.org/1999/xlink" x="0px" y="0px"
	 viewBox="0 0 1200 1200" enable-background="new 0 0 1200 1200" xml:space="preserve">
<g>
	<path fill="#F3CCA1" d="M661.459,879.041c-4.13-0.228-7.931-0.535-11.732-0.82c-2.373-0.178-4.759-0.264-7.072-0.928
		c-0.453-0.13-0.941-0.162-1.415-0.185c-5.089-0.246-10.073-1.274-15.081-2.087c-3.125-0.507-6.199-1.323-9.312-1.917
		c-4.21-0.803-8.346-1.898-12.481-3.005c-0.918-0.246-1.836-0.5-2.737-0.801c-3.624-1.211-7.4-1.773-11.116-2.578
		c-2.551-0.553-5.066-0.011-7.504,0.729c-0.883,0.268-1.718,0.842-2.445,1.435c-1.105,0.9-2.158,1.882-3.128,2.927
		c-6.674,7.185-14.591,12.715-23.22,17.234c-3.081,1.614-6.352,2.944-9.658,4.035c-7.838,2.586-15.814,4.662-24,5.882
		c-3.291,0.49-6.556,1.154-9.866,1.548c-3.779,0.449-7.546,0.987-11.364,0.982c-1.108-0.001-2.217,0.113-3.325,0.182
		c-1.265,0.079-2.529,0.217-3.795,0.24c-2.696,0.05-5.396-0.12-8.085,0.28c-0.775,0.115-1.587,0.037-2.378-0.012
		c-4.908-0.3-9.848-0.248-14.683-1.36c-0.615-0.141-1.259-0.165-1.893-0.215c-7.167-0.567-14.061-2.399-20.849-4.632
		c-8.898-2.927-17.639-6.272-26.015-10.495c-7.653-3.859-15.273-7.778-22.462-12.481c-2.271-1.486-4.433-3.107-6.392-4.95
		c-3.467-3.262-7.01-6.449-10.183-10.018c-3.175-3.571-5.976-7.409-8.592-11.398c-4.19-6.389-7.827-13.075-10.798-20.112
		c-3.544-8.394-5.789-17.112-6.324-26.237c-0.787-4.752-0.316-9.503,0.02-14.253c0.112-1.583,0.255-3.164,0.74-4.696
		c0.19-0.601,0.28-1.238,0.382-1.864c0.944-5.787,1.985-10.475,3.707-16.701c0.084-0.302,0.085-0.626,0.135-0.938
		c0.07-0.432-0.483-0.997-0.857-0.857c-0.739,0.277-1.5,0.502-2.22,0.821c-5.373,2.385-10.871,4.44-16.445,6.297
		c-8.454,2.817-17.072,4.874-25.978,5.63c-2.841,0.241-5.665,0.679-8.502,0.976c-1.103,0.115-2.22,0.107-3.331,0.123
		c-2.062,0.031-4.125-0.071-6.18,0.262c-0.774,0.125-1.587,0.065-2.378,0.019c-4.75-0.274-9.535-0.181-14.201-1.345
		c-0.306-0.076-0.628-0.093-0.944-0.124c-7.299-0.72-14.327-2.638-21.32-4.748c-11.089-3.345-22.028-7.136-32.876-11.176
		c-6.538-2.435-12.927-5.266-19.394-7.892c-7.063-2.867-13.934-6.16-20.745-9.563c-7.382-3.688-14.761-7.385-21.979-11.396
		c-8.06-4.479-15.841-9.389-23.259-14.864c-2.426-1.79-4.771-3.693-7.107-5.599c-6.395-5.219-12.951-10.244-19.106-15.753
		c-2.01-1.799-4.023-3.6-5.967-5.47c-3.889-3.742-7.932-7.327-11.457-11.438c-6.91-8.057-12.144-17.045-15.208-27.24
		c-1.187-3.948-2.313-7.908-2.982-11.998c-0.31-1.898-0.23-3.805-0.505-5.678c-0.421-2.862-0.263-5.704-0.088-8.555
		c0.4-6.53,1.793-12.865,3.812-19.073c2.525-7.763,6.426-14.816,10.924-21.593c5.241-7.896,11.786-14.54,19.184-20.375
		c6.135-4.839,12.856-8.743,19.93-12.042c8.498-3.964,17.201-7.369,26.181-10.116c7.738-2.367,15.459-4.783,23.244-6.99
		c8.707-2.468,17.586-4.188,26.421-6.094c7.131-1.538,14.315-2.796,21.513-3.981c7.352-1.21,14.702-2.414,22.089-3.4
		c4.713-0.629,9.416-1.351,14.109-2.118c8.291-1.355,16.57-2.789,24.858-4.165c12.203-2.026,24.326-4.446,36.416-7.069
		c10.074-2.186,68.024-14.773,77.172-16.728c17.072-3.649,33.94-8.112,50.703-12.956c9.753-2.818,19.411-5.966,29.104-8.991
		c2.877-0.898,5.708-1.945,8.594-2.812c6.699-2.012,13.195-4.57,19.642-7.254c9.388-3.909,18.975-7.236,28.759-10.003
		c4.585-1.297,9.251-2.228,13.946-3.002c2.5-0.412,5.042-0.567,7.557-0.891c4.093-0.527,8.229-0.475,12.326-0.966
		c1.254-0.15,2.538-0.056,3.809-0.072c1.112-0.014,2.245,0.109,3.331-0.063c2.85-0.452,5.703-0.253,8.558-0.242
		c3.331,0.013,6.664,0.395,9.993-0.04c5.07,0.247,10.161,0.196,15.186,1.104c1.246,0.225,2.522,0.285,3.786,0.413
		c4.576,0.464,9.201,0.543,13.686,1.727c0.152,0.04,0.314,0.045,0.472,0.062c4.738,0.524,9.364,1.632,14.025,2.582
		c10.286,2.097,20.245,5.266,30.113,8.773c7.329,2.605,14.525,5.536,21.607,8.746c1.878,0.852,3.693,1.846,5.573,2.694
		c7.375,3.327,35.573,15.66,42.242,18.622c7.693,3.417,15.593,6.303,23.507,9.132c6.268,2.241,12.599,4.318,18.924,6.407
		c6.928,2.288,13.891,4.45,20.898,6.471c9.291,2.679,18.62,5.223,28.011,7.541c5.539,1.367,11.031,2.93,16.574,4.279
		c4.62,1.125,9.284,2.065,13.928,3.09c3.25,0.717,6.487,1.496,9.751,2.144c3.421,0.679,6.87,1.218,10.301,1.85
		c3.585,0.66,12.615,2.399,13.557,2.53c1.729,0.241,3.462,0.417,5.148,0.934c0.901,0.276,1.871,0.34,2.815,0.467
		c1.887,0.254,3.785,0.411,5.623,0.98c0.751,0.232,1.557,0.298,2.344,0.399c2.203,0.283,4.411,0.496,6.565,1.12
		c1.056,0.306,2.2,0.292,3.297,0.468c1.565,0.251,3.123,0.54,4.684,0.819c0.312,0.056,0.617,0.178,0.93,0.201
		c4.442,0.32,8.761,1.477,13.183,1.931c2.052,0.211,4.104,0.395,6.106,0.977c0.905,0.263,1.879,0.299,2.824,0.41
		c2.679,0.314,5.37,0.5,7.995,1.221c1.06,0.291,2.2,0.298,3.304,0.427c1.891,0.221,3.791,0.36,5.635,0.912
		c0.753,0.225,1.559,0.29,2.347,0.383c2.994,0.354,6.004,0.571,8.934,1.373c0.909,0.249,1.887,0.248,2.833,0.361
		c1.891,0.225,3.785,0.389,5.631,0.931c0.905,0.266,1.874,0.33,2.818,0.447c2.048,0.253,4.099,0.441,6.096,1.037
		c0.902,0.269,1.879,0.297,2.824,0.414c2.205,0.273,4.431,0.414,6.561,1.124c0.298,0.099,0.622,0.13,0.936,0.172
		c5.032,0.675,10.004,1.682,14.982,2.667c2.487,0.492,4.986,0.937,7.478,1.396c9.834,1.811,19.539,4.177,29.169,6.808
		c14.412,3.938,28.419,9.044,41.775,15.791c8.537,4.313,16.502,9.549,23.572,16.012c5.168,4.725,9.829,9.917,13.213,16.153
		c2.456,4.525,3.986,9.285,4.637,14.396c0.63,4.944,0.29,9.76-0.674,14.646c-1.401,7.106-4.113,13.631-7.648,19.891
		c-3.843,6.805-8.394,13.088-13.595,18.909c-0.423,0.473-0.865,0.931-1.314,1.38c-6.991,6.968-14.504,13.291-22.696,18.828
		c-8.844,5.977-18.148,11.068-27.93,15.325c-12.231,5.323-24.594,10.301-37.195,14.682c-9.292,3.23-18.6,6.417-27.862,9.731
		c-13.747,4.919-27.628,9.438-41.519,13.922c-10.117,3.266-20.352,6.141-30.68,8.669c-7.088,1.735-14.247,3.107-21.448,4.292
		c-5.632,0.927-11.24,2-16.851,3.046c-1.088,0.203-2.154,0.544-3.213,0.878c-1.069,0.337-1.874,1.528-1.745,2.579
		c0.656,5.354,0.902,10.742,1.282,16.116c0.201,2.843-0.099,5.682-0.61,8.522c-1.554,8.631-5.414,16.201-10.372,23.29
		c-2.46,3.518-5.157,6.845-8.279,9.816c-1.379,1.312-2.628,2.762-4.011,4.069c-5.209,4.924-10.915,9.216-16.926,13.102
		c-10.188,6.587-21.151,11.551-32.57,15.59c-9.139,3.232-18.468,5.781-27.866,8.106c-7.854,1.943-15.788,3.52-23.738,4.989
		c-8.261,1.527-16.547,2.941-24.854,4.187c-6.11,0.916-12.234,1.791-18.409,2.234c-2.843,0.204-5.662,0.756-8.505,0.934
		c-3.167,0.199-14.546,1.119-17.08,1.217c-2.377,0.092-4.75,0.087-7.129,0.337c-2.041,0.214-4.124,0.019-6.189,0.011
		c-2.22-0.009-4.437-0.175-6.66,0.142c-1.088,0.155-2.22,0.049-3.33,0.007C670.022,879.401,665.576,879.268,661.459,879.041z"/>
	<path fill="#F4B164" d="M801.91,732.608c-21.668-20.843-37.977-47.262-53.779-73.122c-14.45-23.647-28.9-47.295-43.35-70.942
		c-10.444-17.092-21-34.33-34.851-48.799c-13.851-14.469-31.451-26.145-51.219-29.377c-11.375-1.86-23.022-0.879-34.433,0.747
		c-13.953,1.989-28.17,5.102-39.839,13.007c-8.959,6.069-15.9,14.614-22.702,23.03c-14.583,18.043-29.257,36.221-40.224,56.665
		c-15.795,29.444-23.82,63.392-45.03,89.21c-9.867,12.01-22.186,21.723-34.402,31.335c-19.71,15.509-39.068,35.734-63.072,43.732
		c-8.454,2.817-17.072,4.874-25.978,5.63c-2.841,0.241-5.665,0.679-8.502,0.976c-1.103,0.115-2.22,0.107-3.331,0.123
		c-2.062,0.031-4.125-0.071-6.18,0.262c-0.774,0.125-1.587,0.065-2.378,0.019c-4.75-0.274-9.535-0.181-14.201-1.345
		c-0.306-0.076-0.628-0.093-0.944-0.124c-7.299-0.72-14.327-2.638-21.32-4.748c-11.089-3.345-22.028-7.136-32.876-11.176
		c-6.538-2.435-12.927-5.266-19.394-7.892c-7.063-2.867-13.934-6.16-20.745-9.563c-7.382-3.688-14.761-7.385-21.979-11.396
		c-8.06-4.479-15.841-9.389-23.259-14.864c-2.426-1.79-4.771-3.693-7.107-5.599c-6.395-5.219-12.951-10.244-19.106-15.753
		c-2.01-1.799-4.023-3.6-5.967-5.47c-3.889-3.742-7.932-7.327-11.457-11.438c-6.91-8.057-12.144-17.045-15.208-27.24
		c-1.187-3.948-2.313-7.908-2.982-11.998c-0.31-1.898-0.23-3.805-0.505-5.678c-0.421-2.862-0.263-5.704-0.088-8.555
		c0.4-6.53,1.793-12.865,3.812-19.073c2.525-7.763,6.426-14.816,10.924-21.593c5.241-7.896,11.786-14.54,19.184-20.375
		c6.135-4.839,12.856-8.743,19.93-12.042c8.498-3.964,17.201-7.369,26.181-10.116c7.738-2.367,15.459-4.783,23.244-6.99
		c8.707-2.468,17.586-4.188,26.421-6.094c7.131-1.538,14.315-2.796,21.513-3.981c7.352-1.21,14.702-2.414,22.089-3.4
		c4.713-0.629,9.416-1.351,14.109-2.118c8.291-1.355,16.57-2.789,24.858-4.165c12.203-2.026,24.326-4.446,36.416-7.069
		c10.074-2.186,68.024-14.773,77.172-16.728c17.072-3.649,33.94-8.112,50.703-12.956c9.753-2.818,19.411-5.966,29.104-8.991
		c2.877-0.898,5.708-1.945,8.594-2.812c6.699-2.012,13.195-4.57,19.642-7.254c9.388-3.909,18.975-7.236,28.759-10.003
		c4.585-1.297,9.251-2.228,13.946-3.002c2.5-0.412,5.042-0.567,7.557-0.891c4.093-0.527,8.229-0.475,12.326-0.966
		c1.254-0.15,2.538-0.056,3.809-0.072c1.112-0.014,2.245,0.109,3.331-0.063c2.85-0.452,5.703-0.253,8.558-0.242
		c3.331,0.013,6.664,0.395,9.993-0.04c5.07,0.247,10.161,0.196,15.186,1.104c1.246,0.225,2.522,0.285,3.786,0.413
		c4.576,0.464,9.201,0.543,13.686,1.727c0.152,0.04,0.314,0.045,0.472,0.062c4.738,0.524,9.364,1.632,14.025,2.582
		c10.286,2.097,20.245,5.266,30.113,8.773c7.329,2.605,14.525,5.536,21.607,8.746c1.878,0.852,3.693,1.846,5.573,2.694
		c7.375,3.327,35.573,15.66,42.242,18.622c7.693,3.417,15.593,6.303,23.507,9.132c6.268,2.241,12.599,4.318,18.924,6.407
		c6.928,2.288,13.891,4.45,20.898,6.471c9.291,2.679,18.62,5.223,28.011,7.541c5.539,1.367,11.031,2.93,16.574,4.279
		c4.62,1.125,9.284,2.065,13.928,3.09c3.25,0.717,6.487,1.496,9.751,2.144c3.421,0.679,6.87,1.218,10.301,1.85
		c3.585,0.66,12.615,2.399,13.557,2.53c1.729,0.241,3.462,0.417,5.148,0.934c0.901,0.276,1.871,0.34,2.815,0.467
		c1.887,0.254,3.785,0.411,5.623,0.98c0.751,0.232,1.557,0.298,2.344,0.399c2.203,0.283,4.411,0.496,6.565,1.12
		c1.056,0.306,2.2,0.292,3.297,0.468c1.565,0.251,3.123,0.54,4.684,0.819c0.312,0.056,0.617,0.178,0.93,0.201
		c4.442,0.32,8.761,1.477,13.183,1.931c2.052,0.211,4.104,0.395,6.106,0.977c0.905,0.263,1.879,0.299,2.824,0.41
		c2.679,0.314,5.37,0.5,7.995,1.221c1.06,0.291,2.2,0.298,3.304,0.427c1.891,0.221,3.791,0.36,5.635,0.912
		c0.753,0.225,1.559,0.29,2.347,0.383c2.994,0.354,6.004,0.571,8.934,1.373c0.909,0.249,1.887,0.248,2.833,0.361
		c1.891,0.225,3.785,0.389,5.631,0.931c0.905,0.266,1.874,0.33,2.818,0.447c2.048,0.253,4.099,0.441,6.096,1.037
		c0.902,0.269,1.879,0.297,2.824,0.414c2.205,0.273,4.431,0.414,6.561,1.124c0.298,0.099,0.622,0.13,0.936,0.172
		c5.032,0.675,10.004,1.682,14.982,2.667c2.487,0.492,4.986,0.937,7.478,1.396c9.834,1.811,19.539,4.177,29.169,6.808
		c14.412,3.938,28.419,9.044,41.775,15.791c8.537,4.313,16.502,9.549,23.572,16.012c5.168,4.725,9.829,9.917,13.213,16.153
		c2.456,4.525,3.986,9.285,4.637,14.396c0.63,4.944,0.29,9.76-0.674,14.646c-1.401,7.106-4.113,13.631-7.648,19.891
		c-3.843,6.805-8.394,13.088-13.595,18.909c-0.423,0.473-0.865,0.931-1.314,1.38c-6.991,6.968-14.504,13.291-22.696,18.828
		c-8.844,5.977-18.148,11.068-27.93,15.325c-12.231,5.323-24.594,10.301-37.195,14.682c-9.292,3.23-18.6,6.417-27.862,9.731
		c-13.747,4.919-27.628,9.438-41.519,13.922c-10.117,3.266-20.352,6.141-30.68,8.669c-20.555,5.03-36.831,14.269-59.026,12.069
		c-19.941-1.976-39.342-9.904-55.501-21.656C812.579,742.258,807.091,737.593,801.91,732.608z"/>
	<g>
		<path fill="#B16628" d="M669.62,485.51c-0.31,3.42-0.629,7.218-1.013,11.01c-0.127,1.258-0.42,2.499-0.644,3.746
			c-0.14,0.781-0.329,1.554-0.432,2.339c-0.75,5.67-2.111,11.211-3.495,16.749c-1.192,4.767-2.4,9.527-3.754,14.252
			c-1.749,6.101-3.898,12.067-5.931,18.074c-2.392,7.065-5.179,13.978-7.835,20.943c-4.18,10.965-8.077,22.033-11.6,33.229
			c-2.903,9.227-5.96,18.403-9.342,27.467c-0.942,2.525-1.895,5.047-2.796,7.587c-2.23,6.293-4.991,12.356-7.987,18.31
			c-2.068,4.11-4.261,8.158-6.44,12.211c-1.586,2.95-3.659,5.569-5.763,8.156c-1.21,1.488-2.609,2.773-4.408,3.556
			c-1.222,0.532-2.475,0.592-3.719,0.197c-0.587-0.187-1.17-0.515-1.642-0.913c-1.354-1.142-2.378-2.569-3.085-4.184
			c-0.891-2.034-1.773-4.079-2.512-6.171c-1.479-4.188-2.851-8.413-4.28-12.619c-3.266-9.615-6.332-19.294-9.256-29.017
			c-1.644-5.468-3.21-10.961-4.693-16.475c-2.802-10.415-5.69-20.81-8.228-31.29c-3.399-14.031-7.25-27.94-10.844-41.917
			c-2.725-10.596-4.978-21.309-6.831-32.094c-0.885-5.152-1.459-10.358-2.017-15.56c-0.034-0.315-0.062-0.633-0.063-0.95
			c-0.015-7.932-0.472-15.875,0.396-23.789c0.502-4.577,1.381-9.102,2.651-13.521c1.978-6.88,4.607-13.499,8.348-19.653
			c3.586-5.9,8.015-11.039,13.425-15.317c3.628-2.869,7.653-5.107,11.799-7.125c7.368-3.585,15.175-5.493,23.328-6.131
			c2.849-0.223,5.682-0.448,8.549-0.315c6.384,0.296,12.567,1.535,18.647,3.481c4.71,1.507,9.202,3.431,13.46,5.948
			c3.863,2.283,7.265,5.14,10.342,8.352c1.746,1.822,3.216,3.934,4.65,6.025c3.976,5.8,7.022,12.065,8.959,18.838
			c1.396,4.88,2.714,9.78,3.412,14.825c0.522,3.772,0.986,7.547,0.913,11.363C669.825,478.461,669.718,481.795,669.62,485.51z"/>
		<path fill="#50586F" d="M951.293,597.679c-0.053,0.951-0.149,1.902-0.153,2.854c-0.026,5.836-1.806,11.229-4.102,16.5
			c-2.261,5.188-5.529,9.655-9.917,13.199c-6.633,5.358-14.059,9.158-22.475,10.923c-3.122,0.655-6.288,0.785-9.436,1.139
			c-0.313,0.035-0.636,0.01-0.952-0.018c-6.727-0.594-13.09-2.145-18.673-6.281c-4.669-3.459-8.549-7.569-11.518-12.535
			c-2.7-4.516-4.916-9.241-5.933-14.461c-1.103-5.662-1.367-11.275-0.012-16.975c0.924-3.888,2.152-7.62,3.885-11.203
			c1.742-3.601,3.964-6.872,6.805-9.698c3.271-3.253,6.642-6.389,10.742-8.607c5.916-3.201,12.147-5.306,18.884-6.1
			c7.17-0.845,13.881,0.429,20.37,3.366c0.867,0.393,1.738,0.781,2.585,1.215c7.125,3.645,12.622,8.999,16.599,15.92
			c2.005,3.489,3.036,7.323,3.644,11.26c0.215,1.396,0.088,2.852,0.044,4.278c-0.054,1.745-0.185,3.487-0.283,5.231
			C951.362,597.682,951.328,597.681,951.293,597.679z"/>
		<path fill="#50586F" d="M306.437,543.928c0.95,0.066,1.902,0.095,2.852,0.162c1.772,0.126,3.415,0.703,4.98,1.503
			c1.144,0.585,2.185,1.314,2.75,2.533c0.341,0.735,0.775,1.382,1.475,1.818c6.66,4.157,10.533,10.42,13.143,17.585
			c2.028,5.568,3.085,11.321,2.622,17.273c-0.259,3.331-0.993,6.585-2.114,9.73c-2.539,7.121-6.474,13.42-11.556,18.986
			c-3.836,4.201-8.602,7.026-14.019,8.657c-4.848,1.46-9.699,1.232-14.49-0.475c-6.808-2.426-12.164-6.712-16.361-12.536
			c-3.58-4.968-5.994-10.453-7.2-16.445c-1.168-5.808-1.344-11.586,0.098-17.439c1.468-5.957,3.867-11.406,7.594-16.25
			c3.828-4.975,8.536-8.981,14.12-11.841C295.362,544.612,300.753,543.533,306.437,543.928z"/>
		<path fill="#F49C38" d="M768.06,734.838c-0.23,5.21-1.501,10.25-3.524,15.13c-1.425,3.438-3.516,6.351-6.272,8.849
			c-5.678,5.147-12.396,8.172-19.765,9.939c-2.633,0.631-5.334,0.743-7.997,1.143c-0.157,0.024-0.317,0.038-0.475,0.034
			c-7.296-0.202-14.147-1.735-19.913-6.585c-2.085-1.754-3.897-3.722-5.217-6.121c-1.609-2.921-3.117-5.894-4.33-9.001
			c-1.281-3.282-2.029-6.674-1.796-10.23c0.031-0.475,0.053-0.952,0.053-1.428c-0.006-5.841,1.67-11.256,4.139-16.475
			c1.093-2.31,2.56-4.392,4.055-6.435c6.239-8.527,14.467-14.101,24.806-16.488c2.329-0.538,4.714-0.571,7.07-0.867
			c7.394,0.385,13.953,2.727,19.235,8.13c3.742,3.827,6.296,8.352,7.875,13.423C767.535,722.776,768.577,729.755,768.06,734.838z"/>
		<path fill="#F49C38" d="M512.587,723.046c-0.07,3.488-0.732,5.805-1.421,8.055c-1.303,4.258-3.12,8.322-6.014,11.792
			c-2.739,3.284-5.438,6.58-9.035,9.054c-3.731,2.565-7.814,4.207-12.159,5.222c-2.302,0.538-4.639,1.051-7.054,0.929
			c-0.943-0.048-1.896,0.119-2.845,0.178c-0.474,0.03-0.966,0.128-1.421,0.042c-4.19-0.793-8.473-1.044-12.496-2.743
			c-6.425-2.713-11.882-6.624-16.168-12.144c-2.597-3.345-4.091-7.119-4.489-11.333c-0.089-0.947-0.234-1.889-0.293-2.838
			c-0.039-0.629-0.045-1.276,0.06-1.894c1.137-6.676,3.58-12.787,7.823-18.135c1.594-2.009,3.386-3.789,5.544-5.163
			c1.485-0.945,2.798-2.07,4.062-3.281c3.73-3.573,8.062-6.124,13.029-7.584c1.368-0.402,2.699-0.946,4.08-1.287
			c7.236-1.787,14.137-0.889,20.732,2.6c3.542,1.874,6.768,4.202,9.485,7.096c4.559,4.856,7.54,10.549,8.159,17.311
			C512.326,720.654,512.519,722.383,512.587,723.046z"/>
	</g>
	<g>
		<path d="M55.759,639.189c-0.146-0.119-0.319-0.193-0.382-0.321c-2.328-4.725-3.925-9.693-4.899-14.862
			c-0.806-4.278-0.498-8.556,0.236-12.793c0.872-5.031,2.542-9.824,4.792-14.412c2.667-5.438,5.877-10.532,9.698-15.234
			c8.28-10.191,17.993-18.808,28.964-25.983c13.068-8.546,26.917-15.586,41.548-21.067c19.354-7.251,39.103-13.156,59.303-17.564
			c14.271-3.114,28.628-5.752,43.04-8.112c18.172-2.976,36.427-5.344,54.697-7.622c29.615-3.693,59.119-8.103,88.391-13.979
			c11.52-2.313,22.921-5.116,34.246-8.245c22.183-6.13,95.475-26.878,110.048-30.744c1.837-0.487,3.706-0.862,5.57-1.239
			c0.352-0.071,0.861-0.157,1.025,0.418c-1.338,0.935-2.931,1.195-4.437,1.636c-5.634,1.651-11.259,3.354-16.949,4.79
			c-15.086,3.807-30.028,8.112-44.883,12.722c-9.246,2.869-18.435,5.919-27.663,8.848c-14.071,4.467-28.188,8.789-42.53,12.312
			c-16.65,4.089-33.425,7.61-50.341,10.422c-16.441,2.733-32.951,4.988-49.487,7.072c-16.375,2.064-32.754,4.113-49.062,6.673
			c-21.487,3.374-42.88,7.221-64.001,12.479c-16.351,4.071-32.362,9.211-48.067,15.29c-16.67,6.453-32.226,15.007-46.75,25.409
			c-9.093,6.513-17.076,14.213-23.829,23.151c-3.169,4.193-5.843,8.681-7.996,13.49c-2.097,4.686-3.311,9.594-3.926,14.66
			c-0.406,3.339-0.118,6.655,0.601,9.936c0.749,3.418,1.861,6.728,2.947,10.047c0.244,0.746,0.425,1.518,0.56,2.291
			C56.246,638.803,55.921,639.011,55.759,639.189z"/>
		<path d="M679.57,452.72c0.314-0.027,0.654-0.157,0.916-0.065c4.342,1.519,8.706,2.982,12.917,4.853
			c10.313,4.582,20.944,8.322,31.684,11.741c16.185,5.152,32.497,9.875,49.002,13.9c6.321,1.542,12.689,2.893,19.046,4.284
			c6.822,1.492,32.32,6.722,38.245,7.853c4.054,0.774,18.44,3.284,21.581,3.748c5.026,0.743,49.745,6.495,56.19,7.399
			c9.904,1.389,19.818,2.733,29.646,4.598c10.448,1.983,20.892,4,31.249,6.42c22.587,5.278,44.883,11.556,66.564,19.858
			c13.796,5.283,27.287,11.271,40.305,18.279c17.471,9.404,33.161,21.178,46.888,35.523c5.623,5.876,10.436,12.382,14.536,19.4
			c1.279,2.189,2.456,4.46,3.435,6.796c3.254,7.767,5.999,15.714,7.997,23.905c0.186,0.764,0.404,1.529,0,2.421
			c-0.682-0.921-0.77-1.993-1.095-2.954c-1.477-4.357-2.85-8.75-4.349-13.1c-2.868-8.325-7.122-15.915-12.276-23.032
			c-7.326-10.116-16.156-18.753-25.978-26.396c-8.033-6.251-16.567-11.756-25.47-16.693c-10.43-5.783-21.265-10.694-32.29-15.213
			c-9.994-4.096-20.195-7.614-30.443-11.004c-12.664-4.189-25.5-7.77-38.444-10.992c-8.628-2.148-17.288-4.152-26.006-5.877
			c-8.718-1.724-17.424-3.522-26.222-4.837c-7.065-1.057-14.123-2.148-21.214-3.032c-5.828-0.726-49.254-6.545-54.272-7.331
			c-3.764-0.59-7.521-1.22-11.284-1.823c-6.741-1.079-13.442-2.371-20.13-3.737c-5.132-1.049-10.273-2.053-15.398-3.136
			c-17.704-3.742-35.377-7.615-52.793-12.571c-11.464-3.262-22.649-7.329-33.72-11.712c-8.116-3.213-16.167-6.584-24.014-10.43
			c-3.132-1.535-6.384-2.827-9.584-4.221c-1.309-0.57-2.646-1.081-3.932-1.699C680.358,453.603,679.775,453.353,679.57,452.72z"/>
		<path d="M656.411,526.394c0.762-0.181,1.524-0.362,2.054-0.487c1.387,0.446,2.15,1.234,2.741,2.204
			c1.157,1.898,2.335,3.784,3.432,5.716c1.106,1.948,2.381,3.716,4.107,5.194c2.422,2.073,4.442,4.54,6.3,7.122
			c2.411,3.351,4.788,6.727,7.111,10.139c2.144,3.15,4.216,6.349,6.286,9.548c6.298,9.733,12.891,19.265,19.478,28.803
			c9.385,13.588,18.449,27.39,27.111,41.455c4.664,7.572,9.237,15.194,13.564,22.964c4.172,7.493,8.602,14.832,13.314,22.001
			c2.18,3.317,4.287,6.682,6.425,10.026c6.433,10.06,13.61,19.538,21.913,28.144c1.543,1.599,3.007,3.275,4.493,4.929
			c3.505,3.902,7.233,7.584,11.083,11.141c1.631,1.507,3.333,2.943,5.059,4.342c4.717,3.824,9.855,6.953,15.541,9.126
			c3.112,1.19,12.361,4.483,13.979,5.039c-0.362,0.177-0.591,0.39-0.797,0.37c-0.787-0.074-1.59-0.143-2.346-0.358
			c-5.806-1.649-11.505-3.602-17.046-6.007c-4.39-1.906-8.48-4.328-12.369-7.096c-4.665-3.32-9.028-7.008-13.189-10.938
			c-11.718-11.07-21.94-23.368-30.503-37.04c-3.034-4.844-6.162-9.629-9.246-14.442c-3.771-5.885-7.257-11.939-10.678-18.031
			c-8.712-15.515-18.208-30.546-27.97-45.414c-0.868-1.321-1.802-2.599-2.633-3.792c-0.909-0.323-1.646-0.584-2.518-0.894
			c-4.017-5.185-8.239-10.344-12.059-15.811c-6.184-8.85-12.477-17.625-18.267-26.744c-3.489-5.495-7.001-10.976-10.534-16.443
			c-0.595-0.921-1.051-1.976-2.046-2.594c-0.143,0.244-0.462,0.557-0.398,0.715c0.535,1.315,1.051,2.651,1.74,3.887
			c3.091,5.547,6.14,11.121,9.386,16.576c6.088,10.233,21.859,36.321,23.512,39.216c5.509,9.651,11.008,19.308,16.485,28.977
			c0.853,1.506,1.894,2.92,2.366,4.631c0.168,0.608-0.072-0.23-0.409,0.51c-0.908-1.407-1.793-2.716-2.617-4.063
			c-4.391-7.178-37.094-59.381-41.826-67.095c-3.156-5.145-5.996-10.47-8.496-15.969c-0.657-1.445-1.307-2.894-1.893-4.369
			c-1.64-4.129-1.838-5.239-1.868-9.888c-1.77-2.997-6.592-11.206-7.115-12.186c-0.537-1.008-0.728-2.09-0.562-3.227
			L656.411,526.394z"/>
		<path d="M644.275,550.318c0.129,4.996-0.208,9.42-0.905,13.812c-0.622,3.918-1.383,7.813-2.064,11.722
			c-1.391,7.981-3.181,15.873-5.384,23.665c-2.072,7.329-4.135,14.665-6.426,21.928c-3.968,12.581-8.965,24.772-14.506,36.734
			c-9.741,21.028-42.409,87.743-48.482,100.321c-3.589,7.434-6.917,14.982-9.743,22.751c-2.673,7.35-4.44,14.902-5.361,22.652
			c-0.774,6.511-0.392,13.014,0.726,19.449c0.851,4.896,2.741,9.435,5.51,13.589c3.55,5.327,7.69,10.109,12.902,13.883
			c3.342,2.421,6.736,4.77,10.105,7.154c0.75,0.53,1.655,0.885,2.064,1.8c-0.424,0.392-0.925,0.285-1.341,0.09
			c-1.723-0.808-3.463-1.592-5.12-2.521c-4.72-2.646-9.225-5.663-13.335-9.152c-8.279-7.028-13.433-15.97-15.338-26.703
			c-0.499-2.812-0.749-5.654-0.783-8.525c-0.131-10.916,1.709-21.485,5.33-31.769c2.269-6.445,4.891-12.742,7.781-18.928
			c2.485-5.32,48.122-99.264,52.09-108.094c7.943-17.678,14.829-35.763,20.464-54.318c2.399-7.898,4.69-15.825,6.601-23.854
			c1.212-5.092,2.482-10.176,3.328-15.351C642.921,557.38,643.574,554.127,644.275,550.318z"/>
		<path d="M808.667,869.266c-0.339-2.299-0.686-4.486-0.978-6.68c-0.272-2.046-0.448-4.105-0.732-6.149
			c-0.415-2.99-1-5.951-1.799-8.863c-2.393-8.726-7.914-28.932-8.212-30.325c-0.044-0.207,0.226-0.48,0.352-0.725
			c0.717,0.69,0.97,1.618,1.314,2.504c2.359,6.071,4.458,12.232,6.344,18.465c1.333,4.407,2.625,8.826,3.926,13.243
			c1.488,5.049,2.547,10.165,2.401,15.47c-0.013,0.464,0.107,0.935,0.192,1.398c0.027,0.148,0.144,0.281,0.22,0.42
			c0.28,0.133,0.56,0.266,0.88,0.417c0.433-0.074,0.918-0.1,1.366-0.241c6.217-1.963,12.322-4.223,18.144-7.171
			c2.403-1.217,4.764-2.554,7.008-4.041c3.574-2.366,7.04-4.897,10.542-7.372c1.161-0.821,2.29-1.686,3.29-2.424
			c0.619-0.023,0.839,0.205,0.622,0.452c-0.52,0.591-1.086,1.155-1.699,1.648c-5.081,4.082-10.37,7.881-15.781,11.509
			c-2.644,1.773-5.472,3.218-8.371,4.53c-6.377,2.887-12.933,5.3-19.656,7.226c-10.075,2.885-20.223,5.459-30.539,7.389
			c-8.112,1.517-16.163,3.361-24.233,5.1c-6.991,1.507-14.051,2.579-21.141,3.48c-0.473,0.06-0.957,0.06-1.42,0.162
			c-4.67,1.033-9.451,1.119-14.181,1.629c-4.576,0.493-9.172,0.878-13.77,1.079c-6.184,0.271-12.368,0.609-18.572,0.34
			c-7.961-0.345-15.821-1.341-23.578-3.134c-6.342-1.466-12.685-2.934-18.992-4.54c-6.924-1.764-13.729-3.949-20.546-6.089
			c-3.785-1.189-7.598-2.297-11.421-3.358c-1.979-0.549-4.011-0.906-6.013-1.374c-0.337-0.079-0.466-0.399-0.356-0.765
			c0.033-0.112,0.199-0.248,0.316-0.26c1.098-0.115,4.856-0.447,5.649-0.521c1.958-3.046,1.849-6.834,4.004-9.724
			c0.12,0.217,0.344,0.431,0.319,0.61c-0.2,1.411-0.433,2.819-0.685,4.222c-0.224,1.249-0.524,2.487-0.709,3.741
			c-0.064,0.433,0.119,0.903,0.197,1.406c0.44,0.227,0.828,0.53,1.265,0.638c13.561,3.358,27.137,6.655,40.687,10.058
			c4.779,1.2,9.585,2.24,14.432,3.102c5.484,0.976,11.023,1.424,16.587,1.609c7.312,0.243,14.608-0.07,21.893-0.657
			c5.064-0.408,10.122-0.884,15.182-1.341c0.469-0.042,0.931-0.164,1.264-0.225c0.894-0.423,1.304-1.068,1.594-1.835
			c1.126-2.988,1.626-6.135,2.347-9.225c0.433-1.854,0.782-3.727,1.215-5.582c1.299-5.574,2.179-11.226,2.95-16.886
			c0.47-3.452,0.497-6.966,0.714-10.452c0.058-0.94,0.007-1.891,0.287-2.992c0.208,0.377,0.399,0.567,0.41,0.768
			c0.135,2.377,0.302,4.755,0.342,7.134c0.035,2.062-0.057,4.127-0.139,6.189c-0.152,3.808-0.452,7.614-0.483,11.423
			c-0.05,6.08-0.975,12.015-2.5,17.879c-0.158,0.606-0.22,1.238-0.304,1.861c-0.02,0.15,0.048,0.312,0.096,0.59
			c0.333,0.174,0.73,0.556,1.134,0.563c1.904,0.033,3.781-0.262,5.435-0.559c0.774-0.477,1.102-1.015,1.249-1.646
			c0.686-2.935,1.396-5.867,2.015-8.817c0.684-3.258,1.28-6.534,2.08-10.66c0.202,2.85,0.086,4.833-0.094,6.804
			c-0.187,2.053-0.461,4.101-0.761,6.141c-0.323,2.193-0.913,4.352-0.812,6.597c0.017,0.369,0.536,0.931,0.915,0.948
			c0.631,0.028,1.272,0.114,1.892,0.036c2.047-0.259,4.096-0.525,6.127-0.891c5.624-1.013,11.253-2.005,16.853-3.136
			c9.802-1.981,19.646-3.767,29.356-6.188c3.543-0.883,7.081-1.786,10.61-2.723C806.956,870.276,807.767,870.149,808.667,869.266z"
			/>
		<path d="M539.4,526.223c0.309,0.121,0.67,0.157,0.832,0.356c0.163,0.199,0.273,0.648,0.158,0.836
			c-0.659,1.079-1.322,2.169-2.116,3.149c-1.31,1.617-2.361,3.371-3.246,5.248c-2.24,4.747-4.945,9.226-7.797,13.628
			c-5.094,7.865-10.51,15.495-16.114,23.009c-6.358,8.524-12.423,17.267-18.603,25.924c-2.213,3.101-4.384,6.233-6.581,9.345
			c-3.846,5.448-7.541,10.995-10.987,16.708c-2.217,3.676-4.237,7.448-6.001,11.359c-0.515,1.142-1.073,2.266-1.577,3.327
			c-0.488,0.014-0.804,0.023-1.121,0.033c-1.019,0.58-1.492,1.613-2.081,2.541c-3.661,5.761-7.294,11.54-10.971,17.29
			c-4.534,7.091-9.3,14.021-14.354,20.755c-5.731,7.638-11.929,14.847-18.949,21.339c-5.246,4.851-10.426,9.771-15.675,14.619
			c-2.211,2.042-4.523,3.974-6.891,5.779c-0.611-0.468-0.668-0.698-0.323-1.042c1.013-1.007,13.528-13.189,18.775-18.271
			c5.491-5.319,10.466-11.089,14.787-17.39c5.835-8.509,11.693-17.008,17.297-25.67c14.057-21.727,27.64-43.747,40.518-66.198
			c3.238-5.645,6.571-11.237,9.976-16.782c6.162-10.035,13.089-19.508,21.131-28.137c3.68-3.949,7.343-7.914,11.059-11.829
			c2.733-2.88,5.503-5.722,7.861-8.931C538.684,526.841,539.073,526.546,539.4,526.223z"/>
		<path d="M1070.585,694.352c-1.248-1.429-3.232-1.988-4.359-3.584c-0.077-0.109-0.063-0.282-0.121-0.574
			c2.958,0.236,5.314,1.937,7.601,2.96c0.471-0.021,0.648,0.018,0.78-0.042c6.507-2.955,12.645-6.625,19.032-9.813
			c0.556-0.277,1.056-0.666,1.532-0.971c-0.055-0.437-0.093-0.733-0.13-1.028c-9.28-5.394-10.279-6.133-12.386-9.166
			c0.136-0.058,0.311-0.201,0.401-0.16c1.581,0.732,3.17,1.448,4.72,2.242c3.809,1.95,7.599,3.937,11.435,5.929
			c2.097-0.4,3.834-1.564,5.689-2.423c1.728-0.8,3.422-1.674,5.126-2.526c1.846-0.923,3.697-1.836,5.525-2.794
			c1.828-0.958,3.648-1.933,5.438-2.959c1.652-0.947,3.276-1.947,4.882-2.971c1.73-1.103,3.426-2.26,5.167-3.414
			c0.242,0.746,0.737-0.013,0.332,0.477c-0.402,0.486-0.759,1.021-1.22,1.443c-3.404,3.116-7.04,5.941-10.925,8.429
			c-2.807,1.797-5.637,3.569-8.54,5.203c-7.055,3.973-47.491,25.989-60.52,33.267c-13.999,7.82-28.081,15.497-42.51,22.504
			c-17.44,8.469-35.306,15.915-53.779,21.852c-9.229,2.966-18.591,5.392-28.166,6.97c-7.224,1.191-14.464,1.916-21.803,1.529
			c-4.597-0.242-9.206-0.25-13.808-0.403c-3.967-0.132-7.927-0.344-11.873-0.844c-4.251-0.538-8.521-0.92-13.212-1.415
			c1.071-0.1-0.059,0.244,0.409-0.185c0.095-0.087,0.304-0.065,0.461-0.069c3.809-0.093,7.618-0.192,11.428-0.268
			c1.111-0.022,2.224-0.008,3.334,0.039c7.459,0.315,14.922,0.29,22.384,0.2c8.28-0.1,16.452-1.144,24.536-2.948
			c14.437-3.221,28.526-7.578,42.326-12.882c17.357-6.671,34.271-14.315,50.688-23.057c11.912-6.343,23.808-12.713,35.541-19.385
			c4.554-2.589,9.156-5.093,13.736-7.638C1070.324,695.552,1070.709,695.1,1070.585,694.352z"/>
		<path d="M628.05,413.252c-1.737-0.245-3.459-0.489-5.205-0.735c-0.98-0.485-1.971-0.976-2.573-1.274
			c-4.523-0.484-8.624-0.908-12.72-1.366c-2.852-0.319-5.707-0.179-8.558-0.074c-0.773,0.028-1.547,0.305-2.302,0.532
			c-3.186,0.96-6.357,1.969-9.55,2.903c-0.907,0.265-1.87,0.335-2.96,0.52c-2.592,1.594-5.504,2.838-8.407,4.12
			c-3.043,1.344-6.03,2.822-8.638,4.965c-0.972,0.799-2.126,1.381-3.21,2.041c-5.723,3.482-10.938,7.604-15.674,12.341
			c-4.106,4.107-7.177,8.838-9.028,14.373c-1.812,5.42-3.327,10.92-4.766,16.445c-0.064,0.245-0.271,0.452-0.57,0.93
			c0.002-0.887-0.059-1.517,0.017-2.129c0.176-1.415,0.351-2.836,0.646-4.23c1.148-5.436,2.675-10.77,4.333-16.072
			c1.737-5.551,4.487-10.481,8.596-14.626c0.445-0.449,0.844-0.944,1.231-1.379c0.21-0.494,0.451-0.916,0.571-1.37
			c0.543-2.063,1.717-3.746,3.185-5.225c5.103-5.143,10.932-9.149,17.913-11.342c1.357-0.426,2.664-1.008,4.01-1.473
			c0.895-0.309,1.804-0.613,2.732-0.786c4.213-0.785,8.444-1.435,12.522-1.376c0.521-0.186,0.854-0.239,1.111-0.406
			c3.047-1.981,6.432-2.526,9.995-2.544c6.586-0.033,12.943,1.099,18.964,3.486c0.427-0.028,0.786,0.046,1.04-0.084
			c2.393-1.228,4.898-1.199,7.434-0.677c2.486,0.511,4.962,1.076,7.435,1.65c0.77,0.179,1.565,0.364,2.264,0.715
			c2.834,1.424,5.713,2.781,8.429,4.408c4.561,2.732,8.092,6.608,11.254,10.825c1.056,1.408,1.77,3.002,2.226,4.707
			c0.287,1.072,0.581,2.142,0.92,3.39c1.017,1.029,2.13,2.152,3.239,3.279c3.017,3.069,5.67,6.411,7.813,10.161
			c2.719,4.756,4.196,9.916,5.109,15.264c0.588,3.445,0.949,6.914,0.854,10.421c-0.052,1.903-0.001,3.809-0.018,5.713
			c-0.051,5.562-0.665,11.063-1.861,17.042c-0.164-0.933-0.306-1.342-0.296-1.747c0.047-2.062,0.089-4.127,0.215-6.185
			c0.322-5.236,0.225-10.473,0.009-15.705c-0.164-3.97-0.812-7.879-1.86-11.724c-1.014-3.719-2.604-7.15-4.856-10.271
			c-3.445-4.776-7.181-9.319-11.689-13.126c-5.939-5.016-12-9.89-18.021-14.809c-1.228-1.003-2.557-1.886-3.765-2.912
			C633.175,417.782,630.813,415.67,628.05,413.252z M648.552,423.16c-1.372-1.857-3.101-3.139-5.163-4.018
			c-0.583-0.248,0.248,0.166-0.379,0.27c1.848,2.127,2.94,3.004,5.022,4.034C648.601,423.728,647.811,423.342,648.552,423.16z"/>
		<path d="M337.979,756.15c-0.072,0.093-0.129,0.25-0.217,0.27c-1.08,0.243-2.155,0.533-3.25,0.68
			c-4.242,0.57-8.438,1.436-12.713,1.816c-4.748,0.422-9.505,0.702-14.258,0.642c-5.551-0.07-11.103-0.409-16.646-0.776
			c-7.144-0.473-14.178-1.772-21.116-3.473c-12.805-3.139-25.318-7.231-37.615-11.985c-7.112-2.75-14.032-5.932-20.814-9.405
			c-16.81-8.609-33.841-16.765-50.878-24.908c-4.576-2.187-9.29-4.105-14.017-5.95c-8.138-3.177-16.047-6.858-23.941-10.578
			c-3.588-1.691-7.148-3.443-10.716-5.177c-0.712-0.346-1.396-0.752-2.295-0.67c-1,0.162-1.268,1.305-2.094,1.746
			c-0.194,0.104-0.535-0.067-0.914-0.129c-0.07-1.064-0.142-2.151-0.206-3.106c-0.309-0.363-0.465-0.681-0.72-0.824
			c-1.381-0.774-2.777-1.524-4.187-2.246c-5.229-2.675-10.44-5.381-15.301-8.7c-0.78-0.533-1.524-1.118-2.224-1.635
			c0.047-0.442,0.3-0.652,0.629-0.487c1.413,0.71,2.813,1.451,4.19,2.23c5.537,3.134,11.343,5.686,17.246,8.032
			c0.287,0.114,0.618,0.117,1.02,0.188c0.339-0.208,0.867-0.361,1.113-0.712c1.847-2.631,4.264-4.694,6.655-6.781
			c5.877-5.131,12.184-9.666,18.956-13.542c0.483-0.277,0.941-0.825,1.633-0.556c-0.145,0.686-0.742,0.958-1.204,1.341
			c-4.519,3.753-9.088,7.446-13.547,11.267c-2.528,2.166-4.912,4.504-7.288,6.838c-0.778,0.764-1.342,1.751-1.973,2.657
			c-0.301,0.432,0.027,1.392,0.518,1.651c0.281,0.148,0.556,0.309,0.847,0.434c4.812,2.064,9.718,3.876,14.44,5.477
			c1.122-0.056,1.714-0.541,2.235-1.177c2.219-2.707,4.694-5.17,7.278-7.524c0.459-0.418,0.871-0.943,1.561-1.021
			c0.387,0.11,0.527,0.374,0.275,0.669c-0.821,0.962-1.661,1.909-2.526,2.831c-1.629,1.736-3.294,3.439-4.914,5.184
			c-0.419,0.452-0.727,1.007-1.018,1.42c0.168,0.843,0.616,1.268,1.217,1.535c4.204,1.869,8.399,3.762,12.625,5.579
			c2.623,1.128,5.29,2.153,7.949,3.196c4.878,1.914,9.656,4.043,14.358,6.359c6.69,3.296,13.4,6.551,20.133,9.759
			c10.173,4.848,20.19,10.004,30.248,15.081c17.189,8.677,35.085,15.561,53.608,20.811c5.808,1.646,11.711,2.806,17.687,3.708
			c5.665,0.854,11.344,1.334,17.053,1.632c7.326,0.382,21.884-0.219,29.885-1.727c0.925-0.174,1.89-0.141,2.838-0.177
			C337.713,755.913,337.847,756.069,337.979,756.15z"/>
		<path d="M370.962,857.237c0.16,0.974,0.561,1.474,1.078,1.85c2.437,1.773,4.831,3.614,7.352,5.26
			c4.528,2.957,9.365,5.346,14.354,7.432c6.594,2.757,13.345,5.078,20.146,7.255c6.043,1.934,12.111,3.793,18.191,5.61
			c7.455,2.227,15.058,3.871,22.668,5.452c4.033,0.838,8.157,1.236,12.196,2.047c9.078,1.823,18.287,1.964,27.48,2.375
			c1.426,0.064,2.85,0.184,4.273,0.296c0.12,0.009,0.228,0.165,0.406,0.302c-1.471,0.283-2.897,0.158-4.311,0.085
			c-6.817-0.353-13.635-0.702-20.447-1.143c-2.37-0.153-4.724-0.563-7.084-0.864c-1.102-0.141-2.196-0.356-3.302-0.448
			c-7.458-0.615-14.715-2.377-22.034-3.799c-11.56-2.246-22.678-6.037-33.879-9.545c-5.755-1.802-11.462-3.74-17.018-6.102
			c-5.122-2.177-10.076-4.672-14.796-7.624c-7.042-4.405-13.401-9.63-18.888-15.881c-1.989-2.266-3.94-4.568-5.831-6.916
			c-3.001-3.726-5.439-7.813-7.489-12.13c-1.365-2.874-2.465-5.841-3.189-8.951c-1.811-7.776-2.664-15.622-2.127-23.616
			c0.376-5.597,1.533-10.993,3.69-16.167c0.915-2.195,1.827-4.401,2.904-6.518c3.676-7.221,7.853-14.152,12.348-20.891
			c0.615-0.921,1.315-1.793,2.041-2.631c0.414-0.478,0.966-0.83,1.686-0.766c0.33,0.151,0.469,0.459,0.218,0.767
			c-2.017,2.476-3.533,5.246-5.028,8.058c-2.683,5.046-5.345,10.096-7.695,15.309c-2.03,4.503-3.681,9.13-4.612,13.982
			c-1.261,6.58-1.665,13.215-1.06,19.903c0.315,3.484,0.893,6.92,1.615,10.34c0.693,3.281,1.731,6.439,3.224,9.435
			c4.496,9.024,10.267,17.142,17.39,24.286c0.668,0.67,1.422,1.261,2.179,1.832c0.207,0.156,0.571,0.105,0.867,0.15
			c0.655-0.567,0.685-1.404,0.901-2.152c0.882-3.056,2.001-6.024,3.335-8.908c1.999-4.321,25.605-55.111,30.001-64.265
			c1.442-3.004,2.915-5.993,4.377-8.987c0.347-0.711,0.681-1.434,1.347-1.96c0.109,0.246,0.34,0.509,0.294,0.71
			c-0.14,0.611-0.345,1.216-0.597,1.791c-3.637,8.28-7.292,16.552-10.929,24.832c-3.255,7.409-6.46,14.838-9.414,22.376
			c-1.331,3.396-2.853,6.717-4.305,10.065c-1.137,2.62-10.014,22.289-11.492,25.626
			C371.552,855.402,371.241,856.463,370.962,857.237z"/>
		<path d="M1010.243,550.022c-1.085-0.22-2.202-0.339-3.25-0.676c-8.005-2.571-16.132-4.703-24.286-6.729
			c-6.31-1.568-12.623-3.14-18.979-4.503c-5.892-1.264-11.839-2.277-17.771-3.354c-4.215-0.766-19.877-3.322-23.492-3.821
			c-5.502-0.76-67.055-8.643-71.27-9.403c-5.777-1.04-11.519-2.273-17.292-3.339c-7.025-1.297-13.984-2.897-20.931-4.543
			c-17.296-4.099-34.404-8.91-51.446-13.945c-7.758-2.292-15.418-4.916-23.127-7.377c-6.2-1.979-12.298-4.24-18.379-6.554
			c-9.49-3.611-18.993-7.188-28.497-10.763c-1.185-0.446-2.385-0.84-3.462-1.64c0.793-0.533,1.54-0.213,2.23-0.055
			c3.402,0.78,6.767,1.7,10.123,2.666c18.454,5.312,36.651,11.44,54.944,17.263c9.524,3.031,19.116,5.853,28.711,8.654
			c9.442,2.756,18.91,5.427,28.399,8.02c8.112,2.216,16.297,4.151,24.546,5.802c5.601,1.121,11.182,2.34,16.793,3.407
			c4.052,0.77,8.133,1.391,12.21,2.025c5.331,0.829,51.685,7.379,52.316,7.452c6.308,0.738,12.57,1.765,18.812,2.933
			c5.926,1.109,11.88,2.083,17.777,3.332c7.293,1.544,14.567,3.196,21.796,5.011c8.457,2.123,16.891,4.354,25.215,6.967
			c2.569,0.806,5.115,1.687,7.658,2.575c0.237,0.083,0.369,0.462,0.55,0.704L1010.243,550.022z"/>
		<path d="M234.969,532.867c3.098-0.965,6.259-1.207,9.367-1.608c8.022-1.035,46.191-5.239,57.201-6.696
			c7.233-0.957,14.422-2.262,21.611-3.526c13.286-2.335,26.565-4.71,39.833-7.148c25.318-4.652,50.259-10.815,74.848-18.462
			c19.26-5.99,38.313-12.557,57.208-19.597c5.654-2.106,11.358-4.074,17.175-5.684c2.445-0.677,4.928-1.219,7.406-1.77
			c0.579-0.129,1.237-0.213,1.811,0.35c-0.407,0.272-0.762,0.61-1.186,0.777c-15.804,6.224-31.422,12.917-47.356,18.813
			c-21.168,7.833-42.771,14.217-64.776,19.235c-11.296,2.576-22.592,5.165-34.018,7.115c-9.543,1.629-54.69,8.749-67.723,10.652
			c-6.122,0.894-12.28,1.543-18.43,2.236c-7.095,0.799-30.449,3.245-35.029,3.69c-4.895,0.475-9.77,1.094-14.632,1.829
			C237.21,533.234,236.099,533.591,234.969,532.867z"/>
		<path d="M792.877,299.779c-0.186,1.016-0.862,1.663-1.695,2.174c-3.116,1.91-6.33,3.636-9.66,5.144
			c-6.962,3.153-14.172,5.563-21.621,7.273c-9.13,2.096-18.36,3.644-27.596,5.179c-4.536,0.754-9.078,1.553-13.545,2.631
			c-16.308,3.933-30.996,11.162-43.899,21.942c-6.346,5.302-12.346,10.95-17.755,17.223c-4.045,4.69-8.044,9.411-11.767,14.363
			c-3.636,4.838-6.82,9.94-9.351,15.446c-1.458,3.171-2.966,6.32-4.492,9.46c-0.243,0.5-0.44,1.156-1.291,1.228
			c-0.019-0.466-0.151-0.953-0.036-1.372c0.462-1.68,0.859-3.398,1.537-4.993c1.739-4.086,3.535-8.153,5.47-12.149
			c1.033-2.133,2.297-4.176,3.637-6.137c8.463-12.384,18.182-23.649,29.837-33.165c1.352-1.104,2.697-2.225,4.109-3.248
			c7.718-5.59,15.654-10.845,23.912-15.617c4.848-2.801,9.968-4.871,15.352-6.347c6.133-1.681,12.382-2.78,18.649-3.795
			c8.929-1.445,17.839-2.968,26.652-5.038c9.64-2.264,18.835-5.647,27.471-10.516c0.965-0.544,1.96-1.041,2.967-1.502
			c0.584-0.267,1.215-0.289,1.844-0.041C792.182,298.148,792.397,298.396,792.877,299.779z"/>
		<path d="M921.517,622.938c-0.53,0.324-1.006,0.703-1.546,0.93c-3.377,1.423-6.884,2.476-10.487,3.078
			c-3.8,0.635-7.616,0.289-11.341-0.638c-1.995-0.497-3.955-1.189-5.866-1.956c-7.566-3.036-13.004-8.364-16.59-15.637
			c-1.132-2.297-1.834-4.732-2.269-7.247c-2.868-16.615,6.639-28.835,17.512-33.713c7.937-3.561,16.181-4.351,24.69-2.812
			c2.204,0.399,4.273,1.229,6.253,2.25c5.459,2.814,10.032,6.665,13.517,11.754c1.798,2.626,3.339,5.4,4.679,8.286
			c1.215,2.616,2.027,5.369,2.247,8.232c0.419,5.446-0.893,10.397-4.702,14.49c-0.413,0.444-1.027,0.705-1.565,1.023
			c-0.081,0.048-0.288-0.021-0.375-0.101c-0.104-0.096-0.172-0.258-0.202-0.403c-0.032-0.151-0.054-0.343,0.012-0.469
			c0.369-0.699,0.718-1.417,1.162-2.068c2.739-4.016,3.487-11.869,1.081-16.963c-0.609-1.29-1.217-2.587-1.923-3.824
			c-1.658-2.904-3.643-5.585-5.806-8.13c-2.388-2.81-5.224-5.096-8.385-6.977c-4.351-2.59-9.093-3.648-14.128-3.517
			c-5.137,0.134-10.083,1.103-14.77,3.278c-6.838,3.172-11.512,8.347-14.06,15.395c-2.136,5.908-1.821,11.872,0.152,17.755
			c2.487,7.418,7.219,12.949,14.19,16.561c3.418,1.771,7.054,2.879,10.8,3.615c2.506,0.492,5.027,0.441,7.567-0.088
			c2.961-0.616,5.85-1.444,8.72-2.373C920.534,622.522,921.015,622.418,921.517,622.938z"/>
		<path d="M647.966,564.383c1.102,6.085,0.662,11.939,0.094,17.79c-0.184,1.896-0.467,3.784-0.635,5.681
			c-0.675,7.604-1.885,15.126-3.572,22.565c-2.035,8.977-4.197,17.922-6.764,26.77c-3.944,13.591-8.686,26.875-14.65,39.719
			c-4.078,8.782-8.045,17.615-12.061,26.425c-6.125,13.438-11.595,27.145-16.831,40.948c-1.177,3.103-2.226,6.26-3.713,9.339
			c-0.165-0.292-0.407-0.52-0.374-0.696c0.174-0.931,0.362-1.866,0.646-2.768c2.718-8.633,5.942-17.085,9.161-25.538
			c5.989-15.724,12.235-31.344,18.73-46.867c5.64-13.479,10.682-27.178,14.744-41.227c1.984-6.864,3.782-13.776,5.387-20.735
			c1.711-7.423,3.382-14.859,4.87-22.329c1.27-6.38,2.252-12.818,3.367-19.229c0.299-1.72,0.638-3.434,0.919-5.157
			C647.54,567.515,647.741,565.947,647.966,564.383z"/>
		<path d="M654.758,546.606c0.317,0.213,0.644,0.311,0.709,0.5c0.204,0.591,0.402,1.21,0.438,1.829
			c0.263,4.438,0.486,8.873,0.333,13.329c-0.257,7.463-0.647,14.916-1.218,22.361c-0.583,7.608-1.722,15.139-2.944,22.667
			c-1.758,10.834-4.57,21.418-7.326,32.02c-4.118,15.844-9.218,31.367-15.054,46.659c-3.227,8.456-5.86,17.118-8.542,25.76
			c-1.929,6.213-3.875,12.42-5.822,18.628c-0.092,0.294-0.273,0.559-0.42,0.854c-0.506-0.733-0.247-1.517-0.07-2.223
			c1.356-5.386,2.624-10.799,4.18-16.128c3.38-11.579,6.918-23.113,10.386-34.667c4.108-13.686,7.924-27.453,11.48-41.292
			c1.383-5.381,2.737-10.769,4.072-16.162c1.412-5.706,2.452-11.489,3.443-17.279c0.803-4.695,2.542-15.352,2.612-15.983
			c0.97-8.839,2.327-17.636,2.73-26.536c0.179-3.966,0.512-7.925,0.783-11.887C654.581,548.266,654.674,547.482,654.758,546.606z"/>
		<path d="M565.415,399.722c-1.927-1.394-2.592-2.657-3.367-3.801c-2.943-4.346-6.212-8.435-9.676-12.367
			c-1.677-1.904-3.385-3.791-5.199-5.563c-4.426-4.325-8.832-8.674-13.721-12.498c-3.008-2.353-6.17-4.441-9.476-6.355
			c-11.73-6.793-24.176-11.915-37.045-16.063c-6.19-1.995-12.39-3.963-18.624-5.813c-8.889-2.638-17.219-6.449-24.979-11.518
			c-1.86-1.215-3.756-2.374-5.612-3.595c-2.789-1.836-5.423-3.879-7.842-6.182c-0.562-0.536-0.986-1.226-1.429-1.876
			c-0.316-0.464-0.214-1.329,0.152-1.787c0.415-0.52,0.949-0.868,1.626-0.803c0.461,0.044,0.952,0.157,1.349,0.381
			c0.547,0.308,1.044,0.722,1.517,1.141c6.226,5.511,13.377,9.642,20.579,13.67c4.582,2.563,9.514,4.36,14.519,5.93
			c6.206,1.946,12.445,3.788,18.622,5.823c5.422,1.786,10.805,3.701,16.155,5.695c6.562,2.446,12.819,5.52,18.582,9.545
			c1.43,0.999,2.918,1.916,4.385,2.863c7.639,4.934,14.55,10.732,20.718,17.415c0.969,1.05,1.941,2.097,2.931,3.126
			c5.874,6.106,10.526,13.098,14.787,20.373C564.604,397.864,564.766,398.311,565.415,399.722z"/>
		<path d="M475.234,755.187c-0.385,0.443-0.606,0.936-0.958,1.06c-1.826,0.647-3.729,0.739-5.635,0.456
			c-1.097-0.163-2.212-0.337-3.257-0.689c-4.074-1.373-8.023-3.059-11.553-5.538c-6.561-4.607-9.848-11.07-10.18-18.996
			c-0.27-6.446,1.161-12.606,3.704-18.519c0.82-1.906,1.859-3.681,3.112-5.331c4.518-5.953,10.603-8.951,17.981-9.297
			c5.448-0.256,10.742,0.68,15.889,2.518c4.765,1.701,8.727,4.529,11.885,8.431c3.999,4.94,6.247,10.627,6.847,16.966
			c0.383,4.046-0.248,7.921-1.951,11.597c-0.86,1.857-1.613,3.798-3.039,5.303c-0.354-0.075-0.522-0.319-0.375-0.663
			c0.683-1.601,1.493-3.152,2.095-4.782c1.528-4.137,1.745-8.383,0.529-12.622c-1.942-6.773-5.867-12.257-11.268-16.711
			c-1.853-1.528-3.979-2.61-6.239-3.409c-4.382-1.55-8.901-2.341-13.551-2.231c-7.833,0.186-13.688,3.701-17.241,10.709
			c-3.077,6.069-4.424,12.572-3.887,19.367c0.361,4.57,2.167,8.614,5.461,11.86c1.348,1.328,2.85,2.538,4.424,3.589
			c3.043,2.031,6.326,3.647,9.746,4.944c1.325,0.502,2.757,0.719,4.136,1.079C472.969,754.554,474.105,754.573,475.234,755.187z"/>
		<path d="M571.29,688.475c-0.786-3.063-1.67-6.106-2.34-9.194c-2.018-9.303-4.498-18.484-7.294-27.576
			c-2.942-9.566-4.993-19.332-6.883-29.142c-1.771-9.19-2.952-18.469-4.134-27.746c-0.56-4.402-1.025-8.818-1.444-13.236
			c-0.374-3.944-0.709-7.896-0.911-11.852c-0.251-4.913-0.777-9.797-1.256-14.688c-0.154-1.573-0.838-3.077-0.584-4.694
			c0.022-0.139,0.141-0.362,0.233-0.371c0.271-0.028,0.644-0.071,0.808,0.077c0.339,0.308,0.671,0.699,0.824,1.122
			c0.486,1.337,0.984,2.682,1.301,4.064c0.531,2.316,1.038,4.648,1.356,7c0.979,7.226,1.944,14.455,2.771,21.699
			c2.088,18.28,4.657,36.475,8.737,54.438c1.474,6.489,2.61,13.055,3.897,19.586c1.471,7.464,2.958,14.925,4.394,22.396
			c0.418,2.176,0.7,4.379,1.007,6.576c0.064,0.456-0.039,0.935-0.066,1.404C571.569,688.384,571.43,688.429,571.29,688.475z"/>
		<path d="M689.372,481.979c0.885-0.53,1.823-0.254,2.701-0.082c4.358,0.852,8.711,1.716,12.957,3.067
			c10.128,3.224,20.211,6.573,30.193,10.23c12.064,4.42,24.142,8.81,36.458,12.497c8.357,2.502,16.689,5.101,25.185,7.106
			c4.785,1.129,40.467,8.589,42.064,8.889c-0.492,0.196-0.757,0.404-1.006,0.386c-2.214-0.162-4.439-0.27-6.635-0.577
			c-3.456-0.483-6.908-1.028-10.333-1.691c-8.565-1.658-17.127-3.333-25.664-5.125c-6.674-1.401-13.299-3.027-19.897-4.764
			c-11.508-3.03-22.968-6.217-34.151-10.317c-7.595-2.785-15.207-5.526-22.763-8.415c-8.594-3.286-17.188-6.565-25.936-9.426
			c-0.9-0.294-1.789-0.638-2.649-1.033C689.659,482.616,689.546,482.238,689.372,481.979z"/>
		<path d="M365.366,524.799c0.979-0.551,2.048-0.82,3.118-1.099c7.364-1.916,14.709-3.911,22.092-5.753
			c16.627-4.147,33.042-9.016,49.278-14.478c10.22-3.438,51.849-17.949,62.512-21.566c4.657-1.58,9.399-2.881,14.185-4.014
			c0.753-0.178,1.54-0.392,2.336,0.042c-0.166,0.216-0.277,0.514-0.475,0.593c-1.619,0.645-52.531,19.783-67.291,25.132
			c-3.576,1.296-7.205,2.465-10.858,3.522c-10.663,3.085-21.386,5.94-32.214,8.408c-10.974,2.501-38.745,9.052-41.692,9.666
			C366.01,525.324,365.493,525.395,365.366,524.799z"/>
		<path d="M581.742,654.617c1.132,0.6,1.962,1.039,2.717,1.439c0.861,1.52,1.211,3.05,1.293,4.649
			c0.033,0.633,0.051,1.274-0.011,1.902c-0.27,2.747,0.299,5.347,1.183,7.932c0.921,2.695,1.703,5.438,2.511,8.17
			c0.043,0.145-0.242,0.388-0.462,0.715c-0.594-1.047-1.177-1.987-1.675-2.969c-2.66-5.237-5.034-10.602-7.04-16.123
			c-2.003-5.515-3.967-11.044-5.942-16.569c-1.927-5.393-3.157-10.975-4.263-16.571c-2.798-14.155-5.465-28.336-7.47-42.632
			c-0.264-1.884-0.518-3.772-0.857-5.643c-0.734-4.049-1.338-8.13-2.83-11.699c0.238-0.766,0.466-0.862,0.725-0.566
			c1.492,1.704,2.345,3.773,3.073,5.857c1.044,2.99,1.954,6.032,2.808,9.083c1.97,7.034,3.183,14.23,4.47,21.41
			c1.79,9.988,3.518,19.989,5.837,29.873c1.413,6.02,2.868,12.032,4.692,17.945C580.871,652.029,581.285,653.225,581.742,654.617z"
			/>
		<path d="M527.603,553.528c-0.144,0.418-0.233,0.866-0.439,1.25c-2.027,3.776-3.957,7.611-6.136,11.299
			c-7.115,12.039-13.481,24.474-19.752,36.962c-2.779,5.534-5.573,11.06-8.387,16.576c-5.35,10.486-11.414,20.546-18.27,30.112
			c-5.55,7.744-11.23,15.396-16.878,23.07c-0.838,1.139-1.626,2.349-2.761,3.201c-0.382-0.203-0.529-0.488-0.348-0.794
			c0.401-0.678,0.839-1.337,1.305-1.974c5.251-7.181,10.217-14.557,15.052-22.022c3.889-6.005,7.389-12.228,10.587-18.626
			c3.975-7.953,7.956-15.904,11.991-23.827c1.512-2.97,3.096-5.91,4.792-8.778c6.789-11.481,13.592-22.955,20.483-34.375
			c2.213-3.667,4.709-7.162,7.09-10.726c0.349-0.523,0.78-0.992,1.172-1.486C527.271,553.436,527.437,553.482,527.603,553.528z"/>
		<path d="M755.506,737.143c0.255-2.087,0.363-3.185,0.527-4.274c0.31-2.052,0.239-4.11,0.228-6.174
			c-0.014-2.809-0.975-5.271-2.532-7.548c-1.832-2.679-4.238-4.74-7.094-6.208c-4.805-2.47-9.876-3.335-15.222-2.14
			c-1.562,0.349-3.054,0.886-4.44,1.664c-8.84,4.964-13.676,12.526-14.428,22.624c-0.262,3.52,0.469,6.947,1.679,10.259
			c1.186,3.245,3.206,5.81,6.215,7.56c1.78,1.034,3.567,2.058,5.323,3.131c0.148,0.091,0.123,0.516,0.112,0.783
			c-0.003,0.071-0.266,0.202-0.392,0.185c-2.375-0.331-4.614-1.121-6.787-2.096c-2.53-1.136-4.523-2.911-5.962-5.284
			c-0.492-0.812-0.99-1.639-1.338-2.518c-2.208-5.581-2.99-11.311-1.735-17.253c0.625-2.96,1.426-5.85,2.769-8.577
			c3.073-6.24,7.861-10.697,14.182-13.479c4.473-1.969,9.156-2.415,13.977-1.51c4.777,0.896,9.09,2.738,12.768,5.971
			c1.948,1.712,3.432,3.726,4.246,6.207c0.148,0.451,0.339,0.898,0.414,1.362c0.849,5.243,0.809,10.43-1.101,15.474
			C756.76,735.715,756.365,736.039,755.506,737.143z"/>
		<path d="M284.778,616.294c-4.496-0.278-8.199-2.305-11.439-5.275c-2.604-2.387-4.652-5.213-6.125-8.427
			c-3.299-7.203-5.034-14.711-4.159-22.673c0.888-8.082,3.749-15.424,8.846-21.765c3.727-4.637,8.424-8.163,13.795-10.754
			c3.338-1.61,6.897-2.478,10.57-2.605c5.266-0.181,10.02,1.33,13.974,4.96c0.108,0.099,0.143,0.278,0.212,0.419
			c-0.038,0.312-0.265,0.501-0.632,0.395c-1.522-0.441-3.03-0.929-4.55-1.377c-3.43-1.01-6.877-1.051-10.355-0.222
			c-12.974,3.094-21.564,11.032-25.819,23.599c-3.221,9.515-2.941,19.052,0.443,28.496c0.427,1.192,0.953,2.357,1.518,3.492
			c2.35,4.725,5.877,8.22,10.763,10.33c0.978,0.422,2.257,0.352,2.851,1.515L284.778,616.294z"/>
		<path d="M865.176,729.258c-2.965-1.068-5.396-2.564-7.699-4.244c-5.908-4.308-12.173-8.065-18.327-11.992
			c-3.078-1.964-6.157-3.925-9.25-5.866c-7.693-4.828-14.786-10.419-21.379-16.661c-4.28-4.052-8.092-8.519-11.714-13.147
			c-3.033-3.875-5.921-7.862-8.864-11.808c-0.18-0.241-0.268-0.551-0.398-0.829c0.559-0.303-0.214-0.705,0.299-0.33
			c0.255,0.186,0.574,0.298,0.795,0.514c0.796,0.775,1.593,1.553,2.335,2.379c6.804,7.576,14.468,14.266,21.864,21.23
			c6.144,5.785,12.852,10.852,20.007,15.331c3.633,2.274,7.234,4.599,10.864,6.878c5.667,3.559,10.802,7.815,15.843,12.179
			c1.791,1.55,3.316,3.409,4.931,5.157C864.791,728.38,864.949,728.851,865.176,729.258z"/>
		<path d="M476.64,744.936c0.315-0.485,0.595-1.046,0.994-1.503c1.045-1.195,2.165-2.325,3.213-3.518
			c1.802-2.05,3.078-4.4,4.089-6.938c2.534-6.364,0.129-14.104-4.735-18.214c-2.66-2.247-5.71-2.722-8.914-1.357
			c-3.308,1.409-6.045,3.543-7.473,6.972c-1.869,4.487-1.772,8.98,0.289,13.386c0.324,0.693,0.885,1.342,1.487,1.823
			c0.86,0.687,1.813,1.298,2.809,1.764c1.283,0.602,2.649,1.029,4.003,1.541c0.027,0.674-0.571,0.524-0.876,0.531
			c-5.096,0.112-8.829-2.274-11.382-6.526c-2.356-3.923-2.461-8.164-1.101-12.426c1.879-5.892,6.043-9.62,11.768-11.571
			c4.39-1.496,8.507-0.576,12.066,2.357c3.551,2.926,5.691,6.774,6.767,11.227c0.074,0.308,0.082,0.632,0.156,0.94
			c2.239,9.247-4.135,18.603-10.886,21.853C478.188,745.627,477.4,745.779,476.64,744.936z"/>
		<path d="M293.161,603.747c0.985-0.39,6.908-2.62,8.968-3.45c1.627-0.656,3.124-1.56,4.475-2.69
			c1.763-1.474,2.949-3.33,3.484-5.555c1.17-4.865,1.294-9.741-0.023-14.608c-0.166-0.612-0.34-1.223-0.542-1.824
			c-1.666-4.943-5.196-7.875-10.129-9.176c-4.736-1.249-9.081-0.377-13.099,2.492c-4.362,3.114-6.874,7.38-8.235,12.44
			c-0.969,3.6-0.873,7.225-0.228,10.864c0.107,0.605,0.125,1.227,0.149,1.843c0.003,0.088-0.189,0.254-0.294,0.257
			c-0.142,0.004-0.336-0.078-0.423-0.189c-0.811-1.034-1.089-2.278-1.292-3.531c-1.167-7.189,0.32-13.934,3.763-20.225
			c3.261-5.959,8.593-8.719,15.273-8.899c3.551-0.096,6.916,0.783,10.069,2.47c3.796,2.031,6.556,5.013,8.124,9.003
			c2.351,5.983,2.623,12.062,0.416,18.161c-1.706,4.714-4.805,8.16-9.442,10.171c-2.924,1.268-5.918,2.305-9.088,2.752
			C294.493,604.134,293.868,604.227,293.161,603.747z"/>
		<path d="M391.291,677.962c0.346,0.131,0.553,0.414,0.373,0.677c-0.441,0.647-0.898,1.308-1.463,1.844
			c-5.301,5.025-10.516,10.148-15.976,14.993c-4.993,4.431-10.486,8.241-16.257,11.615c-2.053,1.201-4.19,2.262-6.311,3.345
			c-5.001,2.556-10.308,4.095-15.886,4.732c-5.045,0.576-10.083,1.221-15.132,1.758c-1.728,0.184-3.481,0.146-5.222,0.175
			c-0.219,0.004-0.441-0.206-0.765-0.37c2.299-0.959,4.648-1.33,6.968-1.79c2.49-0.494,4.988-0.958,7.494-1.365
			c3.148-0.512,6.17-1.453,9.188-2.45c10.982-3.628,20.83-9.296,29.97-16.322c6.798-5.225,13.724-10.283,20.6-15.405
			C389.627,678.839,390.314,678.145,391.291,677.962z"/>
		<path d="M904.093,607.535c-0.395,0.19-0.666,0.443-0.885,0.404c-0.772-0.139-1.572-0.277-2.28-0.596
			c-2.618-1.182-5.001-2.763-7.172-4.632c-3.278-2.822-4.543-6.521-3.854-10.691c0.931-5.632,3.9-9.981,9.049-12.683
			c2.138-1.122,4.409-1.68,6.839-1.791c8.195-0.373,14.749,3.025,20.327,8.706c1.349,1.374,2.333,2.996,2.967,4.827
			c0.373,1.078,0.416,2.168,0.267,3.284c-0.095,0.707-0.634,1.416-1.084,1.394c-0.52-0.026-0.862-0.341-1.081-0.752
			c-2.465-4.613-6.088-8.058-10.606-10.627c-3.567-2.028-7.378-2.78-11.446-2.362c-3.53,0.362-6.3,2.081-8.412,4.836
			c-2.341,3.053-3.077,6.572-2.511,10.344c0.316,2.104,1.301,3.924,2.916,5.319c1.196,1.034,2.484,1.967,3.767,2.894
			C901.906,606.141,902.976,606.797,904.093,607.535z"/>
		<path d="M862.503,842.698c-0.279-1.273-0.324-2.499,0.141-3.744c0.33-0.883,0.593-1.82,0.697-2.754
			c0.44-3.951,1.414-7.801,2.24-11.67c0.915-4.285,0.839-8.476-0.06-12.725c-1.677-7.933-3.947-15.674-7.294-23.074
			c-1.114-2.464-2.051-4.983-2.623-7.628c-0.096-0.445-0.037-0.923-0.047-1.314c0.528-0.652,1.141-0.71,1.746-0.413
			c0.415,0.204,0.79,0.531,1.115,0.869c1.224,1.274,2.055,2.804,2.802,4.389c4.221,8.941,7.113,18.31,8.912,28.015
			c0.697,3.761,0.847,7.546-0.072,11.332c-0.635,2.616-0.982,5.303-1.658,7.906c-1.003,3.862-2.71,7.425-5.132,10.616
			C863.147,842.667,862.766,842.637,862.503,842.698z"/>
		<path d="M783.5,520.472c-2.337,0.566-4.496,0.15-6.663-0.286c-13.216-2.656-26.178-6.32-39.189-9.796
			c-9.192-2.456-18.24-5.345-27.146-8.701c-6.226-2.346-12.573-4.369-18.718-6.937c-0.582-0.243-1.162-0.509-1.698-0.838
			c-0.191-0.117-0.249-0.451-0.372-0.695c3.193-0.173,4.001-0.166,7.019,0.73c5.011,1.488,10.014,3.013,14.98,4.645
			c7.375,2.425,14.696,5.016,22.075,7.428c9.339,3.053,18.824,5.619,28.277,8.29C769.219,516.335,776.356,518.417,783.5,520.472z"/>
		<path d="M417.86,841.895c0.215-0.114,0.369-0.271,0.492-0.249c0.618,0.108,1.251,0.199,1.837,0.41
			c2.842,1.023,5.75,1.721,8.733,2.234c3.901,0.671,7.822,1.243,11.675,2.215c2.937,0.741,5.776,1.691,8.506,2.978
			c2.867,1.351,5.727,2.72,8.578,4.105c3.145,1.528,6.428,2.695,9.746,3.773c4.25,1.38,8.616,2.133,13.075,2.286
			c4.119,0.142,8.24,0.249,12.361,0.278c2.395,0.017,4.76,0.168,7.052,0.874c1.837,0.566,3.72,0.791,5.618,0.924
			c3.798,0.268,7.598,0.385,11.406,0.126c1.575-0.107,3.158-0.087,4.489-0.119c0.569,0.286,0.51,0.467,0.066,0.643
			c-2.235,0.885-4.589,1.303-6.96,1.388c-3.006,0.107-6.025,0.056-9.031-0.092c-2.535-0.124-5.043-0.541-7.403-1.584
			c-2.205-0.974-4.548-1.359-6.934-1.51c-3.475-0.22-6.949-0.676-10.423,0.104c-0.762,0.171-1.577,0.14-2.368,0.137
			c-5.566-0.023-11.098-0.451-16.503-1.842c-2.139-0.551-4.243-1.304-6.285-2.152c-2.338-0.971-4.64-2.058-6.869-3.26
			c-4.924-2.656-10.164-4.41-15.571-5.732c-1.693-0.414-3.395-0.802-5.072-1.277c-3.21-0.909-6.314-2.1-9.225-3.748
			C418.48,842.594,418.202,842.215,417.86,841.895z"/>
		<path d="M69.287,648.563c0.25-0.135,0.518-0.41,0.745-0.381c1.882,0.245,3.774,0.465,5.632,0.844
			c10.907,2.225,21.719,2.157,32.425-1.166c5.45-1.692,10.861-3.496,16.191-5.536c2.964-1.135,5.973-2.117,9.096-2.712
			c0.421-0.08,0.909-0.137,1.256,0.494c-0.904,0.6-1.78,1.285-2.745,1.802c-2.094,1.121-4.215,2.199-6.361,3.217
			c-2.864,1.358-5.793,2.579-8.64,3.97c-6.2,3.03-12.762,4.682-19.59,5.445c-3.003,0.336-6.001,0.433-9.018,0.319
			c-3.03-0.115-5.992-0.545-8.877-1.504c-3.011-1.001-5.969-2.131-8.831-3.502C70.011,649.585,69.424,649.282,69.287,648.563z"/>
		<path d="M550.641,636.969c0.365,0.936,0.774,1.798,1.043,2.702c2.846,9.579,5.458,19.217,7.292,29.05
			c0.552,2.962,0.999,5.935,1.238,8.946c0.627,7.903,2.101,25.758,2.106,26.075c0.057,3.172,0.115,6.343,0.163,9.515
			c0.002,0.146-0.086,0.293-0.139,0.46c-0.606-0.528-0.822-1.252-0.94-1.976c-0.535-3.285-1.088-6.57-1.524-9.869
			c-0.603-4.558-1.133-9.125-1.646-13.694c-0.672-5.993-1.819-11.91-2.769-17.858c-1.45-9.08-4.85-31.006-5.073-32.894
			C550.379,637.311,550.525,637.175,550.641,636.969z"/>
		<path d="M576.772,811.573c2.602-0.083,5.128,0.006,7.608,0.576c2.635,0.605,5.295,1.023,7.986,1.225
			c2.763,0.207,5.249,1.082,7.483,2.738c2.419,1.794,4.884,3.525,7.325,5.291c5.706,4.127,11.959,7.134,18.68,9.209
			c3.665,1.132,7.463,1.435,11.236,1.885c2.203,0.262,4.421,0.418,6.636,0.556c2.45,0.153,4.616,1.013,6.615,2.398
			c2.21,1.531,4.443,3.028,6.704,4.566c-0.353,0.065-0.72,0.26-0.921,0.15c-2.083-1.138-4.191-2.245-6.191-3.518
			c-2.334-1.485-4.847-2.33-7.578-2.547c-2.845-0.226-5.692-0.492-8.543-0.571c-9.265-0.256-23.508-5.331-30.411-10.028
			c-1.441-0.981-2.949-1.862-4.405-2.822c-2.123-1.4-4.279-2.721-6.756-3.425c-0.453-0.129-0.88-0.362-1.302-0.58
			c-3.974-2.049-8.147-3.493-12.562-4.249C577.834,812.333,577.118,812.436,576.772,811.573z"/>
		<path d="M1080.646,652.867c0.469-0.036,0.946-0.167,1.386-0.092c2.502,0.43,4.993,0.901,7.376,1.832
			c2.659,1.038,5.329,2.05,8.012,3.028c4.027,1.468,8.068,2.907,12.366,3.374c1.574,0.171,3.159,0.258,4.741,0.319
			c1.426,0.055,2.858-0.015,4.284,0.038c3.686,0.136,7.276-0.4,10.799-1.456c0.741-0.222,1.485-0.432,2.156-0.626
			c0.365,0.332,0.343,0.6,0,0.846c-5.052,3.625-10.724,5.401-16.906,5.549c-4.477,0.107-8.855-0.57-13.131-1.92
			c-4.999-1.579-9.883-3.461-14.622-5.697c-2.295-1.083-4.514-2.339-6.269-4.237
			C1080.665,653.637,1080.715,653.244,1080.646,652.867z"/>
		<path d="M658.961,554.722c1.377,2.621,1.61,4.857,1.875,7.026c0.423,3.455,0.712,6.936,0.54,10.435
			c-0.326,6.65-0.767,13.277-1.702,19.887c-1.177,8.317-2.597,16.594-3.853,24.897c-1.042,6.889-2.388,13.733-3.608,20.595
			c-0.664,3.736-1.346,7.468-2.038,11.299c-0.584-0.486-0.349-1.054-0.318-1.528c0.082-1.264,0.123-2.551,0.399-3.779
			c0.696-3.102,0.973-6.26,1.445-9.393c0.684-4.543,1.548-9.059,2.19-13.607c0.865-6.119,1.579-12.259,2.381-18.387
			c1.009-7.706,1.691-15.441,2.122-23.199c0.15-2.691,0.307-5.383,0.357-8.076c0.044-2.374-0.061-4.751-0.092-7.127
			c-0.031-2.377-0.068-4.754-0.067-7.131C658.593,556.178,658.761,555.723,658.961,554.722z"/>
		<path d="M739.645,738.614c0.439-0.943,0.846-1.801,1.238-2.666c0.669-1.476,0.934-3.038,0.806-4.64
			c-0.276-3.461-1.949-5.962-5.211-7.309c-1.628-0.672-3.132-0.354-4.455,0.715c-1.664,1.345-2.707,3.105-3.033,5.228
			c-0.192,1.251-0.255,2.522-0.366,3.785c-0.096,1.091-0.18,2.182-0.272,3.31c-0.436-0.142-0.801-0.158-0.998-0.349
			c-0.333-0.322-0.652-0.718-0.815-1.145c-1.166-3.055-1.348-6.199-0.479-9.337c1.077-3.888,3.705-6.183,7.674-6.874
			c0.762-0.133,1.605-0.137,2.354,0.041c5.3,1.259,8.625,4.589,9.726,9.904c0.755,3.646-0.243,6.926-2.979,9.555
			c-0.443,0.426-1.025,0.77-1.605,0.975C740.563,740.045,740.018,739.74,739.645,738.614z"/>
		<path d="M71.347,601.215c0.119,0.248,0.372,0.52,0.332,0.737c-0.199,1.084-0.434,2.165-0.734,3.226
			c-0.607,2.144-0.898,4.333-1.072,6.546c-0.389,4.931,0.997,9.393,3.616,13.507c1.651,2.593,3.88,4.551,6.683,5.872
			c2.591,1.221,5.302,2.096,8.07,2.747c2.767,0.651,5.588,1.073,8.383,1.611c0.3,0.058,0.58,0.219,0.869,0.333
			c-3.036,0.83-4.507,1.046-6.85,0.694c-4.227-0.635-8.384-1.546-12.447-2.939c-4.799-1.646-8.085-4.813-10.185-9.336
			c-2.611-5.623-2.75-11.289-0.296-17.005c0.813-1.893,1.735-3.727,2.892-5.433C70.771,601.532,71.095,601.399,71.347,601.215z"/>
		<path d="M656.505,526.283c-1.132,1.319-2.253,2.648-3.402,3.953c-0.62,0.705-1.051,1.602-2.007,2.017
			c-0.138-0.196-0.442-0.465-0.392-0.583c0.37-0.865,0.771-1.723,1.235-2.541c2.892-5.092,5.829-10.159,8.694-15.266
			c1.083-1.93,2.07-3.92,3.005-5.927c2.359-5.065,3.85-10.374,4.341-15.954c0.125-1.418,0.256-2.844,0.536-4.236
			c0.151-0.748,0.593-1.448,0.963-2.138c0.274-0.512,1.117-0.841,1.636-0.708c0.66,0.169,1.12,0.592,1.306,1.236
			c0.129,0.447,0.204,0.931,0.194,1.395c-0.16,7.077-1.63,13.822-5.223,19.997c-2.866,4.924-10.216,17.485-10.982,18.867
			L656.505,526.283z"/>
		<path d="M519.619,484.202c-0.904,1.124-1.119,1.578-1.477,1.801c-1.073,0.67-2.178,1.301-3.315,1.856
			c-4.135,2.022-8.346,3.879-12.739,5.264c-13.153,4.148-26.323,8.244-39.488,12.355c-0.594,0.185-1.202,0.438-1.833,0
			c0.135-0.191,0.23-0.485,0.419-0.569c1.301-0.58,2.6-1.176,3.939-1.657c5.668-2.039,11.322-4.124,17.033-6.036
			c9.473-3.172,18.891-6.492,28.25-9.985C513.072,486.237,515.749,485.271,519.619,484.202z"/>
		<path d="M631.911,561.156c-1.175,0.443-1.365,1.649-1.955,2.536c-0.612,0.921-1.12,1.912-1.735,2.83
			c-0.615,0.918-1.254,1.833-1.982,2.66c-0.687,0.78-1.1,1.904-2.325,2.102c-0.061-0.157-0.184-0.313-0.16-0.44
			c0.414-2.176,0.922-4.335,1.824-6.363c2.312-5.2,4.653-10.388,7.039-15.555c0.388-0.839,1.053-1.554,1.61-2.31
			c0.201-0.273,1.06-0.358,1.318-0.129c0.223,0.197,0.521,0.443,0.553,0.697c0.098,0.775,0.138,1.567,0.102,2.347
			c-0.058,1.247-0.73,2.423-0.464,3.744c0.555,0.515,1.12,1.039,1.703,1.58c-0.045,0.798,0.082,1.633-0.161,2.341
			c-1.038,3.022-2.588,5.76-4.9,8.014c-0.284,0.277-0.585,0.257-0.748,0.017c-0.083-0.123-0.174-0.299-0.148-0.429
			c0.181-0.927,0.415-1.845,0.575-2.775C632.103,561.752,631.965,561.449,631.911,561.156z"/>
		<path d="M532.051,558.185c0.073,0.413,0.256,0.765,0.157,0.998c-0.556,1.31-1.137,2.614-1.788,3.88
			c-3.768,7.332-7.515,14.674-11.351,21.97c-4.279,8.139-8.6,16.255-12.355,24.656c-0.319,0.713-0.523,1.517-1.362,1.848
			c-0.46-0.33-0.337-0.807-0.227-1.216c0.698-2.606,1.521-5.174,2.628-7.636c1.43-3.179,2.807-6.391,4.414-9.48
			c5.195-9.986,10.537-19.894,16.225-29.611c0.881-1.505,1.781-2.998,2.711-4.473C531.323,558.773,531.699,558.525,532.051,558.185z
			"/>
		<path d="M840.894,796.581c-0.372-0.69-0.769-1.368-1.111-2.072c-1.87-3.85-3.515-7.795-5.063-11.786
			c-2.234-5.759-8.039-20.496-8.602-22.144c-0.523-1.531-0.023-2.849,1.12-3.177c1.097-0.314,2.287,0.437,2.922,1.866
			c0.257,0.579,0.511,1.163,0.71,1.763c0.497,1.503,4.278,13.924,5.743,18.609c1.607,5.139,3.314,10.248,4.595,15.483
			c0.107,0.436,0.141,0.891,0.209,1.337C841.242,796.5,841.068,796.541,840.894,796.581z"/>
		<path d="M1041.239,657.918c0.846-0.018,1.482-0.115,2.091-0.025c0.937,0.138,1.888,0.312,2.775,0.632
			c2.46,0.888,4.944,0.907,7.497,0.534c1.877-0.274,3.79-0.296,5.67-0.551c4.092-0.555,8.079-1.562,11.951-3.008
			c1.186-0.443,2.356-0.938,3.563-1.315c0.416-0.13,0.923,0.027,1.469,0.058c0.173,0.424,0.485,0.846,0.476,1.261
			c-0.01,0.434-0.228,0.959-0.533,1.269c-0.547,0.556-1.183,1.056-1.86,1.444c-1.524,0.875-3.205,1.388-4.915,1.713
			c-2.645,0.502-5.313,0.912-8.024,0.723c-3.16-0.22-6.318-0.456-9.476-0.708c-2.523-0.201-5.042-0.465-7.678-0.135
			c-0.551,0.529-1.132,1.05-1.671,1.612c-3.011,3.141-6.555,5.466-10.65,6.933c-0.23,0.082-0.567-0.136-0.919-0.232
			c0.474-1.248,1.683-1.778,2.528-2.637c0.777-0.788,1.652-1.478,2.466-2.231c0.93-0.86,1.862-1.719,2.752-2.62
			C1039.528,659.852,1040.246,659.01,1041.239,657.918z"/>
		<path d="M330.195,706.446c-0.406,0.338-0.857,0.788-1.377,1.134c-4.135,2.745-8.617,4.723-13.461,5.801
			c-7.748,1.724-15.581,2.877-23.526,3.119c-1.573,0.048-3.153-0.157-4.771-0.248c0.434-0.816,1.254-0.88,1.951-1.019
			c2.952-0.588,13.549-2.526,15.884-2.965c6.713-1.262,13.239-3.194,19.668-5.481c1.635-0.581,3.218-1.39,4.988-1.473
			C330.086,705.29,330.254,705.799,330.195,706.446z"/>
		<path d="M1100.74,642.543c0.602-0.754,1.516-0.889,2.314-1.216c3.8-1.554,7.634-3.024,11.407-4.641
			c2.173-0.931,4.283-2.022,6.363-3.15c2.538-1.377,4.613-3.283,6.18-5.745c0.841-1.322,1.576-2.738,2.712-3.785
			c1.059-0.022,1.707,0.377,1.888,1.013c0.226,0.788,0.212,1.569-0.006,2.335c-0.992,3.494-3.072,6.185-6.1,8.161
			c-0.396,0.259-0.805,0.505-1.23,0.711c-6.721,3.254-13.658,5.806-21.167,6.485c-0.471,0.043-0.948,0.051-1.42,0.026
			C1101.375,642.721,1101.073,642.615,1100.74,642.543z"/>
		<path d="M572.332,878.446c-0.31,0.779-0.997,1.217-1.615,1.693c-5.66,4.359-11.69,8.149-18.11,11.266
			c-5.146,2.499-10.557,4.267-16.298,4.832c-0.291,0.029-0.599-0.114-0.905-0.179c-0.576-1.009-0.429-2.136-0.436-3.212
			c-0.028-3.955-0.174-7.916,0.36-11.853c0.062-0.454,0.26-0.889,0.414-1.396c0.215,0.322,0.455,0.539,0.517,0.798
			c0.743,3.078,1.376,6.172,1.528,9.351c0.053,1.1,0.216,2.204,0.442,3.283c0.086,0.41,0.491,0.754,0.809,1.212
			c0.8-0.201,1.577-0.332,2.309-0.59c5.533-1.944,10.88-4.315,15.967-7.236c3.704-2.128,7.338-4.377,11.016-6.552
			c1.083-0.641,2.198-1.233,3.322-1.797C571.957,877.913,572.228,878.127,572.332,878.446z"/>
		<path d="M384.476,741.457c0.727,0.071,1.204,0.457,1.181,1.189c-0.024,0.781-0.08,1.593-0.317,2.329
			c-0.533,1.658-1.158,3.288-1.795,4.91c-2.781,7.082-5.555,14.167-8.381,21.232c-2.117,5.293-4.196,10.604-6.69,15.787
			c-0.606-0.529-0.302-1.124-0.169-1.608c1.471-5.349,3.066-10.662,4.917-15.894c2.431-6.874,4.852-13.753,7.33-20.61
			c0.753-2.083,1.669-4.108,2.536-6.149C383.347,742.037,383.839,741.641,384.476,741.457z"/>
		<path d="M660.633,627.512c-0.412-0.568-0.273-1.218-0.226-1.832c0.389-5.059,0.717-10.124,1.558-15.138
			c0.21-1.25,0.33-2.515,0.47-3.776c0.525-4.727,1.056-9.454,1.557-14.184c0.602-5.683,0.951-11.378,0.677-17.096
			c-0.166-3.477-0.351-6.953-0.49-10.431c-0.015-0.366,0.336-0.531,0.667-0.45c0.142,0.035,0.333,0.074,0.399,0.177
			c0.253,0.397,0.535,0.797,0.679,1.237c0.742,2.271,1.173,4.598,1.24,6.995c0.093,3.335,0.012,6.664-0.366,9.977
			c-0.52,4.568-3.355,27.381-4.179,33.509c-0.485,3.609-1.128,7.196-1.713,10.791C660.892,627.376,660.727,627.439,660.633,627.512z
			"/>
		<path d="M847.697,803.181c-1.465-7.444-2.752-13.968-4.033-20.492c-1.314-6.69-2.533-13.4-4.179-20.02
			c-0.268-1.078-0.531-2.152-0.278-3.279c0.092-0.409,0.482-0.867,0.921-0.955c0.507-0.102,0.981,0.04,1.259,0.439
			c0.355,0.511,0.7,1.073,0.863,1.665c0.379,1.373,0.709,2.767,0.947,4.171c1.165,6.878,2.363,13.752,3.407,20.649
			c0.641,4.23,1.063,8.495,1.505,12.752C848.253,799.501,848.454,800.931,847.697,803.181z"/>
		<path d="M540.315,513.09c-0.677-0.894-0.936-1.931-1.12-2.981c-0.465-2.656-1.035-5.304-1.306-7.981
			c-0.593-5.846-0.815-11.72-0.63-17.594c0.131-4.135,0.636-8.238,2.176-12.127c0.343-0.866,0.888-1.662,1.417-2.438
			c0.127-0.186,0.596-0.28,0.841-0.203c0.22,0.069,0.424,0.409,0.498,0.669c0.083,0.292,0.053,0.634,0,0.942
			c-0.189,1.095-0.353,2.199-0.629,3.272c-0.637,2.474-0.913,4.995-1.098,7.53c-0.405,5.544-0.716,11.089-0.306,16.65
			c0.093,1.264,0.021,2.539,0.061,3.808c0.079,2.537,0.19,5.073,0.274,7.609C540.526,511.188,540.72,512.142,540.315,513.09z"/>
		<path d="M422.695,527.175c-0.108,0.249-0.144,0.583-0.328,0.719c-2.926,2.18-6.044,4.054-9.334,5.628
			c-4.148,1.985-8.472,3.53-12.832,4.968c-1.034,0.341-2.156,0.439-3.247,0.569c-0.671,0.08-1.571-0.699-1.716-1.397
			c-0.139-0.667,0.05-1.308,0.574-1.701c0.622-0.466,1.313-0.901,2.042-1.155c5.826-2.032,11.605-4.208,17.545-5.903
			c2.13-0.608,4.255-1.234,6.391-1.82C422.056,527.011,422.376,527.138,422.695,527.175z"/>
		<path d="M548.385,708.228c-0.946-7.677-1.515-15.264-2.042-22.858c-0.373-5.382-0.912-10.753-1.371-16.129
			c-0.432-5.06-0.879-10.12-1.269-15.183c-0.097-1.255,0.005-2.525,0.014-3.624c0.289-0.427,0.479-0.351,0.623,0.085
			c0.749,2.275,1.067,4.646,1.38,6.998c0.628,4.718,1.145,9.45,1.422,14.209c0.369,6.337,0.923,12.663,1.312,18.999
			c0.243,3.96,0.365,7.929,0.463,11.896c0.039,1.582-0.12,3.171-0.217,4.755C548.684,707.625,548.524,707.865,548.385,708.228z"/>
		<path d="M284.554,584.395c-0.424-0.077-0.792-0.038-0.969-0.204c-0.2-0.188-0.35-0.575-0.314-0.848
			c0.369-2.756,1.492-5.194,3.582-7.025c2.291-2.007,4.965-2.679,7.958-1.646c3.163,1.091,5.541,3.009,6.728,6.218
			c0.507,1.37,0.65,2.785,0.2,4.191c-0.348,1.086-0.893,2.043-2.382,2.056c-0.258-1.02-0.488-2.071-0.791-3.1
			c-0.776-2.636-2.596-4.295-5.111-5.216c-0.57-0.209-1.256-0.254-1.863-0.178c-1.796,0.227-3.311,1.062-4.471,2.456
			C286.217,582.187,285.381,583.329,284.554,584.395z"/>
		<path d="M371.054,753.558c0.476,0.47,0.671,1.07,0.554,1.717c-0.141,0.775-0.321,1.552-0.586,2.292
			c-0.372,1.042-0.812,2.062-1.267,3.071c-3.446,7.649-6.542,15.443-9.662,23.227c-1.295,3.23-2.718,6.409-4.106,9.601
			c-0.375,0.863-0.836,1.689-1.256,2.528c-0.668-0.239-0.508-0.725-0.407-1.058c0.507-1.663,1.03-3.324,1.623-4.959
			c2.536-6.99,10.374-28.718,11.795-32.578c0.434-1.178,1.002-2.321,1.645-3.4C369.705,753.464,370.367,753.245,371.054,753.558z"/>
		<path d="M917.771,595.08c-0.626,0.245-1.26,0.175-1.827-0.12c-0.838-0.437-1.606-1.014-2.454-1.427
			c-0.847-0.412-1.736-0.767-2.643-1.014c-1.106-0.301-2.183-0.094-3.186,0.494c-0.654,0.383-1.064,1.418-0.741,2.037
			c0.291,0.557,0.605,1.104,0.936,1.638c0.492,0.796,1.381,1.326,1.567,2.343c-0.332,1.105-1.197,1.411-2.186,1.21
			c-3.195-0.649-4.999-3.549-5.055-6.076c-0.01-0.465,0.061-0.955,0.208-1.396c0.694-2.082,2.088-3.601,4.174-4.202
			c3.714-1.07,7.196-0.501,10.229,2.037c0.874,0.732,1.405,1.697,1.623,2.819C918.548,594.103,918.281,594.642,917.771,595.08z"/>
		<path d="M560.779,537.287c-0.273-0.082-0.614-0.086-0.802-0.257c-2.01-1.827-3.698-3.923-5.069-6.266
			c-2.007-3.431-3.72-7.008-5.15-10.714c-0.802-2.078-1.427-4.209-1.194-6.493c0.076-0.742,0.372-1.277,1.442-2.31
			c0.701-0.107,1.311,0.126,1.592,0.743c0.456,1.004,0.903,2.039,1.149,3.108c1.11,4.819,2.864,9.399,4.914,13.884
			c1.121,2.452,2.124,4.958,3.15,7.452C560.91,536.674,560.796,536.999,560.779,537.287z"/>
		<path d="M386.828,767.006c1.831-8.951,5.041-17.217,8.111-25.529c1.81-4.9,3.565-9.823,5.837-14.537
			c0.342-0.709,0.738-1.393,1.126-2.079c0.22-0.391,0.965-0.614,1.235-0.393c0.392,0.322,0.531,0.773,0.468,1.236
			c-0.085,0.622-0.198,1.256-0.418,1.841c-0.614,1.629-1.238,3.259-1.95,4.847c-3.176,7.082-5.957,14.323-8.785,21.547
			c-1.384,3.537-2.855,7.041-4.321,10.545C387.765,765.354,387.265,766.167,386.828,767.006z"/>
		<path d="M827.352,785.592c-0.318-0.48-0.725-0.965-0.992-1.517c-1.451-2.997-2.931-5.984-4.282-9.026
			c-2.317-5.219-4.555-10.473-6.806-15.721c-0.5-1.165-0.969-2.349-1.345-3.557c-0.182-0.587-0.167-1.252-0.148-1.879
			c0.015-0.484,0.308-0.872,0.755-1.109c0.331-0.176,1.074,0.019,1.304,0.327c0.281,0.378,0.628,0.727,0.822,1.146
			c0.601,1.293,1.196,2.593,1.698,3.926c2.626,6.976,5.234,13.959,7.823,20.948c0.66,1.783,1.25,3.592,1.821,5.406
			C828.123,784.925,828.067,785.406,827.352,785.592z"/>
		<path d="M733.645,517.819c-1.376,0.618-2.454,0.182-3.499-0.093c-4.14-1.088-8.287-2.162-12.387-3.388
			c-5.924-1.771-11.815-3.652-17.708-5.527c-1.507-0.479-2.977-1.082-4.437-1.694c-0.415-0.174-0.734-0.579-1.053-0.843
			c-0.043-0.625,0.3-0.991,0.748-1.041c0.613-0.07,1.279-0.054,1.867,0.117c3.197,0.929,6.386,1.887,9.56,2.889
			c8.015,2.531,15.981,5.205,23.849,8.167C731.594,516.785,732.55,517.238,733.645,517.819z"/>
		<path d="M576.502,576.995c-0.353-0.288-0.778-0.529-1.059-0.883c-1.078-1.359-2.204-2.695-3.141-4.149
			c-2.57-3.99-4.69-8.226-6.593-12.57c-1.297-2.962-1.802-6.038-1.229-9.245c0.044-0.245,0.315-0.607,0.508-0.626
			c0.249-0.024,0.539,0.224,0.785,0.394c0.118,0.082,0.19,0.246,0.256,0.386c0.135,0.285,0.263,0.575,0.374,0.87
			c2.714,7.252,5.922,14.287,9.255,21.27c0.606,1.27,1.355,2.51,1.446,3.964C577.115,576.572,576.748,576.763,576.502,576.995z"/>
		<path d="M460.499,543.458c-2.348,2.374-4.361,4.18-6.577,5.712c-4.048,2.799-8.157,5.512-12.29,8.184
			c-1.05,0.679-2.258,1.155-3.451,1.554c-0.546,0.183-1.241,0.01-1.848-0.107c-0.621-0.12-0.946-1.04-0.591-1.52
			c0.281-0.379,0.52-0.825,0.884-1.1c0.883-0.668,1.799-1.307,2.754-1.866c3.975-2.325,7.945-4.662,11.967-6.904
			c2.494-1.39,5.075-2.626,7.632-3.903C459.217,543.39,459.559,543.48,460.499,543.458z"/>
		<path d="M421.677,833.479c-0.32-0.018-0.663,0.06-0.895-0.066c-1.532-0.832-3.094-1.625-4.544-2.584
			c-3.982-2.632-7.699-5.622-11.046-9.019c-4.955-5.029-7.82-11.094-8.462-18.16c-0.035-0.381,0.207-0.604,0.484-0.553
			c0.137,0.025,0.284,0.152,0.369,0.273c0.182,0.257,0.366,0.525,0.478,0.816c0.228,0.592,0.4,1.204,0.609,1.803
			c0.209,0.599,0.419,1.199,0.657,1.787c2.357,5.818,5.66,11.007,10.369,15.207c2.722,2.428,5.546,4.744,8.337,7.094
			c1.092,0.919,2.233,1.779,3.325,2.697C421.534,832.921,421.571,833.233,421.677,833.479z"/>
		<path d="M669.969,612.564c0.055-1.738,0.091-3.477,0.169-5.214c0.149-3.33,0.418-6.657,0.462-9.988
			c0.087-6.505,0.123-13.012,0.039-19.517c-0.041-3.161-0.39-6.32-1.02-9.434c-0.02-0.097,0.163-0.288,0.291-0.346
			c0.109-0.049,0.324-0.02,0.409,0.062c0.335,0.32,0.724,0.627,0.936,1.023c0.914,1.705,1.305,3.554,1.435,5.478
			c0.6,8.896,0.242,17.77-0.701,26.619c-0.403,3.78-1.105,7.527-1.672,11.289C670.202,612.546,670.086,612.555,669.969,612.564z"/>
		<path d="M636.995,509.004c-0.157-0.652-0.496,0.272-0.3-0.332c0.145-0.446,0.224-0.918,0.41-1.345
			c2.409-5.517,4.846-11.021,7.247-16.541c1.706-3.922,3.374-7.861,4.695-11.936c0.241-0.743,0.46-1.521,1.111-2.047
			c0.647,0.285,1.007,0.815,0.995,1.47c-0.022,1.101-0.068,2.218-0.275,3.296c-0.208,1.083-0.555,2.154-0.958,3.183
			c-3.19,8.136-6.95,15.981-11.983,23.165C637.667,508.302,637.32,508.632,636.995,509.004z"/>
		<path d="M133.593,643.908c0.533-0.636,1.145-0.727,1.758-0.488c0.881,0.344,1.751,0.733,2.583,1.181
			c5.465,2.945,11.222,5.112,17.234,6.649c2.605,0.666,5.176,1.471,7.744,2.271c1.048,0.326,2.049,0.804,3.146,1.243
			c-0.587,0.563-1.162,0.287-1.657,0.203c-5.306-0.901-10.608-1.819-15.827-3.161c-2.297-0.591-4.636-1.021-6.942-1.581
			c-2.025-0.491-3.883-1.404-5.527-2.663c-0.864-0.662-1.591-1.53-2.269-2.392C133.587,644.854,133.657,644.288,133.593,643.908z"/>
		<path d="M876.048,728.205c-2.52-1.271-4.945-2.736-7.171-4.487c-3.233-2.545-6.395-5.182-9.563-7.809
			c-0.973-0.807-1.877-1.697-2.465-2.858c-0.28-0.552-0.28-1.297,0.093-1.773c0.443-0.566,1.511-0.777,2.155-0.426
			c0.277,0.151,0.567,0.284,0.828,0.458c0.395,0.263,0.799,0.523,1.149,0.84c5.16,4.679,10.411,9.269,14.747,14.769
			C876.079,727.245,876.467,727.596,876.048,728.205z"/>
		<path d="M637.066,539.46c1.365-2.905,2.67-5.772,4.053-8.601c1.808-3.699,3.6-7.398,4.802-11.354
			c0.228-0.751,0.562-1.491,0.977-2.155c0.227-0.363,0.726-0.556,1.028-0.772c1.278,0.022,1.794,0.767,1.995,1.773
			c0.189,0.949,0.11,1.933-0.278,2.803c-2.912,6.525-6.091,12.889-11.318,17.956c-0.219,0.213-0.539,0.318-0.785,0.508
			C637.037,540.006,637.806,539.353,637.066,539.46z"/>
		<path d="M581.393,611.43c-0.359-0.335-0.781-0.601-1.028-0.981c-0.949-1.458-1.938-2.904-2.738-4.444
			c-2.119-4.081-3.852-8.336-5.357-12.678c-0.833-2.402-1.38-4.882-1.252-7.452c0.03-0.61,0.232-1.212,0.353-1.809
			c0.442,0.059,0.738,0.098,1.047,0.139c0.607,0.546,0.884,1.298,1.138,2.041c0.563,1.648,1.163,3.29,1.594,4.974
			c1.181,4.612,2.784,9.078,4.473,13.52c0.731,1.921,1.422,3.859,2.081,5.806C581.776,610.764,581.518,611.094,581.393,611.43z"/>
		<path d="M296.385,617.062c0.384-0.58,0.998-0.701,1.619-0.853c3.094-0.755,6.018-1.946,8.799-3.493
			c1.804-1.004,3.492-2.174,5.091-3.484c3.525-2.887,6.116-6.404,7.357-10.83c0.855-3.048,1.687-6.103,2.484-9.167
			c0.595-2.287,1.117-4.594,1.791-7.392c0.154,0.964,0.289,1.408,0.287,1.85c-0.039,6.105-1.605,11.895-3.648,17.586
			c-0.707,1.971-1.864,3.66-3.232,5.22c-3.63,4.138-8.023,7.146-13.244,8.922c-2.399,0.816-4.789,1.678-7.389,1.526L296.385,617.062
			z"/>
		<path d="M485.757,505.86c0.445-0.272,0.802-0.537,1.196-0.725c8.02-3.824,16.311-7.003,24.545-10.32
			c0.618-0.249,0.626-0.229,2.295,0.03c0.55,1.228,0.388,1.954-0.467,2.389c-0.424,0.215-0.821,0.494-1.262,0.66
			c-8.315,3.117-16.717,5.966-25.32,8.19C486.486,506.151,486.162,505.959,485.757,505.86z"/>
		<path d="M787.606,534.217c0.573-0.436,1.193-0.24,1.754-0.073c2.569,0.766,5.135,1.547,7.682,2.382
			c4.346,1.425,8.68,2.888,13.014,4.348c1.943,0.655,3.907,1.277,5.626,2.435c0.366,0.247,0.607,0.675,0.324,1.272
			c-1.495,0.418-3.043,0.051-4.586-0.222c-0.617-0.109-1.224-0.307-1.818-0.513c-6.86-2.381-13.622-5.004-20.13-8.244
			C788.773,535.255,788.04,534.935,787.606,534.217z"/>
		<path d="M774.514,543.825c1.351-0.495,2.433-0.111,3.482,0.156c1.838,0.468,3.655,1.029,5.455,1.627
			c4.204,1.396,8.397,2.822,12.584,4.268c1.043,0.36,2.075,0.784,3.051,1.295c0.366,0.192,0.561,0.712,0.893,1.163
			c-0.308,0.378-0.524,0.833-0.882,1.031c-0.389,0.216-0.931,0.324-1.37,0.253c-1.243-0.202-2.544-0.337-3.686-0.821
			c-5.826-2.468-11.799-4.589-17.494-7.366C775.847,545.09,775.087,544.823,774.514,543.825z"/>
		<path d="M444.182,537.977c-0.327,0.361-0.57,0.751-0.917,0.99c-1.56,1.074-3.116,2.16-4.735,3.14
			c-4.455,2.698-8.932,5.36-13.42,8.003c-1.22,0.718-2.479,1.374-3.931,1.564c-0.936,0.122-1.495-0.513-1.417-1.919
			c0.685-0.48,1.403-1.116,2.229-1.543c5.326-2.755,10.663-5.492,16.026-8.175c1.69-0.846,3.465-1.525,5.22-2.235
			C443.461,537.71,443.797,537.897,444.182,537.977z"/>
		<path d="M605.922,844.456c-0.037,0.665,0.024,1.309-0.123,1.902c-0.799,3.229-1.535,6.481-2.515,9.656
			c-0.98,3.177-2.204,6.279-3.361,9.399c-0.329,0.888-0.778,1.733-1.21,2.579c-0.14,0.273-0.404,0.482-0.604,0.725
			c-0.27,0.327-1.059,0.553-1.282,0.323c-0.207-0.214-0.436-0.473-0.498-0.747c-0.102-0.454-0.168-0.952-0.086-1.402
			c0.169-0.932,0.35-1.882,0.69-2.761c2.399-6.208,4.749-12.44,7.848-18.347C605.03,845.308,605.118,844.635,605.922,844.456z"/>
		<path d="M584.33,643.974c-0.38-0.3-0.815-0.51-1.053-0.856c-0.807-1.174-1.626-2.353-2.293-3.608
			c-1.789-3.37-3.156-6.929-4.352-10.542c-0.75-2.267-1.185-4.622-0.672-7.027c0.094-0.443,0.381-0.851,0.611-1.258
			c0.172-0.306,1.097-0.239,1.268,0.069c0.152,0.274,0.381,0.525,0.461,0.817c0.337,1.222,0.688,2.444,0.931,3.687
			c0.792,4.057,1.974,8,3.339,11.896c0.682,1.945,1.336,3.9,1.959,5.864C584.607,643.258,584.419,643.586,584.33,643.974z"/>
		<path d="M525.446,523.731c-1.45,2.063-3.183,3.909-4.965,5.699c-2.571,2.582-5.21,5.097-7.826,7.634
			c-0.684,0.663-1.398,1.301-2.337,1.586c-0.468,0.142-0.937,0.099-1.33-0.235c-0.478-0.406-0.758-1.286-0.537-1.702
			c0.223-0.418,0.39-0.907,0.72-1.219c4.721-4.465,9.466-8.904,15.122-12.212C524.68,523.055,524.792,523.095,525.446,523.731z"/>
		<path d="M406.92,543.347c0.227-0.332,0.424-0.793,0.767-1.08c0.479-0.401,1.036-0.743,1.611-0.986
			c5.978-2.529,11.885-5.233,18.056-7.279c0.14-0.046,0.309-0.006,0.464-0.006c0.393,0.186,0.416,0.436,0.039,0.709
			c-1.409,1.019-2.785,2.09-4.246,3.029c-3.872,2.49-7.983,4.538-12.204,6.364c-0.87,0.376-1.757,0.73-2.743,0.666
			C407.786,544.706,407.177,544.317,406.92,543.347z"/>
		<path d="M750.191,554.179c0.297-0.023,0.637-0.154,0.878-0.052c1.89,0.799,3.826,1.524,5.627,2.495
			c4.588,2.473,9.124,5.044,13.656,7.619c1.088,0.618,2.22,1.249,2.88,2.389c0.132,0.228,0.145,0.651,0.017,0.868
			c-0.126,0.214-0.49,0.35-0.77,0.393c-0.299,0.046-0.654,0.018-0.926-0.106c-1.147-0.523-2.325-1.008-3.398-1.661
			c-4.589-2.793-9.155-5.623-13.705-8.479c-1.335-0.838-2.596-1.795-3.866-2.732C750.384,554.765,750.319,554.43,750.191,554.179z"
			/>
		<path d="M888.848,712.89c0.651-0.622,1.41-0.64,2.19-0.336c0.438,0.171,0.879,0.379,1.253,0.658
			c3.928,2.935,7.928,5.785,11.324,9.362c0.317,0.334,0.559,0.74,0.861,1.146c-0.302,0.143-0.568,0.392-0.762,0.344
			c-5.033-1.238-9.227-4.055-13.253-7.158c-0.611-0.471-1.055-1.165-1.545-1.781C888.586,714.709,888.594,714.088,888.848,712.89z"
			/>
		<path d="M737.84,560.11c1.551-0.066,2.171,0.485,2.803,0.883c2.802,1.768,5.591,3.562,8.326,5.432
			c3.257,2.227,6.464,4.529,9.673,6.826c1.02,0.73,2.089,1.442,2.615,2.662c0.055,0.129,0.046,0.362-0.037,0.458
			c-0.182,0.214-0.406,0.459-0.658,0.528c-0.284,0.078-0.635,0.031-0.924-0.062c-0.446-0.143-0.887-0.334-1.289-0.574
			c-0.676-0.404-1.353-0.821-1.972-1.305c-5.348-4.18-10.688-8.37-16.017-12.574C739.624,561.805,738.964,561.13,737.84,560.11z"/>
		<path d="M403.805,524.111c0.003,0.117,0.054,0.281,0.001,0.328c-2.059,1.804-4.585,2.808-7.023,3.904
			c-3.888,1.747-7.774,3.558-11.862,4.408c-0.435-0.261-0.75-0.376-0.964-0.591c-0.626-0.632-0.616-1.604,0.055-2.054
			c0.781-0.525,1.576-1.081,2.445-1.415c4.593-1.766,9.238-3.384,14.111-4.203C401.636,524.307,402.661,523.636,403.805,524.111z"/>
		<path d="M208.345,680.852c-0.371,0.5-0.728,1.011-1.114,1.499c-5.978,7.562-11.766,15.263-17.109,23.292
			c-0.867,1.302-1.635,2.703-2.966,3.63c-0.101,0.07-0.319,0.072-0.424,0.008c-0.114-0.068-0.244-0.267-0.222-0.38
			c0.306-1.579,1.087-2.962,1.962-4.268c5.635-8.413,11.753-16.449,18.775-23.769c0.203-0.211,0.521-0.312,0.786-0.464
			C208.137,680.551,208.241,680.701,208.345,680.852z"/>
		<path d="M890.254,727.384c-2.688-0.767-4.503-1.684-6.177-2.836c-2.729-1.877-5.41-3.824-8.07-5.797
			c-0.752-0.557-1.388-1.282-2.023-1.98c-0.31-0.341-0.534-0.779-0.726-1.204c-0.268-0.595-0.296-1.213,0.118-1.772
			c0.308-0.416,1.219-0.56,1.738-0.301c0.281,0.141,0.586,0.242,0.846,0.414c0.394,0.261,0.776,0.546,1.13,0.859
			c3.187,2.826,6.382,5.643,9.54,8.5C887.791,724.318,888.979,725.365,890.254,727.384z"/>
		<path d="M528.57,893.673c-0.154,0.274-0.258,0.596-0.47,0.814c-0.985,1.013-2.632,0.744-3.12-0.522
			c-0.224-0.582-0.445-1.21-0.455-1.821c-0.048-2.854-0.141-5.715,0.009-8.562c0.157-3.003,0.57-5.993,0.843-8.705
			c0.33-0.562,0.531-0.488,0.617-0.021c1.117,6.082,2.075,12.187,2.638,18.348C528.645,893.357,528.592,893.516,528.57,893.673z"/>
		<path d="M591.355,610.839c-0.414-0.162-0.811-0.189-0.933-0.387c-0.574-0.929-1.203-1.857-1.574-2.873
			c-1.303-3.561-2.095-7.249-2.365-11.035c-0.044-0.617,0.039-1.26,0.17-1.868c0.096-0.445,0.336-0.871,0.571-1.27
			c0.396-0.672,1.555-0.723,2.055-0.167c0.548,0.609,0.872,1.313,0.974,2.1c0.162,1.248,0.242,2.506,0.387,3.756
			c0.253,2.188,0.551,4.37,0.79,6.56C591.617,607.37,591.66,609.089,591.355,610.839z"/>
		<path d="M589.524,510.22c-0.798-0.948-1.167-1.256-1.37-1.649c-0.87-1.683-1.758-3.363-2.518-5.097
			c-1.903-4.343-3.566-8.784-5.018-13.297c-0.628-1.951-1.077-3.962-1.538-5.961c-0.175-0.761-0.164-1.566-0.222-2.353
			c-0.039-0.534,0.309-1.203,0.529-1.074c0.259,0.152,0.511,0.36,0.685,0.602c0.179,0.25,0.28,0.564,0.381,0.861
			c0.356,1.047,0.746,2.085,1.035,3.151c2.106,7.788,4.824,15.369,7.721,22.89C589.316,508.578,589.313,508.907,589.524,510.22z"/>
		<path d="M803.157,530.144c0.27-0.12,0.555-0.368,0.809-0.339c2.038,0.23,4.096,0.39,6.099,0.805
			c3.71,0.769,7.392,1.674,11.074,2.572c0.911,0.222,1.776,0.633,2.543,0.914c0.18,0.256,0.309,0.373,0.355,0.516
			c0.29,0.896-0.098,1.746-0.818,1.807c-0.469,0.04-0.965,0.166-1.405,0.065c-6.309-1.454-12.557-3.105-18.422-5.935
			C803.275,530.493,803.233,530.283,803.157,530.144z"/>
		<path d="M625.383,509.54c-0.112-0.269-0.333-0.54-0.305-0.783c0.107-0.936,0.21-1.886,0.465-2.788
			c1.631-5.756,3.297-11.502,4.965-17.247c0.175-0.603,0.435-1.182,0.662-1.769c0.187-0.483,0.803-0.812,1.105-0.63
			c0.441,0.267,0.557,0.684,0.612,1.145c0.21,1.76-0.102,3.481-0.635,5.124c-1.652,5.091-3.298,10.189-5.526,15.07
			C626.405,508.366,626.15,509.14,625.383,509.54z"/>
		<path d="M292.606,707.962c-0.436,0.256-0.935,0.691-1.512,0.857c-1.365,0.393-2.753,0.763-4.158,0.957
			c-4.703,0.65-9.414,1.253-14.13,1.798c-1.408,0.163-2.845,0.1-4.269,0.09c-0.441-0.003-0.881-0.174-1.734-0.357
			c1.454-0.398,2.494-0.773,3.567-0.962c6.702-1.182,13.409-2.333,20.121-3.456c0.593-0.099,1.239,0.021,1.844,0.13
			C292.641,707.074,292.725,707.434,292.606,707.962z"/>
		<path d="M624.255,600.108c-0.127-0.23-0.414-0.516-0.356-0.681c0.629-1.792,1.265-3.584,1.991-5.338
			c1.336-3.225,2.73-6.427,4.112-9.633c0.188-0.436,0.418-0.858,0.668-1.262c0.345-0.556,1.139-0.903,1.631-0.606
			c0.435,0.264,0.69,0.611,0.784,1.098c0.222,1.143-0.063,2.224-0.505,3.245c-1.39,3.209-2.91,6.354-4.974,9.199
			c-0.838,1.156-1.716,2.285-2.602,3.405C624.815,599.773,624.509,599.919,624.255,600.108z"/>
		<path d="M390.47,831.859c0.156,0.401,0.366,0.665,0.312,0.852c-0.217,0.753-0.509,1.486-0.787,2.221
			c-2.572,6.794-5.498,13.436-8.547,20.027c-0.328,0.709-0.593,1.499-1.358,1.868c-0.212,0.102-0.557-0.01-0.818-0.096
			c-0.109-0.036-0.205-0.254-0.222-0.399c-0.111-0.995,0.369-1.845,0.759-2.693c1.713-3.729,3.439-7.452,5.207-11.155
			c1.36-2.848,2.78-5.668,4.196-8.489C389.564,833.298,390.003,832.647,390.47,831.859z"/>
		<path d="M587.404,577.422c-0.487-0.281-0.976-0.415-1.224-0.736c-0.768-0.995-1.598-1.989-2.122-3.115
			c-1.064-2.285-1.961-4.65-2.881-7c-0.164-0.42-0.125-0.927-0.14-1.395c-0.023-0.731,0.6-1.528,1.341-1.762
			c0.713-0.225,1.749,0.091,2.123,0.659c0.173,0.263,0.397,0.52,0.477,0.813c0.993,3.651,2.097,7.277,2.623,11.036
			C587.663,576.361,587.489,576.832,587.404,577.422z"/>
		<path d="M613.859,508.722c-0.347,0.142-0.662,0.061-0.715-0.279c-0.292-1.89,0.002-3.77,0.207-5.643
			c0.446-4.075,0.931-8.147,1.415-12.218c0.129-1.089,0.135-2.232,0.863-3.143c0.144-0.18,0.525-0.201,0.803-0.228
			c0.131-0.013,0.338,0.097,0.406,0.212c0.156,0.266,0.303,0.56,0.352,0.859c0.075,0.463,0.11,0.943,0.083,1.411
			c-0.055,0.944-0.097,1.896-0.263,2.824c-0.94,5.276-1.912,10.547-2.886,15.818C614.097,508.476,613.95,508.593,613.859,508.722z"
			/>
		<path d="M613.547,606.571c-0.164-0.342-0.376-0.589-0.384-0.841c-0.014-0.464,0.026-0.952,0.158-1.396
			c1.04-3.479,2.599-6.735,4.366-9.891c0.456-0.814,1.049-1.551,1.96-1.967c0.523-0.239,1.361,0.144,1.481,0.706
			c0.169,0.793,0.167,1.593-0.13,2.32c-1.548,3.794-3.39,7.424-6.26,10.422C614.443,606.235,613.953,606.359,613.547,606.571z"/>
		<path d="M576.644,539.6c-1.898-1.229-2.295-1.51-3.686-3.617c-2.34-3.544-4.725-7.082-5.706-10.997
			c0.063-1.195,0.457-1.805,1.419-2.118c0.317,0.216,0.751,0.417,1.051,0.743c0.311,0.338,0.567,0.77,0.719,1.205
			c1.622,4.625,3.837,8.983,5.935,13.396C576.556,538.59,576.545,539.057,576.644,539.6z"/>
		<path d="M493.511,872.646c0.307,5.306,0.624,10.688,0.921,16.071c0.026,0.467-0.078,0.942-0.132,1.413
			c-0.078,0.68-0.773,0.993-1.839,0.792c-0.179-0.392-0.459-0.802-0.553-1.25c-0.196-0.929-0.395-1.877-0.413-2.82
			c-0.089-4.613,0.216-9.205,0.98-13.758C492.539,872.706,492.796,872.242,493.511,872.646z"/>
		<path d="M462.324,828.923c0.515-0.511,1.115-0.593,1.663-0.146c0.477,0.389,0.965,0.843,1.255,1.374
			c2.343,4.289,5.309,8.149,8.199,12.064c0.162,0.22,0.179,0.547,0.262,0.825c-0.234,0.244-0.544,0.327-0.836,0.115
			c-0.887-0.645-1.817-1.253-2.606-2.006c-2.506-2.391-4.701-5.06-6.675-7.903c-0.532-0.766-0.92-1.641-1.296-2.501
			C462.036,830.163,462.049,829.523,462.324,828.923z"/>
		<path d="M599.738,610.218c-0.7-0.886-0.928-1.647-0.978-2.433c-0.212-3.333,0.134-6.611,1.099-9.814
			c0.09-0.299,0.249-0.577,0.375-0.866c0.302-0.692,1.276-1.194,1.955-0.966c0.635,0.214,1.036,0.683,1.19,1.334
			c0.072,0.303,0.157,0.635,0.104,0.931c-0.668,3.716-1.152,7.485-3.001,10.873C600.335,609.547,600.099,609.767,599.738,610.218z"
			/>
		<path d="M593.939,644.687c-0.375-0.111-0.764-0.108-0.936-0.3c-0.52-0.58-1.059-1.183-1.407-1.87
			c-1.359-2.689-2.224-5.545-2.636-8.531c-0.135-0.978,0.146-1.864,0.699-2.674c0.522-0.765,2.004-0.772,2.42,0.025
			c0.287,0.551,0.649,1.138,0.69,1.729c0.242,3.462,0.898,6.861,1.423,10.28C594.258,643.766,594.033,644.232,593.939,644.687z"/>
		<path d="M587.107,444.812c-0.397-1.818-0.096-2.899,0.175-3.967c1.094-4.305,2.201-8.608,3.354-12.898
			c0.202-0.751,0.581-1.479,1.006-2.134c0.23-0.356,0.731-0.537,1.059-0.762c0.96,0.363,1.283,1.014,1.195,1.89
			c-0.031,0.313-0.092,0.632-0.199,0.926c-1.731,4.772-3.459,9.546-5.223,14.306C588.206,442.897,587.765,443.557,587.107,444.812z"
			/>
		<path d="M92.704,624.922c-0.2,0.133-0.362,0.318-0.448,0.288c-0.583-0.205-1.204-0.373-1.714-0.704
			c-3.268-2.123-5.461-5.155-7.057-8.638c-0.932-2.033-0.608-4,0.725-5.775c0.27-0.36,0.692-0.651,1.106-0.835
			c0.185-0.083,0.523,0.177,0.872,0.313c0.001,0.424,0.067,0.891-0.009,1.331c-0.425,2.44,0.19,4.678,1.268,6.83
			c0.849,1.694,1.901,3.257,3.12,4.707C91.267,623.272,91.986,624.089,92.704,624.922z"/>
		<path d="M466.297,812.584c-0.551,0.081-0.923-0.231-1.031-0.668c-0.353-1.422-0.037-2.836,0.209-4.237
			c0.357-2.027,2.79-14.779,3.703-19.116c0.357-1.693,0.963-3.333,1.532-5.253c0.005,0.736,0.073,1.217,0.001,1.676
			c-0.706,4.535-3.223,21.447-3.774,25.368C466.829,811.126,466.861,811.951,466.297,812.584z"/>
		<path d="M584.047,431.267c-0.08,0.297-0.098,0.632-0.249,0.886c-1.608,2.704-2.906,5.556-4.127,8.45
			c-0.609,1.444-1.309,2.851-2.019,4.249c-0.278,0.548-0.695,1.026-1.217,1.778c-0.046-0.708-0.161-1.143-0.086-1.542
			c0.817-4.334,2.301-8.468,3.883-12.565c0.272-0.703,0.821-1.322,1.325-1.908C582.36,429.682,583.236,429.931,584.047,431.267z"/>
		<path d="M430.545,835.195c-0.742-0.835-1.194-1.276-1.568-1.775c-2.758-3.681-5.08-7.637-7.289-11.662
			c-0.765-1.395-1.328-2.875-1.594-4.447c-0.046-0.272,0.062-0.66,0.247-0.854c0.167-0.176,0.536-0.161,0.795-0.226
			c0.22,0.24,0.512,0.436,0.636,0.709c2.687,5.903,5.868,11.548,8.944,17.248C430.771,834.289,430.675,834.471,430.545,835.195z"/>
		<path d="M451.222,841.962c-1.611-0.634-2.538-1.518-3.371-2.447c-2.104-2.349-4.145-4.757-6.159-7.185
			c-0.384-0.462-0.557-1.112-0.775-1.695c-0.176-0.471,0.27-1.382,0.762-1.596c0.462-0.201,0.94-0.125,1.331,0.164
			c0.375,0.277,0.793,0.578,1.015,0.969c2.103,3.719,4.769,7.057,7.113,10.612C451.274,840.991,451.186,841.347,451.222,841.962z"/>
		<path d="M633.901,527.442c0.549,0.65,0.69,1.4,0.512,2.202c-0.101,0.456-0.203,0.941-0.437,1.335
			c-1.924,3.235-3.86,6.467-6.601,9.108c-0.44,0.424-0.988,0.735-1.541,1.139c-0.12-0.774-0.559,0.063-0.287-0.511
			c0.535-1.127,1.074-2.253,1.637-3.366c1.415-2.795,2.839-5.586,4.273-8.371c0.212-0.413,0.465-0.814,0.757-1.174
			C632.667,527.246,633.275,527.235,633.901,527.442z"/>
		<path d="M606.451,640.381c-0.342-0.693-0.665-1.087-0.728-1.519c-0.423-2.904,0.353-5.648,1.206-8.458
			c0.295-0.286,0.579-0.704,0.973-0.917c1.047-0.564,2.393,0.097,2.543,1.206c0.063,0.467,0.149,0.957,0.072,1.412
			c-0.451,2.684-1.321,5.211-3.005,7.395C607.327,639.742,607.036,639.902,606.451,640.381z"/>
		<path d="M765.906,550.924c1.541,0.772,3.109,1.494,4.617,2.325c4.275,2.357,8.532,4.745,12.778,7.153
			c1.091,0.619,2.121,1.349,3.165,2.049c0.284,0.191,0.315,0.508,0.101,0.788c-0.081,0.105-0.286,0.192-0.413,0.17
			c-0.461-0.081-0.942-0.149-1.363-0.338c-0.859-0.387-1.713-0.803-2.519-1.289c-5.262-3.168-10.513-6.352-15.758-9.548
			c-0.394-0.24-0.708-0.612-1.06-0.922C765.604,551.183,765.755,551.053,765.906,550.924z"/>
		<path d="M506.155,514.208c0.682-0.382,1.353-0.785,2.048-1.141c4.344-2.222,8.689-4.443,13.048-6.638
			c0.546-0.275,1.161-0.451,1.765-0.553c0.225-0.038,0.608,0.209,0.736,0.431c0.13,0.227,0.109,0.609,0.016,0.875
			c-0.097,0.28-0.31,0.578-0.556,0.736c-0.923,0.595-1.852,1.192-2.829,1.688C515.892,511.885,511.107,513.343,506.155,514.208z"/>
		<path d="M596.619,576.655c-0.276-0.475-0.658-0.974-0.879-1.536c-0.993-2.529-1.062-5.183-0.946-7.85
			c0.013-0.301,0.165-0.597,0.252-0.895c0.219-0.751,0.988-1.263,1.791-1.193c0.773,0.068,1.549,0.712,1.689,1.394
			c0.031,0.152,0.119,0.299,0.124,0.45c0.093,2.821-0.067,5.625-0.727,8.377C597.787,575.971,597.51,576.551,596.619,576.655z"/>
		<path d="M469.371,553.767c-0.057,0.147-0.072,0.339-0.175,0.435c-3.946,3.64-8.376,6.611-12.993,9.316
			c-0.535,0.314-1.179,0.447-1.818,0.225c-0.138-0.048-0.342-0.145-0.361-0.248c-0.048-0.27-0.04-0.559,0.004-0.831
			c0.022-0.139,0.156-0.271,0.263-0.384c0.107-0.113,0.237-0.209,0.369-0.293c4.378-2.78,8.756-5.561,13.143-8.328
			c0.255-0.161,0.584-0.295,0.872-0.284C468.912,553.382,469.14,553.626,469.371,553.767z"/>
		<path d="M599.748,643.928c-0.643,0.24-1.102,0.244-1.393-0.201c-0.253-0.388-0.521-0.819-0.592-1.262
			c-0.37-2.331-0.455-4.676-0.071-7.016c0.074-0.453,0.259-0.914,0.498-1.308c0.333-0.55,0.839-0.901,1.532-0.905
			c0.755-0.003,1.59,0.621,1.733,1.312c0.032,0.153,0.119,0.301,0.12,0.452C601.59,638.151,601.348,641.247,599.748,643.928z"/>
		<path d="M616.573,428.349c0.58-0.43,0.807-0.719,1.074-0.762c0.262-0.042,0.66,0.083,0.83,0.28
			c0.402,0.468,0.837,0.978,1.025,1.548c0.797,2.417,0.914,4.957,1.232,7.461c0.22,1.733,0.251,3.452,0.015,5.162
			c-0.179,0.03-0.356,0.102-0.39,0.059c-0.287-0.361-0.67-0.705-0.799-1.123C618.301,436.902,617.417,432.741,616.573,428.349z"/>
		<path d="M596.652,444.294c-0.578-1.704-0.317-2.645-0.053-3.525c1.541-5.135,3.135-10.255,4.737-15.371
			c0.137-0.438,0.418-0.853,0.715-1.209c0.163-0.196,0.496-0.329,0.76-0.343c0.365-0.02,0.766,0.701,0.64,1.088
			C601.394,431.216,599.095,437.412,596.652,444.294z"/>
		<path d="M711.224,522.307c-1.342,0.177-1.345,0.183-4.832-1.526c-1.56-0.765-7.494-3.729-8.916-4.418
			c-1.559-0.756-3.202-1.371-4.449-2.623c-0.027-0.592,0.309-0.951,0.81-0.848c0.919,0.189,1.872,0.402,2.699,0.824
			c4.641,2.371,9.263,4.784,13.638,7.632C710.551,521.593,710.849,521.959,711.224,522.307z"/>
		<path d="M606.426,563.092c1.37-0.265,2.023,0.493,2.352,1.688c0.025,0.17,0.09,0.333,0.065,0.482
			c-0.446,2.643-0.81,5.318-2.416,7.585c-0.145,0.204-0.527,0.241-0.802,0.357c-0.599-0.782-0.885-1.717-0.887-2.649
			c-0.002-1.89,0.109-3.783,0.268-5.667C605.076,564.059,605.668,563.482,606.426,563.092z"/>
		<path d="M1114.79,622.133c1.25-0.557,2.073-0.364,2.683,0.564c0.265,0.812,0.14,1.565-0.339,2.245
			c-0.271,0.384-0.571,0.757-0.909,1.082c-2.498,2.4-5.507,3.541-8.952,3.565c-0.092,0.001-0.186-0.173-0.37-0.355
			C1109.813,627.01,1112.663,624.778,1114.79,622.133z"/>
		<path d="M599.691,509.96c-0.68-2.895-0.929-5.534-1.097-8.206c-0.314-5.016-0.836-10.018-1.253-15.028
			c-0.009-0.107,0.179-0.29,0.309-0.331c0.13-0.041,0.406,0.008,0.44,0.091c0.352,0.864,0.722,1.726,0.976,2.621
			c0.17,0.597,0.168,1.245,0.232,1.871c0.565,5.485,0.449,10.999,0.678,16.499C600.008,508.217,599.94,508.968,599.691,509.96z"/>
		<path d="M631.188,443.781c-0.117-0.017-0.305,0.006-0.34-0.057c-0.305-0.54-0.675-1.067-0.852-1.65
			c-1.095-3.616-2.159-7.242-3.192-10.876c-0.122-0.427-0.062-0.942,0.044-1.385c0.06-0.253,0.349-0.547,0.599-0.631
			c0.251-0.085,0.616,0.003,0.867,0.136c0.261,0.139,0.554,0.385,0.646,0.65c1.52,4.334,2.434,8.782,2.422,13.393
			C631.383,443.501,631.256,443.641,631.188,443.781z"/>
		<path d="M521.612,518.095c-0.265,0.555-0.322,0.895-0.523,1.063c-3.622,3.034-7.257,6.052-10.906,9.054
			c-0.224,0.185-0.581,0.279-0.878,0.284c-0.284,0.005-0.651-0.083-0.835-0.273c-0.181-0.187-0.309-0.598-0.229-0.83
			c0.15-0.43,0.385-0.909,0.731-1.181c3.72-2.916,7.414-5.874,11.665-8.016C520.768,518.131,520.946,518.16,521.612,518.095z"/>
		<path d="M641.666,445.608c-0.257-0.083-0.569-0.103-0.759-0.266c-0.23-0.197-0.397-0.497-0.521-0.783
			c-1.207-2.772-2.003-5.679-2.743-8.598c-0.146-0.575-0.008-1.245,0.104-1.851c0.05-0.272,0.361-0.495,0.624-0.829
			c0.386,0.141,0.837,0.24,1.211,0.467c0.25,0.152,0.486,0.458,0.564,0.741c0.976,3.508,2.083,6.998,1.77,10.718
			C641.905,445.345,641.753,445.473,641.666,445.608z"/>
		<path d="M607.185,440.361c-0.265-1.513-0.632-2.896-0.729-4.298c-0.218-3.16-0.313-6.329-0.427-9.496
			c-0.017-0.459,0.116-0.93,0.221-1.386c0.082-0.358,0.363-0.497,0.741-0.401c0.136,0.035,0.312,0.102,0.373,0.21
			c0.233,0.405,0.525,0.813,0.611,1.256c0.15,0.771,0.249,1.572,0.221,2.355c-0.119,3.326-0.277,6.65-0.46,9.973
			C607.706,439.129,607.762,439.749,607.185,440.361z"/>
		<path d="M471.589,725.328c0.042-0.15,0.036-0.352,0.134-0.444c1.928-1.805,4.383-2.088,6.461-0.727
			c0.677,0.443,1.155,1.078,1.373,1.869c0.179,0.651,0.028,1.232-0.437,1.739c-0.478,0.522-1.079,0.584-1.723,0.514
			c-0.155-0.017-0.317-0.054-0.457-0.121c-1.706-0.817-3.41-1.637-5.108-2.471C471.719,725.631,471.668,725.451,471.589,725.328z"/>
		<path d="M544.931,874.219c0.349,0.879,0.719,1.583,0.912,2.333c0.827,3.211,1.632,6.429,2.374,9.661
			c0.172,0.75,0.104,1.567,0.061,2.348c-0.012,0.214-0.353,0.594-0.507,0.577c-0.267-0.03-0.521-0.294-0.752-0.492
			c-0.111-0.095-0.183-0.257-0.23-0.403c-1.364-4.236-2.137-8.573-2.195-13.028C544.589,874.954,544.766,874.689,544.931,874.219z"
			/>
		<path d="M733.537,568.239c1.719,1.365,3.484,2.677,5.146,4.108c2.499,2.152,5.31,3.938,7.541,6.403
			c0.085,0.094,0.1,0.31,0.064,0.446c-0.09,0.34-0.357,0.492-0.702,0.382c-0.294-0.094-0.577-0.24-0.844-0.399
			c-0.405-0.24-0.831-0.468-1.182-0.776c-3.312-2.908-6.616-5.826-9.901-8.765c-0.308-0.275-0.467-0.717-0.695-1.081
			C733.155,568.452,733.346,568.346,733.537,568.239z"/>
		<path d="M909.966,712.809c0.796,0.253,1.271,0.337,1.682,0.546c3.506,1.787,7.189,3.2,11.211,5.069
			c-0.973,0.133-1.412,0.265-1.841,0.237c-0.944-0.063-1.911-0.1-2.819-0.338c-2.298-0.603-4.532-1.408-6.605-2.592
			c-0.687-0.393-1.352-0.863-1.682-1.617C909.806,713.874,909.925,713.535,909.966,712.809z"/>
		<path d="M590.244,541.088c-0.181,0.33-0.479,0.472-0.777,0.261c-0.507-0.359-1.042-0.725-1.426-1.202
			c-1.682-2.09-3.319-4.216-4.956-6.342c-0.187-0.243-0.272-0.565-0.408-0.849c-0.225-0.468-0.031-1.366,0.395-1.728
			c0.554-0.472,1.678-0.331,2.093,0.274c0.088,0.129,0.211,0.237,0.284,0.373c1.571,2.914,3.138,5.83,4.698,8.75
			C590.218,540.759,590.213,540.933,590.244,541.088z"/>
		<path d="M611.411,640.616c-0.062-0.144-0.2-0.302-0.175-0.429c0.563-2.923,1.449-5.747,2.682-8.457
			c0.188-0.412,0.551-0.746,0.844-1.108c0.24-0.295,0.958-0.38,1.292-0.143c0.393,0.279,0.653,0.653,0.674,1.153
			c0.006,0.154,0.004,0.318-0.042,0.462c-0.963,3.011-2.439,5.741-4.513,8.133C611.999,640.427,611.668,640.49,611.411,640.616z"/>
		<path d="M505.804,845.879c-0.291,0.05-0.644,0.233-0.86,0.13c-2.787-1.333-4.972-3.374-6.675-5.926
			c-0.238-0.356-0.278-0.898-0.263-1.349c0.009-0.263,0.254-0.604,0.491-0.748c0.229-0.139,0.604-0.146,0.878-0.074
			c0.291,0.077,0.604,0.263,0.795,0.494c1.824,2.199,3.63,4.412,5.417,6.641C505.751,845.251,505.736,845.597,505.804,845.879z"/>
		<path d="M265.006,702.582c-0.323,0.234-0.664,0.691-1.042,0.725c-4.05,0.356-8.105,0.532-12.138-0.203
			c-0.093-0.017-0.158-0.19-0.336-0.42c1.141-0.185,2.198-0.418,3.269-0.518c2.958-0.277,5.919-0.526,8.882-0.719
			C264.274,701.405,264.854,701.735,265.006,702.582z"/>
		<path d="M567.886,447.239c-0.138-0.731-0.213-0.891-0.189-1.034c0.623-3.752,1.699-7.368,3.316-10.814
			c0.272-0.58,0.699-0.995,1.408-0.971c0.075,0.299,0.275,0.631,0.204,0.891C571.554,439.269,570.196,443.118,567.886,447.239z"/>
		<path d="M482.047,835.15c1.067-0.512,1.6-0.497,2.046,0.048c1.781,2.18,3.35,4.496,4.46,7.096
			c0.133,0.312-0.065,0.581-0.384,0.718c-2.325-1.648-3.678-3.094-5.667-6.104C482.157,836.386,481.901,835.814,482.047,835.15z"/>
		<path d="M458.945,874.736c0.326,5.119,0.139,10.674-0.405,13.51c-0.051,0.266-0.319,0.49-0.484,0.732
			c-0.759-0.077-1.06-0.583-1.08-1.258c-0.075-2.514,0.139-5.006,0.689-7.464C458.006,878.733,458.369,877.215,458.945,874.736z"/>
		<path d="M659.269,447.967c0.661,0.35,1.099,0.841,1.102,1.488c0.006,1.241-0.02,2.497-0.206,3.72
			c-0.162,1.065-0.473,2.13-1.187,3.002c-0.652-0.27-0.898-0.847-0.99-1.453c-0.306-2.015-0.318-4.028,0.158-6.058
			C658.552,448.414,658.929,448.178,659.269,447.967z"/>
		<path d="M611.065,597.815c0.123,0.405,0.419,0.865,0.365,1.281c-0.305,2.365-1.125,4.559-2.43,6.56
			c-0.069,0.105-0.281,0.116-0.427,0.171c-0.092-0.095-0.253-0.182-0.265-0.287c-0.282-2.381,0.19-4.677,0.809-6.956
			C609.287,597.962,610.055,597.641,611.065,597.815z"/>
		<path d="M411.445,725.563c0.004-0.316-0.069-0.657,0.024-0.944c1.411-4.371,3.185-8.593,5.309-12.666
			c0.063-0.12,0.25-0.238,0.385-0.245c0.317-0.016,0.457,0.22,0.406,0.609c-0.021,0.156-0.031,0.322-0.093,0.463
			c-1.789,4.057-3.577,8.115-5.397,12.159c-0.109,0.242-0.472,0.369-0.716,0.549L411.445,725.563z"/>
		<path d="M650.46,449.567c-0.235-0.18-0.61-0.318-0.682-0.549c-0.369-1.189-0.697-2.394-0.968-3.608
			c-0.269-1.205-0.455-2.429-0.65-3.496c0.347-0.625,0.758-0.737,1.245-0.69c0.52,0.391,0.81,0.93,0.912,1.564
			C650.936,446.635,650.955,447.673,650.46,449.567z"/>
		<path d="M821.85,838.324c1.339,5.03,2.354,10.452,2.305,12.361c-0.001,0.051-0.171,0.098-0.385,0.212
			c-1.195-3.913-1.757-7.913-2.234-11.928C821.513,838.779,821.729,838.56,821.85,838.324z"/>
		<path d="M284.672,616.404c3.904,0.219,7.809,0.439,11.713,0.658l-0.084-0.115c-0.43,0.183-0.854,0.505-1.292,0.527
			c-3.011,0.152-6.009-0.055-8.983-0.532c-0.439-0.07-0.833-0.424-1.248-0.647L284.672,616.404z"/>
		<path d="M558.964,448.365c-0.157-3.217,0.422-5.11,1.512-6.872c0.866,0.08,1.029,0.185,0.906,0.588
			c-0.319,1.045-0.612,2.099-0.982,3.126C560.139,445.932,559.767,446.617,558.964,448.365z"/>
		<path d="M183.379,661.771c-1.688,0.366-2.559-0.529-3.402-1.438c-0.639-0.689-0.681-1.258-0.24-2.573
			c1.172,0.047,1.178,1.227,1.766,1.837C182.119,660.235,182.666,660.937,183.379,661.771z"/>
		<path d="M596.041,536.091c0.109-0.108,0.202-0.276,0.33-0.31c0.272-0.072,0.563-0.075,0.876-0.109
			c1.125,1.062,1.174,2.372,0.867,3.781C596.801,539.155,596.275,538.288,596.041,536.091z"/>
		<path d="M735.535,730.844c-0.039-0.131-0.145-0.289-0.104-0.378c0.53-1.126,1.419-1.63,2.534-1.445
			c0.146,0.024,0.315,0.092,0.412,0.196c0.204,0.218,0.409,0.454,0.536,0.72c0.133,0.279-0.345,0.957-0.695,1.03
			C737.314,731.155,736.407,731.334,735.535,730.844z"/>
		<path d="M510.259,894.988c-2.16-0.064-4.32-0.127-6.558-0.193C504.298,894.186,505.26,894.183,510.259,894.988z"/>
		<path d="M619.1,535.703c-0.137-0.226-0.297-0.368-0.28-0.484c0.154-1.061,0.276-2.132,0.537-3.168
			c0.144-0.572,0.537-1.082,0.784-1.556c0.682-0.079,1.047,0.223,0.963,0.731C620.832,532.87,620.294,534.413,619.1,535.703z"/>
		<path d="M239.425,697.418c0.637-0.271,1.232-0.03,1.815,0.176c0.881,0.311,1.869,0.356,2.611,1.021
			c0.302,0.27,0.349,0.514,0.038,0.84c-1.23-0.48-2.527-0.972-3.809-1.501C239.831,697.85,239.642,697.601,239.425,697.418z"/>
		<path d="M618.593,564.472c-0.534-1.05-0.648-2.109,0.067-3.11c0.132-0.185,0.534-0.207,0.818-0.234
			c0.094-0.009,0.258,0.187,0.307,0.319C620.298,562.849,619.947,563.728,618.593,564.472z"/>
		<path d="M1010.139,550.132c2.115-0.112,3.973,0.635,5.727,1.723c-0.139,0.07-0.289,0.217-0.413,0.198
			c-1.884-0.293-3.633-0.944-5.21-2.031L1010.139,550.132z"/>
		<path d="M806.312,752.647c-1.657-2.923-1.657-2.923-1.389-4.078C806.573,751.84,806.573,751.84,806.312,752.647z"/>
		<path d="M659.531,634.562c-0.111-1.536-0.168-2.547,0.411-4.033C659.787,632.052,659.685,633.05,659.531,634.562z"/>
		<path d="M472.876,559.724c-0.406,1.119-0.913,1.655-1.543,2.097c-0.328,0.23-0.594,0.206-0.751-0.14
			c-0.055-0.12-0.039-0.341,0.039-0.441C471.091,560.64,471.605,560.083,472.876,559.724z"/>
		<path d="M518.413,836.184c0.836,0.624,1.147,1.415,0.773,2.425C517.983,837.856,517.898,837.587,518.413,836.184z"/>
		<path d="M691.368,846.821c-1.814,0.335-2.942,0.125-4.289-0.43C688.573,845.9,689.725,846.218,691.368,846.821z"/>
		<path d="M562.051,487.146c-1.077-1.231-1.424-2.26-1.283-3.813C561.765,484.551,562.108,485.581,562.051,487.146z"/>
		<path d="M411.362,725.487c0.061,1.512-0.634,2.739-1.473,3.911c-0.297-1.284,0.093-2.247,1.556-3.835L411.362,725.487z"/>
	</g>
</g>
</svg>
